<ttFont>
<head>
    <!-- Most of this table will be recalculated by the compiler -->
    <tableVersion value="1.0"/>
    <fontRevision value="1.0"/>
    <checkSumAdjustment value="0x36553df8"/>
    <magicNumber value="0x5f0f3cf5"/>
    <flags value="00000000 00011011"/>
    <unitsPerEm value="1000"/>
    <created value="Sat Dec  6 13:43:37 2025"/>
    <modified value="Sat Dec  6 13:49:19 2025"/>
    <xMin value="-39"/>
    <yMin value="-250"/>
    <xMax value="1036"/>
    <yMax value="750"/>
    <macStyle value="00000000 00000000"/>
    <lowestRecPPEM value="6"/>
    <fontDirectionHint value="2"/>
    <indexToLocFormat value="0"/>
    <glyphDataFormat value="0"/>
  </head>
    <TTGlyph name="A" xMin="34" yMin="0" xMax="736" yMax="716">
      <contour>
        <pt x="636" y="68" on="1"/>
        <pt x="640" y="58" on="0"/>
        <pt x="649" y="43" on="0"/>
        <pt x="667" y="35" on="0"/>
        <pt x="696" y="31" on="0"/>
        <pt x="719" y="31" on="1"/>
        <pt x="736" y="31" on="1"/>
        <pt x="736" y="0" on="1"/>
        <pt x="705" y="1" on="0"/>
        <pt x="669" y="2" on="0"/>
        <pt x="644" y="3" on="0"/>
        <pt x="622" y="3" on="0"/>
        <pt x="605" y="3" on="1"/>
        <pt x="570" y="3" on="0"/>
        <pt x="496" y="2" on="0"/>
        <pt x="462" y="0" on="1"/>
        <pt x="462" y="31" on="1"/>
        <pt x="472" y="31" on="0"/>
        <pt x="500" y="32" on="0"/>
        <pt x="526" y="38" on="0"/>
        <pt x="544" y="50" on="0"/>
        <pt x="544" y="61" on="1"/>
        <pt x="544" y="65" on="0"/>
        <pt x="542" y="71" on="0"/>
        <pt x="539" y="79" on="1"/>
        <pt x="485" y="230" on="1"/>
        <pt x="226" y="230" on="1"/>
        <pt x="179" y="101" on="1"/>
        <pt x="177" y="97" on="0"/>
        <pt x="175" y="89" on="0"/>
        <pt x="175" y="82" on="1"/>
        <pt x="175" y="75" on="0"/>
        <pt x="182" y="57" on="0"/>
        <pt x="199" y="42" on="0"/>
        <pt x="228" y="31" on="0"/>
        <pt x="249" y="31" on="1"/>
        <pt x="249" y="0" on="1"/>
        <pt x="228" y="1" on="0"/>
        <pt x="197" y="2" on="0"/>
        <pt x="172" y="3" on="0"/>
        <pt x="149" y="3" on="0"/>
        <pt x="136" y="3" on="1"/>
        <pt x="108" y="3" on="0"/>
        <pt x="63" y="2" on="0"/>
        <pt x="34" y="0" on="1"/>
        <pt x="34" y="31" on="1"/>
        <pt x="63" y="31" on="0"/>
        <pt x="102" y="44" on="0"/>
        <pt x="127" y="63" on="0"/>
        <pt x="142" y="88" on="0"/>
        <pt x="146" y="100" on="1"/>
        <pt x="361" y="694" on="1"/>
        <pt x="366" y="706" on="0"/>
        <pt x="373" y="716" on="0"/>
        <pt x="385" y="716" on="1"/>
        <pt x="397" y="716" on="0"/>
        <pt x="405" y="705" on="0"/>
        <pt x="409" y="695" on="1"/>
      </contour>
      <contour>
        <pt x="355" y="588" on="1"/>
        <pt x="237" y="261" on="1"/>
        <pt x="473" y="261" on="1"/>
      </contour>
    </TTGlyph>
    <TTGlyph name="AE" xMin="34" yMin="0" xMax="898" yMax="683">
      <contour>
        <pt x="870" y="458" on="1"/>
        <pt x="842" y="458" on="1"/>
        <pt x="836" y="508" on="0"/>
        <pt x="819" y="581" on="0"/>
        <pt x="781" y="629" on="0"/>
        <pt x="717" y="652" on="0"/>
        <pt x="663" y="652" on="1"/>
        <pt x="561" y="652" on="1"/>
        <pt x="543" y="652" on="0"/>
        <pt x="524" y="649" on="0"/>
        <pt x="514" y="640" on="0"/>
        <pt x="512" y="624" on="0"/>
        <pt x="512" y="611" on="1"/>
        <pt x="512" y="344" on="1"/>
        <pt x="600" y="344" on="1"/>
        <pt x="636" y="344" on="0"/>
        <pt x="677" y="357" on="0"/>
        <pt x="699" y="385" on="0"/>
        <pt x="705" y="430" on="0"/>
        <pt x="705" y="461" on="1"/>
        <pt x="733" y="461" on="1"/>
        <pt x="733" y="196" on="1"/>
        <pt x="705" y="196" on="1"/>
        <pt x="705" y="228" on="0"/>
        <pt x="699" y="272" on="0"/>
        <pt x="677" y="300" on="0"/>
        <pt x="636" y="313" on="0"/>
        <pt x="600" y="313" on="1"/>
        <pt x="512" y="313" on="1"/>
        <pt x="512" y="72" on="1"/>
        <pt x="512" y="59" on="0"/>
        <pt x="514" y="43" on="0"/>
        <pt x="524" y="34" on="0"/>
        <pt x="543" y="31" on="0"/>
        <pt x="561" y="31" on="1"/>
        <pt x="661" y="31" on="1"/>
        <pt x="722" y="31" on="0"/>
        <pt x="796" y="58" on="0"/>
        <pt x="839" y="114" on="0"/>
        <pt x="861" y="200" on="0"/>
        <pt x="870" y="258" on="1"/>
        <pt x="898" y="258" on="1"/>
        <pt x="855" y="0" on="1"/>
        <pt x="352" y="0" on="1"/>
        <pt x="352" y="31" on="1"/>
        <pt x="376" y="31" on="0"/>
        <pt x="406" y="32" on="0"/>
        <pt x="423" y="41" on="0"/>
        <pt x="428" y="60" on="0"/>
        <pt x="428" y="77" on="1"/>
        <pt x="428" y="313" on="1"/>
        <pt x="261" y="313" on="1"/>
        <pt x="182" y="103" on="1"/>
        <pt x="178" y="94" on="0"/>
        <pt x="177" y="88" on="0"/>
        <pt x="177" y="82" on="1"/>
        <pt x="177" y="58" on="0"/>
        <pt x="218" y="32" on="0"/>
        <pt x="249" y="31" on="1"/>
        <pt x="249" y="0" on="1"/>
        <pt x="230" y="1" on="0"/>
        <pt x="203" y="2" on="0"/>
        <pt x="178" y="3" on="0"/>
        <pt x="153" y="3" on="0"/>
        <pt x="136" y="3" on="1"/>
        <pt x="133" y="3" on="0"/>
        <pt x="113" y="3" on="0"/>
        <pt x="84" y="2" on="0"/>
        <pt x="50" y="1" on="0"/>
        <pt x="34" y="0" on="1"/>
        <pt x="34" y="31" on="1"/>
        <pt x="63" y="31" on="0"/>
        <pt x="103" y="43" on="0"/>
        <pt x="128" y="63" on="0"/>
        <pt x="143" y="88" on="0"/>
        <pt x="148" y="101" on="1"/>
        <pt x="355" y="651" on="1"/>
        <pt x="346" y="651" on="0"/>
        <pt x="322" y="652" on="0"/>
        <pt x="314" y="652" on="1"/>
        <pt x="269" y="652" on="1"/>
        <pt x="269" y="683" on="1"/>
        <pt x="842" y="683" on="1"/>
      </contour>
      <contour>
        <pt x="273" y="344" on="1"/>
        <pt x="428" y="344" on="1"/>
        <pt x="428" y="602" on="1"/>
        <pt x="428" y="609" on="0"/>
        <pt x="427" y="625" on="0"/>
        <pt x="419" y="638" on="0"/>
        <pt x="402" y="647" on="0"/>
        <pt x="387" y="648" on="1"/>
      </contour>
    </TTGlyph>
    <TTGlyph name="B" xMin="41" yMin="0" xMax="670" yMax="683">
      <contour>
        <pt x="227" y="368" on="1"/>
        <pt x="384" y="368" on="1"/>
        <pt x="419" y="368" on="0"/>
        <pt x="478" y="392" on="0"/>
        <pt x="521" y="432" on="0"/>
        <pt x="545" y="485" on="0"/>
        <pt x="545" y="514" on="1"/>
        <pt x="545" y="537" on="0"/>
        <pt x="529" y="585" on="0"/>
        <pt x="495" y="626" on="0"/>
        <pt x="443" y="652" on="0"/>
        <pt x="406" y="652" on="1"/>
        <pt x="276" y="652" on="1"/>
        <pt x="258" y="652" on="0"/>
        <pt x="239" y="649" on="0"/>
        <pt x="229" y="640" on="0"/>
        <pt x="227" y="624" on="0"/>
        <pt x="227" y="611" on="1"/>
      </contour>
      <contour>
        <pt x="472" y="357" on="1"/>
        <pt x="514" y="353" on="0"/>
        <pt x="586" y="322" on="0"/>
        <pt x="639" y="276" on="0"/>
        <pt x="670" y="216" on="0"/>
        <pt x="670" y="182" on="1"/>
        <pt x="670" y="147" on="0"/>
        <pt x="636" y="82" on="0"/>
        <pt x="576" y="31" on="0"/>
        <pt x="492" y="0" on="0"/>
        <pt x="441" y="0" on="1"/>
        <pt x="41" y="0" on="1"/>
        <pt x="41" y="31" on="1"/>
        <pt x="64" y="31" on="1"/>
        <pt x="93" y="31" on="0"/>
        <pt x="125" y="36" on="0"/>
        <pt x="140" y="47" on="0"/>
        <pt x="143" y="65" on="0"/>
        <pt x="143" y="79" on="1"/>
        <pt x="143" y="604" on="1"/>
        <pt x="143" y="618" on="0"/>
        <pt x="140" y="636" on="0"/>
        <pt x="125" y="647" on="0"/>
        <pt x="93" y="652" on="0"/>
        <pt x="64" y="652" on="1"/>
        <pt x="41" y="652" on="1"/>
        <pt x="41" y="683" on="1"/>
        <pt x="413" y="683" on="1"/>
        <pt x="463" y="683" on="0"/>
        <pt x="546" y="655" on="0"/>
        <pt x="607" y="608" on="0"/>
        <pt x="641" y="547" on="0"/>
        <pt x="641" y="514" on="1"/>
        <pt x="641" y="486" on="0"/>
        <pt x="616" y="436" on="0"/>
        <pt x="571" y="395" on="0"/>
        <pt x="509" y="365" on="0"/>
      </contour>
      <contour>
        <pt x="408" y="31" on="1"/>
        <pt x="447" y="31" on="0"/>
        <pt x="507" y="57" on="0"/>
        <pt x="549" y="100" on="0"/>
        <pt x="571" y="155" on="0"/>
        <pt x="571" y="184" on="1"/>
        <pt x="571" y="207" on="0"/>
        <pt x="555" y="262" on="0"/>
        <pt x="519" y="310" on="0"/>
        <pt x="460" y="343" on="0"/>
        <pt x="416" y="343" on="1"/>
        <pt x="227" y="343" on="1"/>
        <pt x="227" y="72" on="1"/>
        <pt x="227" y="59" on="0"/>
        <pt x="229" y="43" on="0"/>
        <pt x="239" y="34" on="0"/>
        <pt x="258" y="31" on="0"/>
        <pt x="276" y="31" on="1"/>
      </contour>
    </TTGlyph>
    <TTGlyph name="C" xMin="57" yMin="-22" xMax="684" yMax="705">
      <contour>
        <pt x="656" y="693" on="1"/>
        <pt x="664" y="705" on="0"/>
        <pt x="672" y="705" on="1"/>
        <pt x="681" y="705" on="0"/>
        <pt x="684" y="692" on="0"/>
        <pt x="684" y="679" on="1"/>
        <pt x="684" y="445" on="1"/>
        <pt x="684" y="429" on="0"/>
        <pt x="680" y="419" on="0"/>
        <pt x="668" y="419" on="1"/>
        <pt x="658" y="419" on="0"/>
        <pt x="654" y="427" on="0"/>
        <pt x="652" y="437" on="1"/>
        <pt x="643" y="498" on="0"/>
        <pt x="597" y="587" on="0"/>
        <pt x="535" y="646" on="0"/>
        <pt x="461" y="674" on="0"/>
        <pt x="424" y="674" on="1"/>
        <pt x="403" y="674" on="0"/>
        <pt x="348" y="664" on="0"/>
        <pt x="289" y="636" on="0"/>
        <pt x="232" y="589" on="0"/>
        <pt x="187" y="515" on="0"/>
        <pt x="159" y="412" on="0"/>
        <pt x="159" y="342" on="1"/>
        <pt x="159" y="272" on="0"/>
        <pt x="187" y="168" on="0"/>
        <pt x="232" y="94" on="0"/>
        <pt x="289" y="47" on="0"/>
        <pt x="348" y="19" on="0"/>
        <pt x="404" y="9" on="0"/>
        <pt x="425" y="9" on="1"/>
        <pt x="464" y="9" on="0"/>
        <pt x="543" y="37" on="0"/>
        <pt x="609" y="93" on="0"/>
        <pt x="653" y="178" on="0"/>
        <pt x="656" y="235" on="1"/>
        <pt x="657" y="242" on="0"/>
        <pt x="660" y="251" on="0"/>
        <pt x="670" y="251" on="1"/>
        <pt x="681" y="251" on="0"/>
        <pt x="684" y="240" on="0"/>
        <pt x="684" y="232" on="1"/>
        <pt x="684" y="188" on="0"/>
        <pt x="647" y="98" on="0"/>
        <pt x="577" y="24" on="0"/>
        <pt x="477" y="-22" on="0"/>
        <pt x="415" y="-22" on="1"/>
        <pt x="343" y="-22" on="0"/>
        <pt x="213" y="34" on="0"/>
        <pt x="115" y="132" on="0"/>
        <pt x="57" y="265" on="0"/>
        <pt x="57" y="342" on="1"/>
        <pt x="57" y="418" on="0"/>
        <pt x="114" y="550" on="0"/>
        <pt x="212" y="648" on="0"/>
        <pt x="342" y="705" on="0"/>
        <pt x="415" y="705" on="1"/>
        <pt x="453" y="705" on="0"/>
        <pt x="513" y="687" on="0"/>
        <pt x="559" y="660" on="0"/>
        <pt x="593" y="630" on="0"/>
        <pt x="605" y="618" on="1"/>
      </contour>
    </TTGlyph>
    <TTGlyph name="D" xMin="40" yMin="0" xMax="727" yMax="683">
      <contour>
        <pt x="40" y="652" on="1"/>
        <pt x="40" y="683" on="1"/>
        <pt x="412" y="683" on="1"/>
        <pt x="478" y="683" on="0"/>
        <pt x="593" y="628" on="0"/>
        <pt x="678" y="534" on="0"/>
        <pt x="727" y="407" on="0"/>
        <pt x="727" y="336" on="1"/>
        <pt x="727" y="266" on="0"/>
        <pt x="677" y="143" on="0"/>
        <pt x="592" y="52" on="0"/>
        <pt x="477" y="0" on="0"/>
        <pt x="412" y="0" on="1"/>
        <pt x="40" y="0" on="1"/>
        <pt x="40" y="31" on="1"/>
        <pt x="63" y="31" on="1"/>
        <pt x="92" y="31" on="0"/>
        <pt x="124" y="36" on="0"/>
        <pt x="139" y="47" on="0"/>
        <pt x="142" y="65" on="0"/>
        <pt x="142" y="79" on="1"/>
        <pt x="142" y="604" on="1"/>
        <pt x="142" y="618" on="0"/>
        <pt x="139" y="636" on="0"/>
        <pt x="124" y="647" on="0"/>
        <pt x="92" y="652" on="0"/>
        <pt x="63" y="652" on="1"/>
      </contour>
      <contour>
        <pt x="386" y="31" on="1"/>
        <pt x="434" y="31" on="0"/>
        <pt x="534" y="69" on="0"/>
        <pt x="573" y="120" on="1"/>
        <pt x="594" y="146" on="0"/>
        <pt x="616" y="209" on="0"/>
        <pt x="626" y="269" on="0"/>
        <pt x="628" y="321" on="0"/>
        <pt x="628" y="336" on="1"/>
        <pt x="628" y="411" on="0"/>
        <pt x="602" y="521" on="0"/>
        <pt x="569" y="565" on="1"/>
        <pt x="559" y="579" on="0"/>
        <pt x="526" y="609" on="0"/>
        <pt x="480" y="635" on="0"/>
        <pt x="421" y="652" on="0"/>
        <pt x="385" y="652" on="1"/>
        <pt x="278" y="652" on="1"/>
        <pt x="260" y="652" on="0"/>
        <pt x="241" y="649" on="0"/>
        <pt x="231" y="640" on="0"/>
        <pt x="229" y="624" on="0"/>
        <pt x="229" y="611" on="1"/>
        <pt x="229" y="72" on="1"/>
        <pt x="229" y="59" on="0"/>
        <pt x="231" y="43" on="0"/>
        <pt x="241" y="34" on="0"/>
        <pt x="260" y="31" on="0"/>
        <pt x="278" y="31" on="1"/>
      </contour>
    </TTGlyph>
    <TTGlyph name="E" xMin="38" yMin="0" xMax="669" yMax="680">
      <contour>
        <pt x="641" y="455" on="1"/>
        <pt x="613" y="455" on="1"/>
        <pt x="607" y="508" on="0"/>
        <pt x="587" y="581" on="0"/>
        <pt x="544" y="628" on="0"/>
        <pt x="472" y="649" on="0"/>
        <pt x="413" y="649" on="1"/>
        <pt x="279" y="649" on="1"/>
        <pt x="261" y="649" on="0"/>
        <pt x="242" y="646" on="0"/>
        <pt x="232" y="637" on="0"/>
        <pt x="230" y="621" on="0"/>
        <pt x="230" y="608" on="1"/>
        <pt x="230" y="369" on="1"/>
        <pt x="323" y="369" on="1"/>
        <pt x="360" y="369" on="0"/>
        <pt x="403" y="381" on="0"/>
        <pt x="426" y="409" on="0"/>
        <pt x="433" y="454" on="0"/>
        <pt x="433" y="486" on="1"/>
        <pt x="461" y="486" on="1"/>
        <pt x="461" y="221" on="1"/>
        <pt x="433" y="221" on="1"/>
        <pt x="433" y="253" on="0"/>
        <pt x="426" y="298" on="0"/>
        <pt x="403" y="326" on="0"/>
        <pt x="360" y="338" on="0"/>
        <pt x="323" y="338" on="1"/>
        <pt x="230" y="338" on="1"/>
        <pt x="230" y="72" on="1"/>
        <pt x="230" y="59" on="0"/>
        <pt x="232" y="43" on="0"/>
        <pt x="242" y="34" on="0"/>
        <pt x="261" y="31" on="0"/>
        <pt x="279" y="31" on="1"/>
        <pt x="419" y="31" on="1"/>
        <pt x="483" y="31" on="0"/>
        <pt x="562" y="58" on="0"/>
        <pt x="608" y="114" on="0"/>
        <pt x="632" y="200" on="0"/>
        <pt x="641" y="258" on="1"/>
        <pt x="669" y="258" on="1"/>
        <pt x="626" y="0" on="1"/>
        <pt x="38" y="0" on="1"/>
        <pt x="38" y="31" on="1"/>
        <pt x="61" y="31" on="1"/>
        <pt x="90" y="31" on="0"/>
        <pt x="122" y="36" on="0"/>
        <pt x="137" y="47" on="0"/>
        <pt x="140" y="65" on="0"/>
        <pt x="140" y="79" on="1"/>
        <pt x="140" y="601" on="1"/>
        <pt x="140" y="615" on="0"/>
        <pt x="137" y="633" on="0"/>
        <pt x="122" y="644" on="0"/>
        <pt x="90" y="649" on="0"/>
        <pt x="61" y="649" on="1"/>
        <pt x="38" y="649" on="1"/>
        <pt x="38" y="680" on="1"/>
        <pt x="613" y="680" on="1"/>
      </contour>
    </TTGlyph>
    <TTGlyph name="F" xMin="38" yMin="0" xMax="627" yMax="680">
      <contour>
        <pt x="627" y="455" on="1"/>
        <pt x="599" y="455" on="1"/>
        <pt x="593" y="507" on="0"/>
        <pt x="574" y="580" on="0"/>
        <pt x="533" y="627" on="0"/>
        <pt x="462" y="649" on="0"/>
        <pt x="405" y="649" on="1"/>
        <pt x="279" y="649" on="1"/>
        <pt x="261" y="649" on="0"/>
        <pt x="242" y="646" on="0"/>
        <pt x="232" y="637" on="0"/>
        <pt x="230" y="621" on="0"/>
        <pt x="230" y="608" on="1"/>
        <pt x="230" y="356" on="1"/>
        <pt x="320" y="356" on="1"/>
        <pt x="356" y="356" on="0"/>
        <pt x="399" y="369" on="0"/>
        <pt x="422" y="397" on="0"/>
        <pt x="428" y="441" on="0"/>
        <pt x="428" y="473" on="1"/>
        <pt x="456" y="473" on="1"/>
        <pt x="456" y="208" on="1"/>
        <pt x="428" y="208" on="1"/>
        <pt x="428" y="240" on="0"/>
        <pt x="422" y="284" on="0"/>
        <pt x="399" y="312" on="0"/>
        <pt x="356" y="325" on="0"/>
        <pt x="320" y="325" on="1"/>
        <pt x="230" y="325" on="1"/>
        <pt x="230" y="80" on="1"/>
        <pt x="230" y="66" on="0"/>
        <pt x="234" y="47" on="0"/>
        <pt x="253" y="36" on="0"/>
        <pt x="291" y="31" on="0"/>
        <pt x="325" y="31" on="1"/>
        <pt x="357" y="31" on="1"/>
        <pt x="357" y="0" on="1"/>
        <pt x="344" y="1" on="0"/>
        <pt x="300" y="2" on="0"/>
        <pt x="252" y="3" on="0"/>
        <pt x="206" y="3" on="0"/>
        <pt x="191" y="3" on="1"/>
        <pt x="156" y="3" on="0"/>
        <pt x="72" y="2" on="0"/>
        <pt x="38" y="0" on="1"/>
        <pt x="38" y="31" on="1"/>
        <pt x="61" y="31" on="1"/>
        <pt x="90" y="31" on="0"/>
        <pt x="122" y="36" on="0"/>
        <pt x="137" y="47" on="0"/>
        <pt x="140" y="65" on="0"/>
        <pt x="140" y="79" on="1"/>
        <pt x="140" y="601" on="1"/>
        <pt x="140" y="615" on="0"/>
        <pt x="137" y="633" on="0"/>
        <pt x="122" y="644" on="0"/>
        <pt x="90" y="649" on="0"/>
        <pt x="61" y="649" on="1"/>
        <pt x="38" y="649" on="1"/>
        <pt x="38" y="680" on="1"/>
        <pt x="599" y="680" on="1"/>
      </contour>
    </TTGlyph>
    <TTGlyph name="G" xMin="57" yMin="-22" xMax="755" yMax="705">
      <contour>
        <pt x="684" y="445" on="1"/>
        <pt x="684" y="429" on="0"/>
        <pt x="680" y="419" on="0"/>
        <pt x="668" y="419" on="1"/>
        <pt x="658" y="419" on="0"/>
        <pt x="654" y="427" on="0"/>
        <pt x="652" y="437" on="1"/>
        <pt x="643" y="498" on="0"/>
        <pt x="597" y="587" on="0"/>
        <pt x="535" y="646" on="0"/>
        <pt x="461" y="674" on="0"/>
        <pt x="424" y="674" on="1"/>
        <pt x="403" y="674" on="0"/>
        <pt x="348" y="664" on="0"/>
        <pt x="289" y="636" on="0"/>
        <pt x="232" y="589" on="0"/>
        <pt x="187" y="515" on="0"/>
        <pt x="159" y="412" on="0"/>
        <pt x="159" y="342" on="1"/>
        <pt x="159" y="271" on="0"/>
        <pt x="188" y="166" on="0"/>
        <pt x="234" y="92" on="0"/>
        <pt x="293" y="46" on="0"/>
        <pt x="353" y="19" on="0"/>
        <pt x="409" y="9" on="0"/>
        <pt x="429" y="9" on="1"/>
        <pt x="432" y="9" on="0"/>
        <pt x="459" y="10" on="0"/>
        <pt x="496" y="17" on="0"/>
        <pt x="537" y="32" on="0"/>
        <pt x="571" y="59" on="0"/>
        <pt x="594" y="101" on="0"/>
        <pt x="594" y="131" on="1"/>
        <pt x="594" y="194" on="1"/>
        <pt x="594" y="208" on="0"/>
        <pt x="590" y="227" on="0"/>
        <pt x="572" y="238" on="0"/>
        <pt x="533" y="243" on="0"/>
        <pt x="498" y="243" on="1"/>
        <pt x="466" y="243" on="1"/>
        <pt x="466" y="274" on="1"/>
        <pt x="479" y="273" on="0"/>
        <pt x="521" y="272" on="0"/>
        <pt x="568" y="271" on="0"/>
        <pt x="611" y="271" on="0"/>
        <pt x="626" y="271" on="1"/>
        <pt x="646" y="271" on="0"/>
        <pt x="673" y="271" on="0"/>
        <pt x="699" y="272" on="0"/>
        <pt x="731" y="273" on="0"/>
        <pt x="755" y="274" on="1"/>
        <pt x="755" y="243" on="1"/>
        <pt x="730" y="243" on="0"/>
        <pt x="701" y="240" on="0"/>
        <pt x="687" y="231" on="0"/>
        <pt x="684" y="213" on="0"/>
        <pt x="684" y="198" on="1"/>
        <pt x="684" y="26" on="1"/>
        <pt x="684" y="14" on="0"/>
        <pt x="681" y="1" on="0"/>
        <pt x="673" y="1" on="1"/>
        <pt x="669" y="1" on="0"/>
        <pt x="653" y="13" on="0"/>
        <pt x="635" y="31" on="0"/>
        <pt x="616" y="53" on="0"/>
        <pt x="610" y="63" on="1"/>
        <pt x="589" y="26" on="0"/>
        <pt x="487" y="-22" on="0"/>
        <pt x="416" y="-22" on="1"/>
        <pt x="343" y="-22" on="0"/>
        <pt x="212" y="34" on="0"/>
        <pt x="114" y="133" on="0"/>
        <pt x="57" y="266" on="0"/>
        <pt x="57" y="342" on="1"/>
        <pt x="57" y="418" on="0"/>
        <pt x="114" y="550" on="0"/>
        <pt x="212" y="648" on="0"/>
        <pt x="342" y="705" on="0"/>
        <pt x="415" y="705" on="1"/>
        <pt x="453" y="705" on="0"/>
        <pt x="513" y="687" on="0"/>
        <pt x="559" y="660" on="0"/>
        <pt x="593" y="630" on="0"/>
        <pt x="605" y="618" on="1"/>
        <pt x="656" y="693" on="1"/>
        <pt x="664" y="705" on="0"/>
        <pt x="672" y="705" on="1"/>
        <pt x="681" y="705" on="0"/>
        <pt x="684" y="692" on="0"/>
        <pt x="684" y="679" on="1"/>
      </contour>
    </TTGlyph>
    <TTGlyph name="Gamma" xMin="38" yMin="0" xMax="598" yMax="680">
      <contour>
        <pt x="598" y="455" on="1"/>
        <pt x="570" y="455" on="1"/>
        <pt x="564" y="506" on="0"/>
        <pt x="546" y="579" on="0"/>
        <pt x="508" y="626" on="0"/>
        <pt x="442" y="649" on="0"/>
        <pt x="387" y="649" on="1"/>
        <pt x="279" y="649" on="1"/>
        <pt x="261" y="649" on="0"/>
        <pt x="242" y="646" on="0"/>
        <pt x="232" y="637" on="0"/>
        <pt x="230" y="621" on="0"/>
        <pt x="230" y="608" on="1"/>
        <pt x="230" y="80" on="1"/>
        <pt x="230" y="66" on="0"/>
        <pt x="234" y="47" on="0"/>
        <pt x="253" y="36" on="0"/>
        <pt x="291" y="31" on="0"/>
        <pt x="325" y="31" on="1"/>
        <pt x="357" y="31" on="1"/>
        <pt x="357" y="0" on="1"/>
        <pt x="344" y="1" on="0"/>
        <pt x="300" y="2" on="0"/>
        <pt x="252" y="3" on="0"/>
        <pt x="206" y="3" on="0"/>
        <pt x="191" y="3" on="1"/>
        <pt x="156" y="3" on="0"/>
        <pt x="72" y="2" on="0"/>
        <pt x="38" y="0" on="1"/>
        <pt x="38" y="31" on="1"/>
        <pt x="61" y="31" on="1"/>
        <pt x="90" y="31" on="0"/>
        <pt x="122" y="36" on="0"/>
        <pt x="137" y="47" on="0"/>
        <pt x="140" y="65" on="0"/>
        <pt x="140" y="79" on="1"/>
        <pt x="140" y="601" on="1"/>
        <pt x="140" y="615" on="0"/>
        <pt x="137" y="633" on="0"/>
        <pt x="122" y="644" on="0"/>
        <pt x="90" y="649" on="0"/>
        <pt x="61" y="649" on="1"/>
        <pt x="38" y="649" on="1"/>
        <pt x="38" y="680" on="1"/>
        <pt x="570" y="680" on="1"/>
      </contour>
    </TTGlyph>
    <TTGlyph name="H" xMin="38" yMin="0" xMax="732" yMax="683">
      <contour>
        <pt x="540" y="604" on="1"/>
        <pt x="540" y="618" on="0"/>
        <pt x="537" y="636" on="0"/>
        <pt x="522" y="647" on="0"/>
        <pt x="490" y="652" on="0"/>
        <pt x="461" y="652" on="1"/>
        <pt x="438" y="652" on="1"/>
        <pt x="438" y="683" on="1"/>
        <pt x="472" y="681" on="0"/>
        <pt x="550" y="680" on="0"/>
        <pt x="585" y="680" on="1"/>
        <pt x="620" y="680" on="0"/>
        <pt x="698" y="681" on="0"/>
        <pt x="732" y="683" on="1"/>
        <pt x="732" y="652" on="1"/>
        <pt x="709" y="652" on="1"/>
        <pt x="680" y="652" on="0"/>
        <pt x="648" y="647" on="0"/>
        <pt x="633" y="636" on="0"/>
        <pt x="630" y="618" on="0"/>
        <pt x="630" y="604" on="1"/>
        <pt x="630" y="79" on="1"/>
        <pt x="630" y="65" on="0"/>
        <pt x="633" y="47" on="0"/>
        <pt x="648" y="36" on="0"/>
        <pt x="680" y="31" on="0"/>
        <pt x="709" y="31" on="1"/>
        <pt x="732" y="31" on="1"/>
        <pt x="732" y="0" on="1"/>
        <pt x="698" y="2" on="0"/>
        <pt x="620" y="3" on="0"/>
        <pt x="585" y="3" on="1"/>
        <pt x="550" y="3" on="0"/>
        <pt x="472" y="2" on="0"/>
        <pt x="438" y="0" on="1"/>
        <pt x="438" y="31" on="1"/>
        <pt x="461" y="31" on="1"/>
        <pt x="490" y="31" on="0"/>
        <pt x="522" y="36" on="0"/>
        <pt x="537" y="47" on="0"/>
        <pt x="540" y="65" on="0"/>
        <pt x="540" y="79" on="1"/>
        <pt x="540" y="340" on="1"/>
        <pt x="230" y="340" on="1"/>
        <pt x="230" y="79" on="1"/>
        <pt x="230" y="65" on="0"/>
        <pt x="233" y="47" on="0"/>
        <pt x="248" y="36" on="0"/>
        <pt x="280" y="31" on="0"/>
        <pt x="309" y="31" on="1"/>
        <pt x="332" y="31" on="1"/>
        <pt x="332" y="0" on="1"/>
        <pt x="298" y="2" on="0"/>
        <pt x="220" y="3" on="0"/>
        <pt x="185" y="3" on="1"/>
        <pt x="150" y="3" on="0"/>
        <pt x="72" y="2" on="0"/>
        <pt x="38" y="0" on="1"/>
        <pt x="38" y="31" on="1"/>
        <pt x="61" y="31" on="1"/>
        <pt x="90" y="31" on="0"/>
        <pt x="122" y="36" on="0"/>
        <pt x="137" y="47" on="0"/>
        <pt x="140" y="65" on="0"/>
        <pt x="140" y="79" on="1"/>
        <pt x="140" y="604" on="1"/>
        <pt x="140" y="618" on="0"/>
        <pt x="137" y="636" on="0"/>
        <pt x="122" y="647" on="0"/>
        <pt x="90" y="652" on="0"/>
        <pt x="61" y="652" on="1"/>
        <pt x="38" y="652" on="1"/>
        <pt x="38" y="683" on="1"/>
        <pt x="72" y="681" on="0"/>
        <pt x="150" y="680" on="0"/>
        <pt x="185" y="680" on="1"/>
        <pt x="220" y="680" on="0"/>
        <pt x="298" y="681" on="0"/>
        <pt x="332" y="683" on="1"/>
        <pt x="332" y="652" on="1"/>
        <pt x="309" y="652" on="1"/>
        <pt x="280" y="652" on="0"/>
        <pt x="248" y="647" on="0"/>
        <pt x="233" y="636" on="0"/>
        <pt x="230" y="618" on="0"/>
        <pt x="230" y="604" on="1"/>
        <pt x="230" y="371" on="1"/>
        <pt x="540" y="371" on="1"/>
      </contour>
    </TTGlyph>
    <TTGlyph name="I" xMin="33" yMin="0" xMax="337" yMax="683">
      <contour>
        <pt x="230" y="79" on="1"/>
        <pt x="230" y="66" on="0"/>
        <pt x="233" y="47" on="0"/>
        <pt x="249" y="36" on="0"/>
        <pt x="282" y="31" on="0"/>
        <pt x="312" y="31" on="1"/>
        <pt x="337" y="31" on="1"/>
        <pt x="337" y="0" on="1"/>
        <pt x="322" y="1" on="0"/>
        <pt x="282" y="2" on="0"/>
        <pt x="241" y="3" on="0"/>
        <pt x="201" y="3" on="0"/>
        <pt x="185" y="3" on="1"/>
        <pt x="169" y="3" on="0"/>
        <pt x="129" y="3" on="0"/>
        <pt x="88" y="2" on="0"/>
        <pt x="48" y="1" on="0"/>
        <pt x="33" y="0" on="1"/>
        <pt x="33" y="31" on="1"/>
        <pt x="58" y="31" on="1"/>
        <pt x="88" y="31" on="0"/>
        <pt x="121" y="36" on="0"/>
        <pt x="137" y="47" on="0"/>
        <pt x="140" y="66" on="0"/>
        <pt x="140" y="79" on="1"/>
        <pt x="140" y="604" on="1"/>
        <pt x="140" y="618" on="0"/>
        <pt x="137" y="636" on="0"/>
        <pt x="121" y="647" on="0"/>
        <pt x="88" y="652" on="0"/>
        <pt x="58" y="652" on="1"/>
        <pt x="33" y="652" on="1"/>
        <pt x="33" y="683" on="1"/>
        <pt x="48" y="682" on="0"/>
        <pt x="88" y="681" on="0"/>
        <pt x="129" y="680" on="0"/>
        <pt x="169" y="680" on="0"/>
        <pt x="185" y="680" on="1"/>
        <pt x="201" y="680" on="0"/>
        <pt x="241" y="680" on="0"/>
        <pt x="282" y="681" on="0"/>
        <pt x="322" y="682" on="0"/>
        <pt x="337" y="683" on="1"/>
        <pt x="337" y="652" on="1"/>
        <pt x="312" y="652" on="1"/>
        <pt x="282" y="652" on="0"/>
        <pt x="249" y="647" on="0"/>
        <pt x="233" y="636" on="0"/>
        <pt x="230" y="618" on="0"/>
        <pt x="230" y="604" on="1"/>
      </contour>
    </TTGlyph>
    <TTGlyph name="J" xMin="48" yMin="-22" xMax="475" yMax="683">
      <contour>
        <pt x="399" y="204" on="1"/>
        <pt x="399" y="194" on="0"/>
        <pt x="399" y="170" on="0"/>
        <pt x="399" y="147" on="0"/>
        <pt x="398" y="129" on="0"/>
        <pt x="398" y="126" on="1"/>
        <pt x="393" y="90" on="0"/>
        <pt x="357" y="35" on="0"/>
        <pt x="305" y="-3" on="0"/>
        <pt x="242" y="-22" on="0"/>
        <pt x="210" y="-22" on="1"/>
        <pt x="176" y="-22" on="0"/>
        <pt x="116" y="-1" on="0"/>
        <pt x="73" y="36" on="0"/>
        <pt x="48" y="85" on="0"/>
        <pt x="48" y="112" on="1"/>
        <pt x="48" y="138" on="0"/>
        <pt x="80" y="168" on="0"/>
        <pt x="103" y="168" on="1"/>
        <pt x="127" y="168" on="0"/>
        <pt x="157" y="137" on="0"/>
        <pt x="157" y="114" on="1"/>
        <pt x="157" y="91" on="0"/>
        <pt x="124" y="57" on="0"/>
        <pt x="95" y="60" on="1"/>
        <pt x="114" y="31" on="0"/>
        <pt x="178" y="3" on="0"/>
        <pt x="208" y="3" on="1"/>
        <pt x="228" y="3" on="0"/>
        <pt x="265" y="22" on="0"/>
        <pt x="294" y="60" on="0"/>
        <pt x="312" y="114" on="0"/>
        <pt x="312" y="148" on="1"/>
        <pt x="312" y="603" on="1"/>
        <pt x="312" y="617" on="0"/>
        <pt x="308" y="636" on="0"/>
        <pt x="289" y="647" on="0"/>
        <pt x="250" y="652" on="0"/>
        <pt x="214" y="652" on="1"/>
        <pt x="180" y="652" on="1"/>
        <pt x="180" y="683" on="1"/>
        <pt x="193" y="682" on="0"/>
        <pt x="236" y="681" on="0"/>
        <pt x="283" y="680" on="0"/>
        <pt x="328" y="680" on="0"/>
        <pt x="343" y="680" on="1"/>
        <pt x="363" y="680" on="0"/>
        <pt x="391" y="680" on="0"/>
        <pt x="418" y="681" on="0"/>
        <pt x="450" y="682" on="0"/>
        <pt x="475" y="683" on="1"/>
        <pt x="475" y="652" on="1"/>
        <pt x="452" y="652" on="0"/>
        <pt x="423" y="651" on="0"/>
        <pt x="406" y="643" on="0"/>
        <pt x="399" y="626" on="0"/>
        <pt x="399" y="611" on="1"/>
      </contour>
    </TTGlyph>
    <TTGlyph name="K" xMin="38" yMin="0" xMax="755" yMax="683">
      <contour>
        <pt x="412" y="418" on="1"/>
        <pt x="646" y="86" on="1"/>
        <pt x="658" y="69" on="0"/>
        <pt x="677" y="47" on="0"/>
        <pt x="700" y="35" on="0"/>
        <pt x="731" y="31" on="0"/>
        <pt x="755" y="31" on="1"/>
        <pt x="755" y="0" on="1"/>
        <pt x="717" y="2" on="0"/>
        <pt x="658" y="3" on="0"/>
        <pt x="638" y="3" on="1"/>
        <pt x="604" y="3" on="0"/>
        <pt x="532" y="2" on="0"/>
        <pt x="499" y="0" on="1"/>
        <pt x="499" y="31" on="1"/>
        <pt x="506" y="31" on="0"/>
        <pt x="525" y="32" on="0"/>
        <pt x="543" y="37" on="0"/>
        <pt x="556" y="49" on="0"/>
        <pt x="556" y="60" on="1"/>
        <pt x="556" y="68" on="0"/>
        <pt x="545" y="89" on="0"/>
        <pt x="539" y="97" on="1"/>
        <pt x="352" y="363" on="1"/>
        <pt x="230" y="250" on="1"/>
        <pt x="230" y="79" on="1"/>
        <pt x="230" y="65" on="0"/>
        <pt x="233" y="47" on="0"/>
        <pt x="248" y="36" on="0"/>
        <pt x="280" y="31" on="0"/>
        <pt x="309" y="31" on="1"/>
        <pt x="332" y="31" on="1"/>
        <pt x="332" y="0" on="1"/>
        <pt x="298" y="2" on="0"/>
        <pt x="220" y="3" on="0"/>
        <pt x="185" y="3" on="1"/>
        <pt x="150" y="3" on="0"/>
        <pt x="72" y="2" on="0"/>
        <pt x="38" y="0" on="1"/>
        <pt x="38" y="31" on="1"/>
        <pt x="61" y="31" on="1"/>
        <pt x="90" y="31" on="0"/>
        <pt x="122" y="36" on="0"/>
        <pt x="137" y="47" on="0"/>
        <pt x="140" y="65" on="0"/>
        <pt x="140" y="79" on="1"/>
        <pt x="140" y="604" on="1"/>
        <pt x="140" y="618" on="0"/>
        <pt x="137" y="636" on="0"/>
        <pt x="122" y="647" on="0"/>
        <pt x="90" y="652" on="0"/>
        <pt x="61" y="652" on="1"/>
        <pt x="38" y="652" on="1"/>
        <pt x="38" y="683" on="1"/>
        <pt x="72" y="681" on="0"/>
        <pt x="150" y="680" on="0"/>
        <pt x="185" y="680" on="1"/>
        <pt x="220" y="680" on="0"/>
        <pt x="298" y="681" on="0"/>
        <pt x="332" y="683" on="1"/>
        <pt x="332" y="652" on="1"/>
        <pt x="309" y="652" on="1"/>
        <pt x="280" y="652" on="0"/>
        <pt x="248" y="647" on="0"/>
        <pt x="233" y="636" on="0"/>
        <pt x="230" y="618" on="0"/>
        <pt x="230" y="604" on="1"/>
        <pt x="230" y="288" on="1"/>
        <pt x="563" y="596" on="1"/>
        <pt x="571" y="607" on="0"/>
        <pt x="571" y="619" on="1"/>
        <pt x="571" y="650" on="0"/>
        <pt x="528" y="652" on="1"/>
        <pt x="528" y="683" on="1"/>
        <pt x="562" y="681" on="0"/>
        <pt x="620" y="680" on="0"/>
        <pt x="652" y="680" on="1"/>
        <pt x="656" y="680" on="0"/>
        <pt x="676" y="680" on="0"/>
        <pt x="702" y="681" on="0"/>
        <pt x="730" y="682" on="0"/>
        <pt x="741" y="683" on="1"/>
        <pt x="741" y="652" on="1"/>
        <pt x="735" y="652" on="0"/>
        <pt x="706" y="649" on="0"/>
        <pt x="668" y="637" on="0"/>
        <pt x="623" y="613" on="0"/>
        <pt x="599" y="591" on="1"/>
      </contour>
    </TTGlyph>
    <TTGlyph name="L" xMin="38" yMin="0" xMax="598" yMax="683">
      <contour>
        <pt x="570" y="0" on="1"/>
        <pt x="38" y="0" on="1"/>
        <pt x="38" y="31" on="1"/>
        <pt x="61" y="31" on="1"/>
        <pt x="90" y="31" on="0"/>
        <pt x="122" y="36" on="0"/>
        <pt x="137" y="47" on="0"/>
        <pt x="140" y="65" on="0"/>
        <pt x="140" y="79" on="1"/>
        <pt x="140" y="604" on="1"/>
        <pt x="140" y="618" on="0"/>
        <pt x="137" y="636" on="0"/>
        <pt x="122" y="647" on="0"/>
        <pt x="90" y="652" on="0"/>
        <pt x="61" y="652" on="1"/>
        <pt x="38" y="652" on="1"/>
        <pt x="38" y="683" on="1"/>
        <pt x="72" y="681" on="0"/>
        <pt x="156" y="680" on="0"/>
        <pt x="191" y="680" on="1"/>
        <pt x="206" y="680" on="0"/>
        <pt x="252" y="680" on="0"/>
        <pt x="300" y="681" on="0"/>
        <pt x="344" y="682" on="0"/>
        <pt x="357" y="683" on="1"/>
        <pt x="357" y="652" on="1"/>
        <pt x="325" y="652" on="1"/>
        <pt x="291" y="652" on="0"/>
        <pt x="253" y="647" on="0"/>
        <pt x="234" y="636" on="0"/>
        <pt x="230" y="617" on="0"/>
        <pt x="230" y="603" on="1"/>
        <pt x="230" y="72" on="1"/>
        <pt x="230" y="59" on="0"/>
        <pt x="232" y="43" on="0"/>
        <pt x="242" y="34" on="0"/>
        <pt x="261" y="31" on="0"/>
        <pt x="279" y="31" on="1"/>
        <pt x="366" y="31" on="1"/>
        <pt x="433" y="31" on="0"/>
        <pt x="511" y="74" on="0"/>
        <pt x="551" y="140" on="0"/>
        <pt x="566" y="220" on="0"/>
        <pt x="570" y="258" on="1"/>
        <pt x="598" y="258" on="1"/>
      </contour>
    </TTGlyph>
    <TTGlyph name="Lambda" xMin="33" yMin="0" xMax="680" yMax="716">
      <contour>
        <pt x="168" y="104" on="1"/>
        <pt x="164" y="93" on="0"/>
        <pt x="163" y="87" on="0"/>
        <pt x="163" y="83" on="1"/>
        <pt x="163" y="62" on="0"/>
        <pt x="201" y="32" on="0"/>
        <pt x="238" y="31" on="1"/>
        <pt x="238" y="0" on="1"/>
        <pt x="219" y="1" on="0"/>
        <pt x="191" y="2" on="0"/>
        <pt x="167" y="3" on="0"/>
        <pt x="143" y="3" on="0"/>
        <pt x="127" y="3" on="1"/>
        <pt x="103" y="3" on="0"/>
        <pt x="57" y="2" on="0"/>
        <pt x="33" y="0" on="1"/>
        <pt x="33" y="31" on="1"/>
        <pt x="59" y="31" on="0"/>
        <pt x="95" y="44" on="0"/>
        <pt x="117" y="65" on="0"/>
        <pt x="130" y="89" on="0"/>
        <pt x="134" y="101" on="1"/>
        <pt x="333" y="695" on="1"/>
        <pt x="336" y="704" on="0"/>
        <pt x="344" y="716" on="0"/>
        <pt x="356" y="716" on="1"/>
        <pt x="368" y="716" on="0"/>
        <pt x="376" y="705" on="0"/>
        <pt x="380" y="695" on="1"/>
        <pt x="588" y="73" on="1"/>
        <pt x="593" y="57" on="0"/>
        <pt x="606" y="40" on="0"/>
        <pt x="627" y="32" on="0"/>
        <pt x="657" y="31" on="0"/>
        <pt x="680" y="31" on="1"/>
        <pt x="680" y="0" on="1"/>
        <pt x="651" y="1" on="0"/>
        <pt x="618" y="2" on="0"/>
        <pt x="594" y="3" on="0"/>
        <pt x="573" y="3" on="0"/>
        <pt x="555" y="3" on="1"/>
        <pt x="520" y="3" on="0"/>
        <pt x="447" y="2" on="0"/>
        <pt x="413" y="0" on="1"/>
        <pt x="413" y="31" on="1"/>
        <pt x="424" y="31" on="0"/>
        <pt x="452" y="32" on="0"/>
        <pt x="478" y="38" on="0"/>
        <pt x="496" y="50" on="0"/>
        <pt x="496" y="62" on="1"/>
        <pt x="496" y="65" on="0"/>
        <pt x="495" y="71" on="0"/>
        <pt x="491" y="81" on="1"/>
        <pt x="325" y="575" on="1"/>
      </contour>
    </TTGlyph>
    <TTGlyph name="M" xMin="43" yMin="0" xMax="898" yMax="683">
      <contour>
        <pt x="464" y="18" on="1"/>
        <pt x="461" y="11" on="0"/>
        <pt x="452" y="0" on="0"/>
        <pt x="444" y="0" on="1"/>
        <pt x="435" y="0" on="0"/>
        <pt x="427" y="12" on="0"/>
        <pt x="423" y="22" on="1"/>
        <pt x="177" y="642" on="1"/>
        <pt x="176" y="641" on="1"/>
        <pt x="176" y="106" on="1"/>
        <pt x="176" y="96" on="0"/>
        <pt x="179" y="70" on="0"/>
        <pt x="198" y="47" on="0"/>
        <pt x="240" y="31" on="0"/>
        <pt x="278" y="31" on="1"/>
        <pt x="278" y="0" on="1"/>
        <pt x="258" y="1" on="0"/>
        <pt x="230" y="2" on="0"/>
        <pt x="205" y="3" on="0"/>
        <pt x="179" y="3" on="0"/>
        <pt x="161" y="3" on="1"/>
        <pt x="143" y="3" on="0"/>
        <pt x="117" y="3" on="0"/>
        <pt x="92" y="2" on="0"/>
        <pt x="64" y="1" on="0"/>
        <pt x="43" y="0" on="1"/>
        <pt x="43" y="31" on="1"/>
        <pt x="81" y="31" on="0"/>
        <pt x="123" y="47" on="0"/>
        <pt x="142" y="70" on="0"/>
        <pt x="145" y="96" on="0"/>
        <pt x="145" y="106" on="1"/>
        <pt x="145" y="604" on="1"/>
        <pt x="145" y="618" on="0"/>
        <pt x="142" y="636" on="0"/>
        <pt x="127" y="647" on="0"/>
        <pt x="95" y="652" on="0"/>
        <pt x="66" y="652" on="1"/>
        <pt x="43" y="652" on="1"/>
        <pt x="43" y="683" on="1"/>
        <pt x="211" y="683" on="1"/>
        <pt x="231" y="683" on="0"/>
        <pt x="241" y="676" on="0"/>
        <pt x="247" y="661" on="1"/>
        <pt x="471" y="98" on="1"/>
        <pt x="695" y="665" on="1"/>
        <pt x="700" y="679" on="0"/>
        <pt x="714" y="683" on="0"/>
        <pt x="730" y="683" on="1"/>
        <pt x="898" y="683" on="1"/>
        <pt x="898" y="652" on="1"/>
        <pt x="875" y="652" on="1"/>
        <pt x="846" y="652" on="0"/>
        <pt x="814" y="647" on="0"/>
        <pt x="799" y="636" on="0"/>
        <pt x="796" y="618" on="0"/>
        <pt x="796" y="604" on="1"/>
        <pt x="796" y="79" on="1"/>
        <pt x="796" y="65" on="0"/>
        <pt x="799" y="47" on="0"/>
        <pt x="814" y="36" on="0"/>
        <pt x="846" y="31" on="0"/>
        <pt x="875" y="31" on="1"/>
        <pt x="898" y="31" on="1"/>
        <pt x="898" y="0" on="1"/>
        <pt x="874" y="1" on="0"/>
        <pt x="825" y="2" on="0"/>
        <pt x="785" y="3" on="0"/>
        <pt x="757" y="3" on="0"/>
        <pt x="755" y="3" on="1"/>
        <pt x="749" y="3" on="0"/>
        <pt x="720" y="3" on="0"/>
        <pt x="681" y="2" on="0"/>
        <pt x="636" y="1" on="0"/>
        <pt x="613" y="0" on="1"/>
        <pt x="613" y="31" on="1"/>
        <pt x="636" y="31" on="1"/>
        <pt x="665" y="31" on="0"/>
        <pt x="697" y="36" on="0"/>
        <pt x="712" y="47" on="0"/>
        <pt x="715" y="65" on="0"/>
        <pt x="715" y="79" on="1"/>
        <pt x="715" y="649" on="1"/>
        <pt x="714" y="650" on="1"/>
      </contour>
    </TTGlyph>
    <TTGlyph name="N" xMin="38" yMin="0" xMax="732" yMax="683">
      <contour>
        <pt x="599" y="150" on="1"/>
        <pt x="599" y="577" on="1"/>
        <pt x="599" y="587" on="0"/>
        <pt x="596" y="613" on="0"/>
        <pt x="577" y="636" on="0"/>
        <pt x="535" y="652" on="0"/>
        <pt x="497" y="652" on="1"/>
        <pt x="497" y="683" on="1"/>
        <pt x="518" y="682" on="0"/>
        <pt x="546" y="681" on="0"/>
        <pt x="571" y="680" on="0"/>
        <pt x="597" y="680" on="0"/>
        <pt x="615" y="680" on="1"/>
        <pt x="633" y="680" on="0"/>
        <pt x="659" y="680" on="0"/>
        <pt x="684" y="681" on="0"/>
        <pt x="712" y="682" on="0"/>
        <pt x="732" y="683" on="1"/>
        <pt x="732" y="652" on="1"/>
        <pt x="694" y="652" on="0"/>
        <pt x="652" y="636" on="0"/>
        <pt x="633" y="613" on="0"/>
        <pt x="630" y="587" on="0"/>
        <pt x="630" y="577" on="1"/>
        <pt x="630" y="27" on="1"/>
        <pt x="630" y="13" on="0"/>
        <pt x="626" y="0" on="0"/>
        <pt x="614" y="0" on="1"/>
        <pt x="610" y="0" on="0"/>
        <pt x="602" y="3" on="0"/>
        <pt x="596" y="12" on="1"/>
        <pt x="171" y="622" on="1"/>
        <pt x="171" y="106" on="1"/>
        <pt x="171" y="96" on="0"/>
        <pt x="174" y="70" on="0"/>
        <pt x="193" y="47" on="0"/>
        <pt x="235" y="31" on="0"/>
        <pt x="273" y="31" on="1"/>
        <pt x="273" y="0" on="1"/>
        <pt x="253" y="1" on="0"/>
        <pt x="225" y="2" on="0"/>
        <pt x="200" y="3" on="0"/>
        <pt x="174" y="3" on="0"/>
        <pt x="156" y="3" on="1"/>
        <pt x="138" y="3" on="0"/>
        <pt x="112" y="3" on="0"/>
        <pt x="87" y="2" on="0"/>
        <pt x="59" y="1" on="0"/>
        <pt x="38" y="0" on="1"/>
        <pt x="38" y="31" on="1"/>
        <pt x="76" y="31" on="0"/>
        <pt x="118" y="47" on="0"/>
        <pt x="137" y="70" on="0"/>
        <pt x="140" y="96" on="0"/>
        <pt x="140" y="106" on="1"/>
        <pt x="140" y="645" on="1"/>
        <pt x="139" y="645" on="0"/>
        <pt x="102" y="652" on="0"/>
        <pt x="66" y="652" on="1"/>
        <pt x="38" y="652" on="1"/>
        <pt x="38" y="683" on="1"/>
        <pt x="206" y="683" on="1"/>
        <pt x="220" y="683" on="0"/>
        <pt x="230" y="680" on="0"/>
        <pt x="236" y="671" on="1"/>
      </contour>
    </TTGlyph>
    <TTGlyph name="O" xMin="57" yMin="-22" xMax="741" yMax="705">
      <contour>
        <pt x="741" y="339" on="1"/>
        <pt x="741" y="263" on="0"/>
        <pt x="686" y="131" on="0"/>
        <pt x="593" y="34" on="0"/>
        <pt x="469" y="-22" on="0"/>
        <pt x="399" y="-22" on="1"/>
        <pt x="329" y="-22" on="0"/>
        <pt x="205" y="34" on="0"/>
        <pt x="112" y="131" on="0"/>
        <pt x="57" y="263" on="0"/>
        <pt x="57" y="339" on="1"/>
        <pt x="57" y="415" on="0"/>
        <pt x="111" y="549" on="0"/>
        <pt x="204" y="648" on="0"/>
        <pt x="329" y="705" on="0"/>
        <pt x="399" y="705" on="1"/>
        <pt x="469" y="705" on="0"/>
        <pt x="594" y="648" on="0"/>
        <pt x="687" y="549" on="0"/>
        <pt x="741" y="416" on="0"/>
      </contour>
      <contour>
        <pt x="399" y="8" on="1"/>
        <pt x="437" y="8" on="0"/>
        <pt x="521" y="44" on="0"/>
        <pt x="592" y="125" on="0"/>
        <pt x="639" y="257" on="0"/>
        <pt x="639" y="354" on="1"/>
        <pt x="639" y="446" on="0"/>
        <pt x="591" y="569" on="0"/>
        <pt x="519" y="645" on="0"/>
        <pt x="435" y="677" on="0"/>
        <pt x="399" y="677" on="1"/>
        <pt x="363" y="677" on="0"/>
        <pt x="279" y="645" on="0"/>
        <pt x="207" y="569" on="0"/>
        <pt x="159" y="446" on="0"/>
        <pt x="159" y="354" on="1"/>
        <pt x="159" y="257" on="0"/>
        <pt x="206" y="125" on="0"/>
        <pt x="277" y="44" on="0"/>
        <pt x="361" y="8" on="0"/>
      </contour>
    </TTGlyph>
    <TTGlyph name="OE" xMin="71" yMin="-22" xMax="1012" yMax="705">
      <contour>
        <pt x="571" y="0" on="1"/>
        <pt x="563" y="0" on="0"/>
        <pt x="548" y="-1" on="0"/>
        <pt x="528" y="-3" on="0"/>
        <pt x="500" y="-9" on="0"/>
        <pt x="479" y="-13" on="1"/>
        <pt x="452" y="-19" on="0"/>
        <pt x="421" y="-22" on="0"/>
        <pt x="411" y="-22" on="1"/>
        <pt x="344" y="-22" on="0"/>
        <pt x="221" y="32" on="0"/>
        <pt x="127" y="129" on="0"/>
        <pt x="71" y="261" on="0"/>
        <pt x="71" y="339" on="1"/>
        <pt x="71" y="417" on="0"/>
        <pt x="127" y="551" on="0"/>
        <pt x="220" y="649" on="0"/>
        <pt x="344" y="705" on="0"/>
        <pt x="411" y="705" on="1"/>
        <pt x="421" y="705" on="0"/>
        <pt x="452" y="702" on="0"/>
        <pt x="479" y="696" on="1"/>
        <pt x="500" y="692" on="0"/>
        <pt x="528" y="686" on="0"/>
        <pt x="548" y="684" on="0"/>
        <pt x="563" y="683" on="0"/>
        <pt x="571" y="683" on="1"/>
        <pt x="956" y="683" on="1"/>
        <pt x="984" y="458" on="1"/>
        <pt x="956" y="458" on="1"/>
        <pt x="950" y="509" on="0"/>
        <pt x="932" y="583" on="0"/>
        <pt x="893" y="630" on="0"/>
        <pt x="826" y="652" on="0"/>
        <pt x="771" y="652" on="1"/>
        <pt x="655" y="652" on="1"/>
        <pt x="637" y="652" on="0"/>
        <pt x="618" y="649" on="0"/>
        <pt x="608" y="640" on="0"/>
        <pt x="606" y="624" on="0"/>
        <pt x="606" y="611" on="1"/>
        <pt x="606" y="370" on="1"/>
        <pt x="717" y="370" on="1"/>
        <pt x="755" y="370" on="0"/>
        <pt x="801" y="382" on="0"/>
        <pt x="825" y="410" on="0"/>
        <pt x="833" y="455" on="0"/>
        <pt x="833" y="487" on="1"/>
        <pt x="861" y="487" on="1"/>
        <pt x="861" y="222" on="1"/>
        <pt x="833" y="222" on="1"/>
        <pt x="833" y="255" on="0"/>
        <pt x="825" y="299" on="0"/>
        <pt x="801" y="327" on="0"/>
        <pt x="755" y="339" on="0"/>
        <pt x="717" y="339" on="1"/>
        <pt x="606" y="339" on="1"/>
        <pt x="606" y="72" on="1"/>
        <pt x="606" y="59" on="0"/>
        <pt x="608" y="43" on="0"/>
        <pt x="618" y="34" on="0"/>
        <pt x="637" y="31" on="0"/>
        <pt x="655" y="31" on="1"/>
        <pt x="770" y="31" on="1"/>
        <pt x="833" y="31" on="0"/>
        <pt x="908" y="58" on="0"/>
        <pt x="952" y="114" on="0"/>
        <pt x="975" y="200" on="0"/>
        <pt x="984" y="258" on="1"/>
        <pt x="1012" y="258" on="1"/>
        <pt x="969" y="0" on="1"/>
      </contour>
      <contour>
        <pt x="415" y="3" on="1"/>
        <pt x="451" y="3" on="0"/>
        <pt x="492" y="21" on="0"/>
        <pt x="513" y="52" on="0"/>
        <pt x="521" y="93" on="0"/>
        <pt x="524" y="117" on="1"/>
        <pt x="527" y="144" on="0"/>
        <pt x="528" y="264" on="0"/>
        <pt x="528" y="342" on="1"/>
        <pt x="528" y="423" on="0"/>
        <pt x="527" y="543" on="0"/>
        <pt x="523" y="575" on="1"/>
        <pt x="520" y="598" on="0"/>
        <pt x="511" y="636" on="0"/>
        <pt x="488" y="664" on="0"/>
        <pt x="448" y="680" on="0"/>
        <pt x="415" y="680" on="1"/>
        <pt x="366" y="680" on="0"/>
        <pt x="277" y="631" on="0"/>
        <pt x="209" y="544" on="0"/>
        <pt x="170" y="425" on="0"/>
        <pt x="170" y="354" on="1"/>
        <pt x="170" y="281" on="0"/>
        <pt x="209" y="153" on="0"/>
        <pt x="275" y="58" on="0"/>
        <pt x="364" y="3" on="0"/>
      </contour>
    </TTGlyph>
    <TTGlyph name="Oslash" xMin="57" yMin="-57" xMax="741" yMax="740">
      <contour>
        <pt x="682" y="724" on="1"/>
        <pt x="613" y="624" on="1"/>
        <pt x="673" y="573" on="0"/>
        <pt x="741" y="424" on="0"/>
        <pt x="741" y="339" on="1"/>
        <pt x="741" y="263" on="0"/>
        <pt x="686" y="131" on="0"/>
        <pt x="593" y="34" on="0"/>
        <pt x="469" y="-22" on="0"/>
        <pt x="399" y="-22" on="1"/>
        <pt x="383" y="-22" on="0"/>
        <pt x="339" y="-18" on="0"/>
        <pt x="290" y="-4" on="0"/>
        <pt x="235" y="21" on="0"/>
        <pt x="206" y="41" on="1"/>
        <pt x="138" y="-57" on="1"/>
        <pt x="116" y="-41" on="1"/>
        <pt x="184" y="58" on="1"/>
        <pt x="157" y="81" on="0"/>
        <pt x="111" y="140" on="0"/>
        <pt x="77" y="211" on="0"/>
        <pt x="57" y="293" on="0"/>
        <pt x="57" y="339" on="1"/>
        <pt x="57" y="415" on="0"/>
        <pt x="111" y="549" on="0"/>
        <pt x="204" y="648" on="0"/>
        <pt x="329" y="705" on="0"/>
        <pt x="399" y="705" on="1"/>
        <pt x="432" y="705" on="0"/>
        <pt x="490" y="693" on="0"/>
        <pt x="538" y="674" on="0"/>
        <pt x="577" y="652" on="0"/>
        <pt x="592" y="642" on="1"/>
        <pt x="660" y="740" on="1"/>
      </contour>
      <contour>
        <pt x="567" y="608" on="1"/>
        <pt x="556" y="620" on="0"/>
        <pt x="523" y="645" on="0"/>
        <pt x="481" y="666" on="0"/>
        <pt x="429" y="680" on="0"/>
        <pt x="399" y="680" on="1"/>
        <pt x="389" y="680" on="0"/>
        <pt x="344" y="675" on="0"/>
        <pt x="288" y="654" on="0"/>
        <pt x="228" y="611" on="0"/>
        <pt x="179" y="535" on="0"/>
        <pt x="147" y="421" on="0"/>
        <pt x="147" y="339" on="1"/>
        <pt x="147" y="253" on="0"/>
        <pt x="179" y="139" on="0"/>
        <pt x="211" y="97" on="1"/>
      </contour>
      <contour>
        <pt x="231" y="75" on="1"/>
        <pt x="241" y="63" on="0"/>
        <pt x="274" y="38" on="0"/>
        <pt x="317" y="17" on="0"/>
        <pt x="369" y="3" on="0"/>
        <pt x="399" y="3" on="1"/>
        <pt x="450" y="3" on="0"/>
        <pt x="553" y="50" on="0"/>
        <pt x="591" y="102" on="1"/>
        <pt x="612" y="131" on="0"/>
        <pt x="636" y="194" on="0"/>
        <pt x="648" y="257" on="0"/>
        <pt x="651" y="316" on="0"/>
        <pt x="651" y="339" on="1"/>
        <pt x="651" y="424" on="0"/>
        <pt x="618" y="541" on="0"/>
        <pt x="586" y="585" on="1"/>
      </contour>
    </TTGlyph>
    <TTGlyph name="P" xMin="40" yMin="0" xMax="641" yMax="683">
      <contour>
        <pt x="232" y="314" on="1"/>
        <pt x="232" y="79" on="1"/>
        <pt x="232" y="65" on="0"/>
        <pt x="235" y="47" on="0"/>
        <pt x="250" y="36" on="0"/>
        <pt x="282" y="31" on="0"/>
        <pt x="311" y="31" on="1"/>
        <pt x="334" y="31" on="1"/>
        <pt x="334" y="0" on="1"/>
        <pt x="300" y="2" on="0"/>
        <pt x="222" y="3" on="0"/>
        <pt x="187" y="3" on="1"/>
        <pt x="152" y="3" on="0"/>
        <pt x="74" y="2" on="0"/>
        <pt x="40" y="0" on="1"/>
        <pt x="40" y="31" on="1"/>
        <pt x="63" y="31" on="1"/>
        <pt x="92" y="31" on="0"/>
        <pt x="124" y="36" on="0"/>
        <pt x="139" y="47" on="0"/>
        <pt x="142" y="65" on="0"/>
        <pt x="142" y="79" on="1"/>
        <pt x="142" y="604" on="1"/>
        <pt x="142" y="618" on="0"/>
        <pt x="139" y="636" on="0"/>
        <pt x="124" y="647" on="0"/>
        <pt x="92" y="652" on="0"/>
        <pt x="63" y="652" on="1"/>
        <pt x="40" y="652" on="1"/>
        <pt x="40" y="683" on="1"/>
        <pt x="399" y="683" on="1"/>
        <pt x="451" y="683" on="0"/>
        <pt x="540" y="653" on="0"/>
        <pt x="604" y="602" on="0"/>
        <pt x="641" y="534" on="0"/>
        <pt x="641" y="497" on="1"/>
        <pt x="641" y="461" on="0"/>
        <pt x="605" y="395" on="0"/>
        <pt x="540" y="344" on="0"/>
        <pt x="452" y="314" on="0"/>
        <pt x="399" y="314" on="1"/>
      </contour>
      <contour>
        <pt x="229" y="342" on="1"/>
        <pt x="373" y="342" on="1"/>
        <pt x="435" y="342" on="0"/>
        <pt x="503" y="378" on="0"/>
        <pt x="534" y="427" on="0"/>
        <pt x="539" y="480" on="0"/>
        <pt x="539" y="497" on="1"/>
        <pt x="539" y="514" on="0"/>
        <pt x="534" y="567" on="0"/>
        <pt x="503" y="616" on="0"/>
        <pt x="436" y="652" on="0"/>
        <pt x="374" y="652" on="1"/>
        <pt x="278" y="652" on="1"/>
        <pt x="260" y="652" on="0"/>
        <pt x="241" y="649" on="0"/>
        <pt x="231" y="640" on="0"/>
        <pt x="229" y="624" on="0"/>
        <pt x="229" y="611" on="1"/>
      </contour>
    </TTGlyph>
    <TTGlyph name="Phi" xMin="57" yMin="0" xMax="684" yMax="683">
      <contour>
        <pt x="410" y="548" on="1"/>
        <pt x="470" y="544" on="0"/>
        <pt x="571" y="507" on="0"/>
        <pt x="643" y="451" on="0"/>
        <pt x="684" y="380" on="0"/>
        <pt x="684" y="341" on="1"/>
        <pt x="684" y="304" on="0"/>
        <pt x="644" y="234" on="0"/>
        <pt x="572" y="177" on="0"/>
        <pt x="471" y="140" on="0"/>
        <pt x="410" y="135" on="1"/>
        <pt x="410" y="80" on="1"/>
        <pt x="410" y="66" on="0"/>
        <pt x="414" y="47" on="0"/>
        <pt x="433" y="36" on="0"/>
        <pt x="471" y="31" on="0"/>
        <pt x="505" y="31" on="1"/>
        <pt x="537" y="31" on="1"/>
        <pt x="537" y="0" on="1"/>
        <pt x="524" y="1" on="0"/>
        <pt x="479" y="2" on="0"/>
        <pt x="430" y="3" on="0"/>
        <pt x="383" y="3" on="0"/>
        <pt x="368" y="3" on="1"/>
        <pt x="353" y="3" on="0"/>
        <pt x="306" y="3" on="0"/>
        <pt x="257" y="2" on="0"/>
        <pt x="212" y="1" on="0"/>
        <pt x="199" y="0" on="1"/>
        <pt x="199" y="31" on="1"/>
        <pt x="231" y="31" on="1"/>
        <pt x="265" y="31" on="0"/>
        <pt x="303" y="36" on="0"/>
        <pt x="322" y="47" on="0"/>
        <pt x="326" y="66" on="0"/>
        <pt x="326" y="80" on="1"/>
        <pt x="326" y="135" on="1"/>
        <pt x="265" y="141" on="0"/>
        <pt x="165" y="180" on="0"/>
        <pt x="95" y="236" on="0"/>
        <pt x="57" y="305" on="0"/>
        <pt x="57" y="342" on="1"/>
        <pt x="57" y="377" on="0"/>
        <pt x="94" y="446" on="0"/>
        <pt x="163" y="502" on="0"/>
        <pt x="263" y="542" on="0"/>
        <pt x="326" y="548" on="1"/>
        <pt x="326" y="603" on="1"/>
        <pt x="326" y="617" on="0"/>
        <pt x="322" y="636" on="0"/>
        <pt x="303" y="647" on="0"/>
        <pt x="265" y="652" on="0"/>
        <pt x="231" y="652" on="1"/>
        <pt x="199" y="652" on="1"/>
        <pt x="199" y="683" on="1"/>
        <pt x="212" y="682" on="0"/>
        <pt x="257" y="681" on="0"/>
        <pt x="306" y="680" on="0"/>
        <pt x="353" y="680" on="0"/>
        <pt x="368" y="680" on="1"/>
        <pt x="383" y="680" on="0"/>
        <pt x="430" y="680" on="0"/>
        <pt x="479" y="681" on="0"/>
        <pt x="524" y="682" on="0"/>
        <pt x="537" y="683" on="1"/>
        <pt x="537" y="652" on="1"/>
        <pt x="505" y="652" on="1"/>
        <pt x="471" y="652" on="0"/>
        <pt x="433" y="647" on="0"/>
        <pt x="414" y="636" on="0"/>
        <pt x="410" y="617" on="0"/>
        <pt x="410" y="603" on="1"/>
      </contour>
      <contour>
        <pt x="326" y="522" on="1"/>
        <pt x="236" y="511" on="0"/>
        <pt x="156" y="416" on="0"/>
        <pt x="156" y="341" on="1"/>
        <pt x="156" y="260" on="0"/>
        <pt x="244" y="171" on="0"/>
        <pt x="326" y="161" on="1"/>
      </contour>
      <contour>
        <pt x="410" y="160" on="1"/>
        <pt x="491" y="169" on="0"/>
        <pt x="585" y="256" on="0"/>
        <pt x="585" y="342" on="1"/>
        <pt x="585" y="389" on="0"/>
        <pt x="557" y="454" on="0"/>
        <pt x="509" y="497" on="0"/>
        <pt x="446" y="519" on="0"/>
        <pt x="410" y="523" on="1"/>
      </contour>
    </TTGlyph>
    <TTGlyph name="Pi" xMin="38" yMin="0" xMax="732" yMax="680">
      <contour>
        <pt x="230" y="79" on="1"/>
        <pt x="230" y="65" on="0"/>
        <pt x="233" y="47" on="0"/>
        <pt x="248" y="36" on="0"/>
        <pt x="280" y="31" on="0"/>
        <pt x="309" y="31" on="1"/>
        <pt x="332" y="31" on="1"/>
        <pt x="332" y="0" on="1"/>
        <pt x="298" y="2" on="0"/>
        <pt x="220" y="3" on="0"/>
        <pt x="185" y="3" on="1"/>
        <pt x="150" y="3" on="0"/>
        <pt x="72" y="2" on="0"/>
        <pt x="38" y="0" on="1"/>
        <pt x="38" y="31" on="1"/>
        <pt x="61" y="31" on="1"/>
        <pt x="90" y="31" on="0"/>
        <pt x="122" y="36" on="0"/>
        <pt x="137" y="47" on="0"/>
        <pt x="140" y="65" on="0"/>
        <pt x="140" y="79" on="1"/>
        <pt x="140" y="601" on="1"/>
        <pt x="140" y="615" on="0"/>
        <pt x="137" y="633" on="0"/>
        <pt x="122" y="644" on="0"/>
        <pt x="90" y="649" on="0"/>
        <pt x="61" y="649" on="1"/>
        <pt x="38" y="649" on="1"/>
        <pt x="38" y="680" on="1"/>
        <pt x="732" y="680" on="1"/>
        <pt x="732" y="649" on="1"/>
        <pt x="709" y="649" on="1"/>
        <pt x="680" y="649" on="0"/>
        <pt x="648" y="644" on="0"/>
        <pt x="633" y="633" on="0"/>
        <pt x="630" y="615" on="0"/>
        <pt x="630" y="601" on="1"/>
        <pt x="630" y="79" on="1"/>
        <pt x="630" y="65" on="0"/>
        <pt x="633" y="47" on="0"/>
        <pt x="648" y="36" on="0"/>
        <pt x="680" y="31" on="0"/>
        <pt x="709" y="31" on="1"/>
        <pt x="732" y="31" on="1"/>
        <pt x="732" y="0" on="1"/>
        <pt x="698" y="2" on="0"/>
        <pt x="620" y="3" on="0"/>
        <pt x="585" y="3" on="1"/>
        <pt x="550" y="3" on="0"/>
        <pt x="472" y="2" on="0"/>
        <pt x="438" y="0" on="1"/>
        <pt x="438" y="31" on="1"/>
        <pt x="461" y="31" on="1"/>
        <pt x="490" y="31" on="0"/>
        <pt x="522" y="36" on="0"/>
        <pt x="537" y="47" on="0"/>
        <pt x="540" y="65" on="0"/>
        <pt x="540" y="79" on="1"/>
        <pt x="540" y="649" on="1"/>
        <pt x="230" y="649" on="1"/>
      </contour>
    </TTGlyph>
    <TTGlyph name="Psi" xMin="57" yMin="0" xMax="741" yMax="683">
      <contour>
        <pt x="354" y="603" on="1"/>
        <pt x="354" y="617" on="0"/>
        <pt x="350" y="636" on="0"/>
        <pt x="331" y="647" on="0"/>
        <pt x="293" y="652" on="0"/>
        <pt x="259" y="652" on="1"/>
        <pt x="227" y="652" on="1"/>
        <pt x="227" y="683" on="1"/>
        <pt x="240" y="682" on="0"/>
        <pt x="285" y="681" on="0"/>
        <pt x="334" y="680" on="0"/>
        <pt x="381" y="680" on="0"/>
        <pt x="396" y="680" on="1"/>
        <pt x="411" y="680" on="0"/>
        <pt x="458" y="680" on="0"/>
        <pt x="507" y="681" on="0"/>
        <pt x="552" y="682" on="0"/>
        <pt x="565" y="683" on="1"/>
        <pt x="565" y="652" on="1"/>
        <pt x="533" y="652" on="1"/>
        <pt x="499" y="652" on="0"/>
        <pt x="461" y="647" on="0"/>
        <pt x="442" y="636" on="0"/>
        <pt x="438" y="617" on="0"/>
        <pt x="438" y="603" on="1"/>
        <pt x="438" y="163" on="1"/>
        <pt x="482" y="172" on="0"/>
        <pt x="539" y="222" on="0"/>
        <pt x="572" y="288" on="0"/>
        <pt x="585" y="364" on="0"/>
        <pt x="585" y="400" on="1"/>
        <pt x="585" y="450" on="0"/>
        <pt x="601" y="511" on="0"/>
        <pt x="627" y="544" on="0"/>
        <pt x="661" y="555" on="0"/>
        <pt x="679" y="555" on="1"/>
        <pt x="714" y="555" on="1"/>
        <pt x="726" y="555" on="0"/>
        <pt x="741" y="552" on="0"/>
        <pt x="741" y="542" on="1"/>
        <pt x="741" y="534" on="0"/>
        <pt x="730" y="531" on="0"/>
        <pt x="726" y="530" on="1"/>
        <pt x="705" y="527" on="0"/>
        <pt x="682" y="496" on="0"/>
        <pt x="671" y="459" on="0"/>
        <pt x="669" y="426" on="0"/>
        <pt x="669" y="421" on="1"/>
        <pt x="669" y="380" on="0"/>
        <pt x="653" y="287" on="0"/>
        <pt x="604" y="205" on="0"/>
        <pt x="513" y="144" on="0"/>
        <pt x="438" y="135" on="1"/>
        <pt x="438" y="80" on="1"/>
        <pt x="438" y="66" on="0"/>
        <pt x="442" y="47" on="0"/>
        <pt x="461" y="36" on="0"/>
        <pt x="499" y="31" on="0"/>
        <pt x="533" y="31" on="1"/>
        <pt x="565" y="31" on="1"/>
        <pt x="565" y="0" on="1"/>
        <pt x="552" y="1" on="0"/>
        <pt x="507" y="2" on="0"/>
        <pt x="458" y="3" on="0"/>
        <pt x="411" y="3" on="0"/>
        <pt x="396" y="3" on="1"/>
        <pt x="381" y="3" on="0"/>
        <pt x="334" y="3" on="0"/>
        <pt x="285" y="2" on="0"/>
        <pt x="240" y="1" on="0"/>
        <pt x="227" y="0" on="1"/>
        <pt x="227" y="31" on="1"/>
        <pt x="259" y="31" on="1"/>
        <pt x="293" y="31" on="0"/>
        <pt x="331" y="36" on="0"/>
        <pt x="350" y="47" on="0"/>
        <pt x="354" y="66" on="0"/>
        <pt x="354" y="80" on="1"/>
        <pt x="354" y="135" on="1"/>
        <pt x="297" y="143" on="0"/>
        <pt x="208" y="188" on="0"/>
        <pt x="176" y="235" on="1"/>
        <pt x="161" y="256" on="0"/>
        <pt x="143" y="304" on="0"/>
        <pt x="133" y="348" on="0"/>
        <pt x="129" y="385" on="0"/>
        <pt x="129" y="395" on="1"/>
        <pt x="129" y="410" on="0"/>
        <pt x="127" y="454" on="0"/>
        <pt x="117" y="495" on="0"/>
        <pt x="96" y="527" on="0"/>
        <pt x="76" y="530" on="1"/>
        <pt x="68" y="531" on="0"/>
        <pt x="57" y="534" on="0"/>
        <pt x="57" y="542" on="1"/>
        <pt x="57" y="552" on="0"/>
        <pt x="72" y="555" on="0"/>
        <pt x="84" y="555" on="1"/>
        <pt x="119" y="555" on="1"/>
        <pt x="126" y="555" on="0"/>
        <pt x="144" y="554" on="0"/>
        <pt x="164" y="547" on="0"/>
        <pt x="183" y="532" on="0"/>
        <pt x="191" y="518" on="1"/>
        <pt x="199" y="505" on="0"/>
        <pt x="207" y="473" on="0"/>
        <pt x="212" y="445" on="0"/>
        <pt x="213" y="421" on="0"/>
        <pt x="213" y="415" on="1"/>
        <pt x="213" y="395" on="0"/>
        <pt x="218" y="320" on="0"/>
        <pt x="244" y="242" on="0"/>
        <pt x="302" y="175" on="0"/>
        <pt x="354" y="163" on="1"/>
      </contour>
    </TTGlyph>
    <TTGlyph name="Q" xMin="57" yMin="-194" xMax="747" yMax="705">
      <contour>
        <pt x="532" y="7" on="1"/>
        <pt x="549" y="-35" on="0"/>
        <pt x="590" y="-92" on="0"/>
        <pt x="630" y="-92" on="1"/>
        <pt x="636" y="-92" on="0"/>
        <pt x="664" y="-87" on="0"/>
        <pt x="694" y="-69" on="0"/>
        <pt x="719" y="-32" on="0"/>
        <pt x="722" y="1" on="1"/>
        <pt x="723" y="5" on="0"/>
        <pt x="729" y="12" on="0"/>
        <pt x="734" y="12" on="1"/>
        <pt x="744" y="12" on="0"/>
        <pt x="747" y="-2" on="0"/>
        <pt x="747" y="-9" on="1"/>
        <pt x="747" y="-28" on="0"/>
        <pt x="737" y="-91" on="0"/>
        <pt x="710" y="-151" on="0"/>
        <pt x="661" y="-194" on="0"/>
        <pt x="622" y="-194" on="1"/>
        <pt x="587" y="-194" on="0"/>
        <pt x="544" y="-164" on="0"/>
        <pt x="518" y="-113" on="0"/>
        <pt x="503" y="-45" on="0"/>
        <pt x="496" y="-8" on="1"/>
        <pt x="478" y="-13" on="0"/>
        <pt x="425" y="-22" on="0"/>
        <pt x="399" y="-22" on="1"/>
        <pt x="329" y="-22" on="0"/>
        <pt x="205" y="34" on="0"/>
        <pt x="112" y="131" on="0"/>
        <pt x="57" y="263" on="0"/>
        <pt x="57" y="339" on="1"/>
        <pt x="57" y="415" on="0"/>
        <pt x="111" y="549" on="0"/>
        <pt x="204" y="648" on="0"/>
        <pt x="329" y="705" on="0"/>
        <pt x="399" y="705" on="1"/>
        <pt x="469" y="705" on="0"/>
        <pt x="594" y="648" on="0"/>
        <pt x="687" y="549" on="0"/>
        <pt x="741" y="416" on="0"/>
        <pt x="741" y="339" on="1"/>
        <pt x="741" y="277" on="0"/>
        <pt x="706" y="170" on="0"/>
        <pt x="647" y="85" on="0"/>
        <pt x="572" y="24" on="0"/>
      </contour>
      <contour>
        <pt x="327" y="20" on="1"/>
        <pt x="326" y="21" on="0"/>
        <pt x="315" y="46" on="0"/>
        <pt x="315" y="64" on="1"/>
        <pt x="315" y="99" on="0"/>
        <pt x="363" y="149" on="0"/>
        <pt x="400" y="149" on="1"/>
        <pt x="424" y="149" on="0"/>
        <pt x="461" y="130" on="0"/>
        <pt x="489" y="100" on="0"/>
        <pt x="509" y="62" on="0"/>
        <pt x="516" y="43" on="1"/>
        <pt x="581" y="87" on="0"/>
        <pt x="642" y="239" on="0"/>
        <pt x="642" y="339" on="1"/>
        <pt x="642" y="432" on="0"/>
        <pt x="595" y="561" on="0"/>
        <pt x="524" y="641" on="0"/>
        <pt x="438" y="677" on="0"/>
        <pt x="399" y="677" on="1"/>
        <pt x="360" y="677" on="0"/>
        <pt x="274" y="641" on="0"/>
        <pt x="203" y="561" on="0"/>
        <pt x="156" y="432" on="0"/>
        <pt x="156" y="339" on="1"/>
        <pt x="156" y="272" on="0"/>
        <pt x="182" y="166" on="0"/>
        <pt x="228" y="87" on="0"/>
        <pt x="291" y="34" on="0"/>
      </contour>
      <contour>
        <pt x="488" y="27" on="1"/>
        <pt x="478" y="69" on="0"/>
        <pt x="441" y="124" on="0"/>
        <pt x="401" y="124" on="1"/>
        <pt x="372" y="124" on="0"/>
        <pt x="340" y="87" on="0"/>
        <pt x="340" y="64" on="1"/>
        <pt x="340" y="58" on="0"/>
        <pt x="345" y="38" on="0"/>
        <pt x="358" y="20" on="0"/>
        <pt x="381" y="6" on="0"/>
        <pt x="399" y="6" on="1"/>
        <pt x="419" y="6" on="0"/>
        <pt x="466" y="16" on="0"/>
      </contour>
    </TTGlyph>
    <TTGlyph name="R" xMin="40" yMin="-22" xMax="752" yMax="683">
      <contour>
        <pt x="345" y="354" on="1"/>
        <pt x="396" y="354" on="0"/>
        <pt x="465" y="376" on="0"/>
        <pt x="507" y="416" on="0"/>
        <pt x="525" y="471" on="0"/>
        <pt x="525" y="503" on="1"/>
        <pt x="525" y="559" on="0"/>
        <pt x="483" y="619" on="0"/>
        <pt x="419" y="647" on="0"/>
        <pt x="344" y="652" on="0"/>
        <pt x="312" y="652" on="1"/>
        <pt x="296" y="652" on="0"/>
        <pt x="257" y="652" on="0"/>
        <pt x="250" y="650" on="1"/>
        <pt x="236" y="647" on="0"/>
        <pt x="229" y="631" on="0"/>
        <pt x="229" y="611" on="1"/>
        <pt x="229" y="354" on="1"/>
      </contour>
      <contour>
        <pt x="454" y="339" on="1"/>
        <pt x="496" y="326" on="0"/>
        <pt x="544" y="289" on="0"/>
        <pt x="569" y="245" on="0"/>
        <pt x="579" y="198" on="0"/>
        <pt x="582" y="175" on="1"/>
        <pt x="584" y="158" on="0"/>
        <pt x="590" y="118" on="0"/>
        <pt x="596" y="80" on="0"/>
        <pt x="603" y="48" on="0"/>
        <pt x="606" y="40" on="1"/>
        <pt x="612" y="27" on="0"/>
        <pt x="633" y="3" on="0"/>
        <pt x="657" y="3" on="1"/>
        <pt x="680" y="3" on="0"/>
        <pt x="720" y="42" on="0"/>
        <pt x="724" y="90" on="1"/>
        <pt x="725" y="96" on="0"/>
        <pt x="728" y="107" on="0"/>
        <pt x="738" y="107" on="1"/>
        <pt x="749" y="107" on="0"/>
        <pt x="752" y="94" on="0"/>
        <pt x="752" y="89" on="1"/>
        <pt x="752" y="80" on="0"/>
        <pt x="745" y="43" on="0"/>
        <pt x="723" y="6" on="0"/>
        <pt x="685" y="-22" on="0"/>
        <pt x="653" y="-22" on="1"/>
        <pt x="649" y="-22" on="0"/>
        <pt x="624" y="-21" on="0"/>
        <pt x="591" y="-14" on="0"/>
        <pt x="553" y="1" on="0"/>
        <pt x="535" y="15" on="1"/>
        <pt x="517" y="29" on="0"/>
        <pt x="498" y="61" on="0"/>
        <pt x="489" y="97" on="0"/>
        <pt x="487" y="139" on="0"/>
        <pt x="487" y="164" on="1"/>
        <pt x="487" y="191" on="0"/>
        <pt x="486" y="225" on="0"/>
        <pt x="480" y="251" on="0"/>
        <pt x="468" y="273" on="0"/>
        <pt x="457" y="287" on="1"/>
        <pt x="456" y="289" on="0"/>
        <pt x="442" y="302" on="0"/>
        <pt x="415" y="317" on="0"/>
        <pt x="376" y="329" on="0"/>
        <pt x="349" y="329" on="1"/>
        <pt x="229" y="329" on="1"/>
        <pt x="229" y="79" on="1"/>
        <pt x="229" y="65" on="0"/>
        <pt x="232" y="47" on="0"/>
        <pt x="247" y="36" on="0"/>
        <pt x="279" y="31" on="0"/>
        <pt x="308" y="31" on="1"/>
        <pt x="331" y="31" on="1"/>
        <pt x="331" y="0" on="1"/>
        <pt x="295" y="2" on="0"/>
        <pt x="221" y="3" on="0"/>
        <pt x="185" y="3" on="1"/>
        <pt x="149" y="3" on="0"/>
        <pt x="75" y="2" on="0"/>
        <pt x="40" y="0" on="1"/>
        <pt x="40" y="31" on="1"/>
        <pt x="63" y="31" on="1"/>
        <pt x="92" y="31" on="0"/>
        <pt x="124" y="36" on="0"/>
        <pt x="139" y="47" on="0"/>
        <pt x="142" y="65" on="0"/>
        <pt x="142" y="79" on="1"/>
        <pt x="142" y="604" on="1"/>
        <pt x="142" y="618" on="0"/>
        <pt x="139" y="636" on="0"/>
        <pt x="124" y="647" on="0"/>
        <pt x="92" y="652" on="0"/>
        <pt x="63" y="652" on="1"/>
        <pt x="40" y="652" on="1"/>
        <pt x="40" y="683" on="1"/>
        <pt x="359" y="683" on="1"/>
        <pt x="414" y="683" on="0"/>
        <pt x="512" y="655" on="0"/>
        <pt x="585" y="606" on="0"/>
        <pt x="627" y="540" on="0"/>
        <pt x="627" y="503" on="1"/>
        <pt x="627" y="474" on="0"/>
        <pt x="600" y="423" on="0"/>
        <pt x="553" y="381" on="0"/>
        <pt x="490" y="349" on="0"/>
      </contour>
    </TTGlyph>
    <TTGlyph name="S" xMin="57" yMin="-22" xMax="513" yMax="705">
      <contour>
        <pt x="315" y="397" on="1"/>
        <pt x="339" y="391" on="0"/>
        <pt x="381" y="380" on="0"/>
        <pt x="418" y="363" on="0"/>
        <pt x="452" y="337" on="0"/>
        <pt x="468" y="316" on="1"/>
        <pt x="486" y="293" on="0"/>
        <pt x="513" y="228" on="0"/>
        <pt x="513" y="185" on="1"/>
        <pt x="513" y="145" on="0"/>
        <pt x="484" y="70" on="0"/>
        <pt x="431" y="13" on="0"/>
        <pt x="356" y="-22" on="0"/>
        <pt x="310" y="-22" on="1"/>
        <pt x="292" y="-22" on="0"/>
        <pt x="245" y="-17" on="0"/>
        <pt x="195" y="-2" on="0"/>
        <pt x="143" y="26" on="0"/>
        <pt x="120" y="48" on="1"/>
        <pt x="108" y="29" on="0"/>
        <pt x="97" y="11" on="0"/>
        <pt x="92" y="3" on="0"/>
        <pt x="89" y="-2" on="0"/>
        <pt x="84" y="-9" on="1"/>
        <pt x="79" y="-18" on="0"/>
        <pt x="74" y="-22" on="0"/>
        <pt x="69" y="-22" on="1"/>
        <pt x="60" y="-22" on="0"/>
        <pt x="57" y="-9" on="0"/>
        <pt x="57" y="6" on="1"/>
        <pt x="57" y="199" on="1"/>
        <pt x="57" y="214" on="0"/>
        <pt x="60" y="227" on="0"/>
        <pt x="71" y="227" on="1"/>
        <pt x="81" y="227" on="0"/>
        <pt x="84" y="217" on="0"/>
        <pt x="85" y="206" on="1"/>
        <pt x="88" y="144" on="0"/>
        <pt x="137" y="67" on="0"/>
        <pt x="205" y="24" on="0"/>
        <pt x="280" y="9" on="0"/>
        <pt x="309" y="9" on="1"/>
        <pt x="343" y="9" on="0"/>
        <pt x="395" y="35" on="0"/>
        <pt x="431" y="75" on="0"/>
        <pt x="449" y="127" on="0"/>
        <pt x="449" y="152" on="1"/>
        <pt x="449" y="174" on="0"/>
        <pt x="438" y="210" on="0"/>
        <pt x="425" y="235" on="0"/>
        <pt x="414" y="249" on="0"/>
        <pt x="414" y="249" on="1"/>
        <pt x="402" y="262" on="0"/>
        <pt x="383" y="277" on="0"/>
        <pt x="358" y="287" on="0"/>
        <pt x="321" y="297" on="0"/>
        <pt x="291" y="304" on="1"/>
        <pt x="246" y="315" on="0"/>
        <pt x="191" y="329" on="0"/>
        <pt x="154" y="344" on="0"/>
        <pt x="126" y="365" on="0"/>
        <pt x="109" y="381" on="1"/>
        <pt x="107" y="383" on="0"/>
        <pt x="90" y="402" on="0"/>
        <pt x="72" y="436" on="0"/>
        <pt x="57" y="483" on="0"/>
        <pt x="57" y="512" on="1"/>
        <pt x="57" y="550" on="0"/>
        <pt x="87" y="620" on="0"/>
        <pt x="140" y="673" on="0"/>
        <pt x="214" y="705" on="0"/>
        <pt x="258" y="705" on="1"/>
        <pt x="293" y="705" on="0"/>
        <pt x="348" y="689" on="0"/>
        <pt x="389" y="666" on="0"/>
        <pt x="415" y="643" on="0"/>
        <pt x="421" y="635" on="1"/>
        <pt x="433" y="655" on="0"/>
        <pt x="444" y="672" on="0"/>
        <pt x="449" y="680" on="0"/>
        <pt x="452" y="685" on="0"/>
        <pt x="457" y="692" on="1"/>
        <pt x="462" y="701" on="0"/>
        <pt x="467" y="705" on="0"/>
        <pt x="472" y="705" on="1"/>
        <pt x="481" y="705" on="0"/>
        <pt x="484" y="692" on="0"/>
        <pt x="484" y="677" on="1"/>
        <pt x="484" y="484" on="1"/>
        <pt x="484" y="468" on="0"/>
        <pt x="481" y="456" on="0"/>
        <pt x="470" y="456" on="1"/>
        <pt x="461" y="456" on="0"/>
        <pt x="456" y="466" on="0"/>
        <pt x="454" y="480" on="1"/>
        <pt x="449" y="518" on="0"/>
        <pt x="423" y="589" on="0"/>
        <pt x="376" y="644" on="0"/>
        <pt x="307" y="677" on="0"/>
        <pt x="259" y="677" on="1"/>
        <pt x="228" y="677" on="0"/>
        <pt x="177" y="655" on="0"/>
        <pt x="141" y="618" on="0"/>
        <pt x="121" y="571" on="0"/>
        <pt x="121" y="546" on="1"/>
        <pt x="121" y="530" on="0"/>
        <pt x="132" y="491" on="0"/>
        <pt x="156" y="455" on="0"/>
        <pt x="197" y="426" on="0"/>
        <pt x="227" y="418" on="1"/>
      </contour>
    </TTGlyph>
    <TTGlyph name="Sigma" xMin="57" yMin="0" xMax="684" yMax="683">
      <contour>
        <pt x="382" y="357" on="1"/>
        <pt x="387" y="350" on="0"/>
        <pt x="389" y="343" on="0"/>
        <pt x="389" y="342" on="1"/>
        <pt x="389" y="339" on="0"/>
        <pt x="387" y="334" on="0"/>
        <pt x="379" y="326" on="1"/>
        <pt x="122" y="43" on="1"/>
        <pt x="407" y="43" on="1"/>
        <pt x="470" y="43" on="0"/>
        <pt x="558" y="58" on="0"/>
        <pt x="616" y="100" on="0"/>
        <pt x="649" y="176" on="0"/>
        <pt x="656" y="237" on="1"/>
        <pt x="684" y="237" on="1"/>
        <pt x="656" y="0" on="1"/>
        <pt x="84" y="0" on="1"/>
        <pt x="72" y="0" on="0"/>
        <pt x="57" y="3" on="0"/>
        <pt x="57" y="13" on="1"/>
        <pt x="57" y="16" on="0"/>
        <pt x="61" y="21" on="0"/>
        <pt x="68" y="29" on="1"/>
        <pt x="313" y="298" on="1"/>
        <pt x="57" y="661" on="1"/>
        <pt x="57" y="678" on="0"/>
        <pt x="67" y="683" on="0"/>
        <pt x="84" y="683" on="1"/>
        <pt x="656" y="683" on="1"/>
        <pt x="684" y="458" on="1"/>
        <pt x="656" y="458" on="1"/>
        <pt x="649" y="521" on="0"/>
        <pt x="614" y="598" on="0"/>
        <pt x="554" y="639" on="0"/>
        <pt x="469" y="652" on="0"/>
        <pt x="410" y="652" on="1"/>
        <pt x="173" y="652" on="1"/>
      </contour>
    </TTGlyph>
    <TTGlyph name="T" xMin="37" yMin="0" xMax="704" yMax="677">
      <contour>
        <pt x="704" y="452" on="1"/>
        <pt x="676" y="452" on="1"/>
        <pt x="671" y="514" on="0"/>
        <pt x="654" y="590" on="0"/>
        <pt x="616" y="632" on="0"/>
        <pt x="548" y="646" on="0"/>
        <pt x="492" y="646" on="1"/>
        <pt x="478" y="646" on="0"/>
        <pt x="445" y="646" on="0"/>
        <pt x="437" y="644" on="1"/>
        <pt x="422" y="641" on="0"/>
        <pt x="416" y="625" on="0"/>
        <pt x="416" y="605" on="1"/>
        <pt x="416" y="80" on="1"/>
        <pt x="416" y="67" on="0"/>
        <pt x="419" y="49" on="0"/>
        <pt x="439" y="37" on="0"/>
        <pt x="482" y="31" on="0"/>
        <pt x="521" y="31" on="1"/>
        <pt x="560" y="31" on="1"/>
        <pt x="560" y="0" on="1"/>
        <pt x="547" y="1" on="0"/>
        <pt x="496" y="2" on="0"/>
        <pt x="440" y="3" on="0"/>
        <pt x="387" y="3" on="0"/>
        <pt x="371" y="3" on="1"/>
        <pt x="355" y="3" on="0"/>
        <pt x="302" y="3" on="0"/>
        <pt x="246" y="2" on="0"/>
        <pt x="196" y="1" on="0"/>
        <pt x="182" y="0" on="1"/>
        <pt x="182" y="31" on="1"/>
        <pt x="221" y="31" on="1"/>
        <pt x="260" y="31" on="0"/>
        <pt x="303" y="37" on="0"/>
        <pt x="323" y="49" on="0"/>
        <pt x="326" y="67" on="0"/>
        <pt x="326" y="80" on="1"/>
        <pt x="326" y="605" on="1"/>
        <pt x="326" y="624" on="0"/>
        <pt x="321" y="641" on="0"/>
        <pt x="307" y="644" on="1"/>
        <pt x="299" y="646" on="0"/>
        <pt x="263" y="646" on="0"/>
        <pt x="249" y="646" on="1"/>
        <pt x="193" y="646" on="0"/>
        <pt x="125" y="632" on="0"/>
        <pt x="87" y="590" on="0"/>
        <pt x="70" y="514" on="0"/>
        <pt x="65" y="452" on="1"/>
        <pt x="37" y="452" on="1"/>
        <pt x="57" y="677" on="1"/>
        <pt x="684" y="677" on="1"/>
      </contour>
    </TTGlyph>
    <TTGlyph name="Theta" xMin="57" yMin="-22" xMax="741" yMax="705">
      <contour>
        <pt x="741" y="339" on="1"/>
        <pt x="741" y="263" on="0"/>
        <pt x="686" y="131" on="0"/>
        <pt x="593" y="34" on="0"/>
        <pt x="469" y="-22" on="0"/>
        <pt x="399" y="-22" on="1"/>
        <pt x="329" y="-22" on="0"/>
        <pt x="205" y="34" on="0"/>
        <pt x="112" y="131" on="0"/>
        <pt x="57" y="263" on="0"/>
        <pt x="57" y="339" on="1"/>
        <pt x="57" y="415" on="0"/>
        <pt x="111" y="549" on="0"/>
        <pt x="204" y="648" on="0"/>
        <pt x="329" y="705" on="0"/>
        <pt x="399" y="705" on="1"/>
        <pt x="469" y="705" on="0"/>
        <pt x="594" y="648" on="0"/>
        <pt x="687" y="549" on="0"/>
        <pt x="741" y="416" on="0"/>
      </contour>
      <contour>
        <pt x="399" y="5" on="1"/>
        <pt x="438" y="5" on="0"/>
        <pt x="525" y="40" on="0"/>
        <pt x="597" y="119" on="0"/>
        <pt x="645" y="246" on="0"/>
        <pt x="645" y="339" on="1"/>
        <pt x="645" y="431" on="0"/>
        <pt x="599" y="561" on="0"/>
        <pt x="527" y="643" on="0"/>
        <pt x="440" y="680" on="0"/>
        <pt x="399" y="680" on="1"/>
        <pt x="359" y="680" on="0"/>
        <pt x="272" y="643" on="0"/>
        <pt x="200" y="561" on="0"/>
        <pt x="153" y="432" on="0"/>
        <pt x="153" y="339" on="1"/>
        <pt x="153" y="246" on="0"/>
        <pt x="201" y="119" on="0"/>
        <pt x="274" y="40" on="0"/>
        <pt x="360" y="5" on="0"/>
      </contour>
      <contour>
        <pt x="559" y="381" on="1"/>
        <pt x="559" y="415" on="1"/>
        <pt x="587" y="415" on="1"/>
        <pt x="587" y="270" on="1"/>
        <pt x="559" y="270" on="1"/>
        <pt x="559" y="304" on="1"/>
        <pt x="239" y="304" on="1"/>
        <pt x="239" y="270" on="1"/>
        <pt x="211" y="270" on="1"/>
        <pt x="211" y="415" on="1"/>
        <pt x="239" y="415" on="1"/>
        <pt x="239" y="381" on="1"/>
      </contour>
    </TTGlyph>
    <TTGlyph name="U" xMin="38" yMin="-22" xMax="732" yMax="683">
      <contour>
        <pt x="230" y="224" on="1"/>
        <pt x="230" y="157" on="0"/>
        <pt x="267" y="72" on="0"/>
        <pt x="320" y="26" on="0"/>
        <pt x="379" y="9" on="0"/>
        <pt x="401" y="9" on="1"/>
        <pt x="439" y="9" on="0"/>
        <pt x="510" y="40" on="0"/>
        <pt x="565" y="97" on="0"/>
        <pt x="599" y="179" on="0"/>
        <pt x="599" y="230" on="1"/>
        <pt x="599" y="577" on="1"/>
        <pt x="599" y="587" on="0"/>
        <pt x="596" y="613" on="0"/>
        <pt x="577" y="636" on="0"/>
        <pt x="535" y="652" on="0"/>
        <pt x="497" y="652" on="1"/>
        <pt x="497" y="683" on="1"/>
        <pt x="518" y="682" on="0"/>
        <pt x="546" y="681" on="0"/>
        <pt x="571" y="680" on="0"/>
        <pt x="597" y="680" on="0"/>
        <pt x="615" y="680" on="1"/>
        <pt x="633" y="680" on="0"/>
        <pt x="659" y="680" on="0"/>
        <pt x="684" y="681" on="0"/>
        <pt x="712" y="682" on="0"/>
        <pt x="732" y="683" on="1"/>
        <pt x="732" y="652" on="1"/>
        <pt x="694" y="652" on="0"/>
        <pt x="652" y="636" on="0"/>
        <pt x="633" y="613" on="0"/>
        <pt x="630" y="586" on="0"/>
        <pt x="630" y="575" on="1"/>
        <pt x="630" y="215" on="1"/>
        <pt x="630" y="178" on="0"/>
        <pt x="599" y="94" on="0"/>
        <pt x="540" y="24" on="0"/>
        <pt x="454" y="-22" on="0"/>
        <pt x="399" y="-22" on="1"/>
        <pt x="347" y="-22" on="0"/>
        <pt x="253" y="16" on="0"/>
        <pt x="182" y="83" on="0"/>
        <pt x="140" y="175" on="0"/>
        <pt x="140" y="230" on="1"/>
        <pt x="140" y="604" on="1"/>
        <pt x="140" y="618" on="0"/>
        <pt x="137" y="636" on="0"/>
        <pt x="122" y="647" on="0"/>
        <pt x="90" y="652" on="0"/>
        <pt x="61" y="652" on="1"/>
        <pt x="38" y="652" on="1"/>
        <pt x="38" y="683" on="1"/>
        <pt x="72" y="681" on="0"/>
        <pt x="150" y="680" on="0"/>
        <pt x="185" y="680" on="1"/>
        <pt x="220" y="680" on="0"/>
        <pt x="298" y="681" on="0"/>
        <pt x="332" y="683" on="1"/>
        <pt x="332" y="652" on="1"/>
        <pt x="309" y="652" on="1"/>
        <pt x="280" y="652" on="0"/>
        <pt x="248" y="647" on="0"/>
        <pt x="233" y="636" on="0"/>
        <pt x="230" y="618" on="0"/>
        <pt x="230" y="604" on="1"/>
      </contour>
    </TTGlyph>
    <TTGlyph name="Upsilon" xMin="57" yMin="0" xMax="741" yMax="705">
      <contour>
        <pt x="444" y="80" on="1"/>
        <pt x="444" y="66" on="0"/>
        <pt x="448" y="47" on="0"/>
        <pt x="467" y="36" on="0"/>
        <pt x="505" y="31" on="0"/>
        <pt x="539" y="31" on="1"/>
        <pt x="571" y="31" on="1"/>
        <pt x="571" y="0" on="1"/>
        <pt x="558" y="1" on="0"/>
        <pt x="512" y="2" on="0"/>
        <pt x="462" y="3" on="0"/>
        <pt x="414" y="3" on="0"/>
        <pt x="399" y="3" on="1"/>
        <pt x="384" y="3" on="0"/>
        <pt x="336" y="3" on="0"/>
        <pt x="286" y="2" on="0"/>
        <pt x="240" y="1" on="0"/>
        <pt x="227" y="0" on="1"/>
        <pt x="227" y="31" on="1"/>
        <pt x="259" y="31" on="1"/>
        <pt x="293" y="31" on="0"/>
        <pt x="331" y="36" on="0"/>
        <pt x="350" y="47" on="0"/>
        <pt x="354" y="66" on="0"/>
        <pt x="354" y="80" on="1"/>
        <pt x="354" y="350" on="1"/>
        <pt x="354" y="369" on="0"/>
        <pt x="350" y="425" on="0"/>
        <pt x="337" y="486" on="0"/>
        <pt x="315" y="548" on="0"/>
        <pt x="278" y="597" on="0"/>
        <pt x="226" y="628" on="0"/>
        <pt x="190" y="628" on="1"/>
        <pt x="172" y="628" on="0"/>
        <pt x="138" y="619" on="0"/>
        <pt x="109" y="600" on="0"/>
        <pt x="90" y="572" on="0"/>
        <pt x="88" y="552" on="1"/>
        <pt x="87" y="544" on="0"/>
        <pt x="83" y="534" on="0"/>
        <pt x="73" y="534" on="1"/>
        <pt x="61" y="534" on="0"/>
        <pt x="57" y="546" on="0"/>
        <pt x="57" y="552" on="1"/>
        <pt x="57" y="575" on="0"/>
        <pt x="73" y="628" on="0"/>
        <pt x="106" y="674" on="0"/>
        <pt x="157" y="705" on="0"/>
        <pt x="191" y="705" on="1"/>
        <pt x="231" y="705" on="0"/>
        <pt x="292" y="675" on="0"/>
        <pt x="337" y="629" on="0"/>
        <pt x="367" y="572" on="0"/>
        <pt x="386" y="518" on="0"/>
        <pt x="396" y="473" on="0"/>
        <pt x="398" y="462" on="1"/>
        <pt x="400" y="462" on="1"/>
        <pt x="402" y="473" on="0"/>
        <pt x="412" y="518" on="0"/>
        <pt x="431" y="572" on="0"/>
        <pt x="461" y="629" on="0"/>
        <pt x="506" y="675" on="0"/>
        <pt x="567" y="705" on="0"/>
        <pt x="607" y="705" on="1"/>
        <pt x="641" y="705" on="0"/>
        <pt x="692" y="675" on="0"/>
        <pt x="725" y="629" on="0"/>
        <pt x="741" y="575" on="0"/>
        <pt x="741" y="552" on="1"/>
        <pt x="741" y="546" on="0"/>
        <pt x="737" y="534" on="0"/>
        <pt x="725" y="534" on="1"/>
        <pt x="715" y="534" on="0"/>
        <pt x="711" y="544" on="0"/>
        <pt x="710" y="550" on="1"/>
        <pt x="708" y="571" on="0"/>
        <pt x="687" y="601" on="0"/>
        <pt x="658" y="620" on="0"/>
        <pt x="624" y="628" on="0"/>
        <pt x="608" y="628" on="1"/>
        <pt x="573" y="628" on="0"/>
        <pt x="521" y="599" on="0"/>
        <pt x="485" y="551" on="0"/>
        <pt x="462" y="491" on="0"/>
        <pt x="449" y="429" on="0"/>
        <pt x="444" y="371" on="0"/>
        <pt x="444" y="350" on="1"/>
      </contour>
    </TTGlyph>
    <TTGlyph name="V" xMin="20" yMin="-22" xMax="750" yMax="683">
      <contour>
        <pt x="415" y="97" on="1"/>
        <pt x="606" y="582" on="1"/>
        <pt x="609" y="590" on="0"/>
        <pt x="611" y="596" on="0"/>
        <pt x="611" y="602" on="1"/>
        <pt x="611" y="622" on="0"/>
        <pt x="577" y="651" on="0"/>
        <pt x="540" y="652" on="1"/>
        <pt x="540" y="683" on="1"/>
        <pt x="558" y="682" on="0"/>
        <pt x="586" y="681" on="0"/>
        <pt x="611" y="680" on="0"/>
        <pt x="636" y="680" on="0"/>
        <pt x="652" y="680" on="1"/>
        <pt x="678" y="680" on="0"/>
        <pt x="724" y="681" on="0"/>
        <pt x="750" y="683" on="1"/>
        <pt x="750" y="652" on="1"/>
        <pt x="715" y="652" on="0"/>
        <pt x="657" y="625" on="0"/>
        <pt x="641" y="585" on="1"/>
        <pt x="409" y="-2" on="1"/>
        <pt x="405" y="-13" on="0"/>
        <pt x="397" y="-22" on="0"/>
        <pt x="385" y="-22" on="1"/>
        <pt x="373" y="-22" on="0"/>
        <pt x="365" y="-11" on="0"/>
        <pt x="360" y="0" on="1"/>
        <pt x="118" y="613" on="1"/>
        <pt x="113" y="626" on="0"/>
        <pt x="101" y="642" on="0"/>
        <pt x="81" y="650" on="0"/>
        <pt x="47" y="652" on="0"/>
        <pt x="20" y="652" on="1"/>
        <pt x="20" y="683" on="1"/>
        <pt x="47" y="682" on="0"/>
        <pt x="81" y="681" on="0"/>
        <pt x="108" y="680" on="0"/>
        <pt x="132" y="680" on="0"/>
        <pt x="148" y="680" on="1"/>
        <pt x="183" y="680" on="0"/>
        <pt x="256" y="681" on="0"/>
        <pt x="290" y="683" on="1"/>
        <pt x="290" y="652" on="1"/>
        <pt x="279" y="652" on="0"/>
        <pt x="251" y="651" on="0"/>
        <pt x="227" y="645" on="0"/>
        <pt x="210" y="633" on="0"/>
        <pt x="210" y="622" on="1"/>
        <pt x="210" y="621" on="0"/>
        <pt x="211" y="612" on="0"/>
        <pt x="215" y="603" on="1"/>
      </contour>
    </TTGlyph>
    <TTGlyph name="W" xMin="19" yMin="-22" xMax="1036" yMax="683">
      <contour>
        <pt x="906" y="582" on="1"/>
        <pt x="908" y="587" on="0"/>
        <pt x="910" y="594" on="0"/>
        <pt x="910" y="598" on="1"/>
        <pt x="910" y="607" on="0"/>
        <pt x="901" y="625" on="0"/>
        <pt x="880" y="641" on="0"/>
        <pt x="848" y="652" on="0"/>
        <pt x="824" y="652" on="1"/>
        <pt x="824" y="683" on="1"/>
        <pt x="846" y="682" on="0"/>
        <pt x="879" y="681" on="0"/>
        <pt x="906" y="680" on="0"/>
        <pt x="930" y="680" on="0"/>
        <pt x="942" y="680" on="1"/>
        <pt x="965" y="680" on="0"/>
        <pt x="1013" y="681" on="0"/>
        <pt x="1036" y="683" on="1"/>
        <pt x="1036" y="652" on="1"/>
        <pt x="991" y="651" on="0"/>
        <pt x="946" y="615" on="0"/>
        <pt x="935" y="581" on="1"/>
        <pt x="741" y="-2" on="1"/>
        <pt x="737" y="-13" on="0"/>
        <pt x="728" y="-22" on="0"/>
        <pt x="719" y="-22" on="1"/>
        <pt x="708" y="-22" on="0"/>
        <pt x="702" y="-11" on="0"/>
        <pt x="697" y="2" on="1"/>
        <pt x="527" y="508" on="1"/>
        <pt x="358" y="-1" on="1"/>
        <pt x="353" y="-15" on="0"/>
        <pt x="342" y="-22" on="0"/>
        <pt x="336" y="-22" on="1"/>
        <pt x="327" y="-22" on="0"/>
        <pt x="318" y="-13" on="0"/>
        <pt x="314" y="-2" on="1"/>
        <pt x="109" y="614" on="1"/>
        <pt x="104" y="628" on="0"/>
        <pt x="91" y="644" on="0"/>
        <pt x="70" y="651" on="0"/>
        <pt x="40" y="652" on="0"/>
        <pt x="19" y="652" on="1"/>
        <pt x="19" y="683" on="1"/>
        <pt x="42" y="682" on="0"/>
        <pt x="71" y="681" on="0"/>
        <pt x="96" y="680" on="0"/>
        <pt x="122" y="680" on="0"/>
        <pt x="143" y="680" on="1"/>
        <pt x="177" y="680" on="0"/>
        <pt x="249" y="681" on="0"/>
        <pt x="283" y="683" on="1"/>
        <pt x="283" y="652" on="1"/>
        <pt x="273" y="652" on="0"/>
        <pt x="244" y="651" on="0"/>
        <pt x="218" y="645" on="0"/>
        <pt x="199" y="633" on="0"/>
        <pt x="199" y="621" on="1"/>
        <pt x="199" y="619" on="0"/>
        <pt x="200" y="613" on="0"/>
        <pt x="204" y="603" on="1"/>
        <pt x="367" y="115" on="1"/>
        <pt x="508" y="539" on="1"/>
        <pt x="509" y="541" on="0"/>
        <pt x="512" y="551" on="0"/>
        <pt x="512" y="552" on="1"/>
        <pt x="512" y="552" on="0"/>
        <pt x="505" y="574" on="0"/>
        <pt x="496" y="602" on="0"/>
        <pt x="486" y="628" on="0"/>
        <pt x="483" y="633" on="1"/>
        <pt x="475" y="646" on="0"/>
        <pt x="440" y="652" on="0"/>
        <pt x="402" y="652" on="1"/>
        <pt x="402" y="683" on="1"/>
        <pt x="425" y="682" on="0"/>
        <pt x="454" y="681" on="0"/>
        <pt x="479" y="680" on="0"/>
        <pt x="505" y="680" on="0"/>
        <pt x="526" y="680" on="1"/>
        <pt x="560" y="680" on="0"/>
        <pt x="632" y="681" on="0"/>
        <pt x="666" y="683" on="1"/>
        <pt x="666" y="652" on="1"/>
        <pt x="656" y="652" on="0"/>
        <pt x="627" y="651" on="0"/>
        <pt x="601" y="645" on="0"/>
        <pt x="582" y="633" on="0"/>
        <pt x="582" y="621" on="1"/>
        <pt x="582" y="618" on="0"/>
        <pt x="585" y="609" on="0"/>
        <pt x="586" y="606" on="1"/>
        <pt x="750" y="115" on="1"/>
      </contour>
    </TTGlyph>
    <TTGlyph name="X" xMin="26" yMin="0" xMax="744" yMax="683">
      <contour>
        <pt x="413" y="385" on="1"/>
        <pt x="633" y="66" on="1"/>
        <pt x="649" y="43" on="0"/>
        <pt x="691" y="31" on="0"/>
        <pt x="727" y="31" on="1"/>
        <pt x="744" y="31" on="1"/>
        <pt x="744" y="0" on="1"/>
        <pt x="713" y="1" on="0"/>
        <pt x="676" y="2" on="0"/>
        <pt x="652" y="3" on="0"/>
        <pt x="631" y="3" on="0"/>
        <pt x="614" y="3" on="1"/>
        <pt x="579" y="3" on="0"/>
        <pt x="504" y="2" on="0"/>
        <pt x="470" y="0" on="1"/>
        <pt x="470" y="31" on="1"/>
        <pt x="500" y="32" on="0"/>
        <pt x="532" y="52" on="0"/>
        <pt x="532" y="61" on="1"/>
        <pt x="532" y="63" on="0"/>
        <pt x="530" y="68" on="0"/>
        <pt x="524" y="76" on="1"/>
        <pt x="362" y="312" on="1"/>
        <pt x="213" y="101" on="1"/>
        <pt x="209" y="96" on="0"/>
        <pt x="203" y="84" on="0"/>
        <pt x="203" y="76" on="1"/>
        <pt x="203" y="70" on="0"/>
        <pt x="209" y="55" on="0"/>
        <pt x="223" y="42" on="0"/>
        <pt x="246" y="32" on="0"/>
        <pt x="263" y="31" on="1"/>
        <pt x="263" y="0" on="1"/>
        <pt x="239" y="1" on="0"/>
        <pt x="204" y="2" on="0"/>
        <pt x="177" y="3" on="0"/>
        <pt x="152" y="3" on="0"/>
        <pt x="138" y="3" on="1"/>
        <pt x="121" y="3" on="0"/>
        <pt x="64" y="2" on="0"/>
        <pt x="26" y="0" on="1"/>
        <pt x="26" y="31" on="1"/>
        <pt x="35" y="31" on="0"/>
        <pt x="70" y="33" on="0"/>
        <pt x="112" y="46" on="0"/>
        <pt x="156" y="73" on="0"/>
        <pt x="173" y="97" on="1"/>
        <pt x="343" y="339" on="1"/>
        <pt x="154" y="611" on="1"/>
        <pt x="147" y="622" on="0"/>
        <pt x="134" y="637" on="0"/>
        <pt x="114" y="647" on="0"/>
        <pt x="83" y="652" on="0"/>
        <pt x="57" y="652" on="1"/>
        <pt x="40" y="652" on="1"/>
        <pt x="40" y="683" on="1"/>
        <pt x="72" y="682" on="0"/>
        <pt x="108" y="681" on="0"/>
        <pt x="132" y="680" on="0"/>
        <pt x="154" y="680" on="0"/>
        <pt x="170" y="680" on="1"/>
        <pt x="186" y="680" on="0"/>
        <pt x="224" y="680" on="0"/>
        <pt x="263" y="681" on="0"/>
        <pt x="300" y="682" on="0"/>
        <pt x="315" y="683" on="1"/>
        <pt x="315" y="652" on="1"/>
        <pt x="281" y="651" on="0"/>
        <pt x="252" y="630" on="0"/>
        <pt x="252" y="622" on="1"/>
        <pt x="252" y="617" on="0"/>
        <pt x="258" y="608" on="0"/>
        <pt x="260" y="605" on="1"/>
        <pt x="394" y="412" on="1"/>
        <pt x="513" y="580" on="1"/>
        <pt x="524" y="595" on="0"/>
        <pt x="524" y="607" on="1"/>
        <pt x="524" y="621" on="0"/>
        <pt x="496" y="651" on="0"/>
        <pt x="464" y="652" on="1"/>
        <pt x="464" y="683" on="1"/>
        <pt x="490" y="682" on="0"/>
        <pt x="524" y="681" on="0"/>
        <pt x="551" y="680" on="0"/>
        <pt x="575" y="680" on="0"/>
        <pt x="590" y="680" on="1"/>
        <pt x="607" y="680" on="0"/>
        <pt x="663" y="681" on="0"/>
        <pt x="701" y="683" on="1"/>
        <pt x="701" y="652" on="1"/>
        <pt x="693" y="652" on="0"/>
        <pt x="658" y="650" on="0"/>
        <pt x="616" y="637" on="0"/>
        <pt x="572" y="611" on="0"/>
        <pt x="555" y="587" on="1"/>
      </contour>
    </TTGlyph>
    <TTGlyph name="Xi" xMin="43" yMin="0" xMax="641" yMax="677">
      <contour>
        <pt x="635" y="520" on="1"/>
        <pt x="607" y="520" on="1"/>
        <pt x="607" y="530" on="0"/>
        <pt x="605" y="553" on="0"/>
        <pt x="602" y="576" on="0"/>
        <pt x="597" y="594" on="0"/>
        <pt x="593" y="598" on="1"/>
        <pt x="591" y="601" on="0"/>
        <pt x="567" y="604" on="0"/>
        <pt x="541" y="606" on="0"/>
        <pt x="519" y="606" on="0"/>
        <pt x="518" y="606" on="1"/>
        <pt x="166" y="606" on="1"/>
        <pt x="162" y="606" on="0"/>
        <pt x="139" y="606" on="0"/>
        <pt x="113" y="604" on="0"/>
        <pt x="92" y="600" on="0"/>
        <pt x="90" y="597" on="1"/>
        <pt x="83" y="587" on="0"/>
        <pt x="79" y="540" on="0"/>
        <pt x="77" y="520" on="1"/>
        <pt x="49" y="520" on="1"/>
        <pt x="58" y="677" on="1"/>
        <pt x="626" y="677" on="1"/>
      </contour>
      <contour>
        <pt x="43" y="168" on="1"/>
        <pt x="71" y="168" on="1"/>
        <pt x="72" y="146" on="0"/>
        <pt x="77" y="92" on="0"/>
        <pt x="84" y="80" on="1"/>
        <pt x="86" y="77" on="0"/>
        <pt x="110" y="73" on="0"/>
        <pt x="137" y="71" on="0"/>
        <pt x="162" y="71" on="0"/>
        <pt x="165" y="71" on="1"/>
        <pt x="519" y="71" on="1"/>
        <pt x="528" y="71" on="0"/>
        <pt x="554" y="71" on="0"/>
        <pt x="579" y="73" on="0"/>
        <pt x="599" y="78" on="0"/>
        <pt x="601" y="82" on="1"/>
        <pt x="608" y="95" on="0"/>
        <pt x="612" y="149" on="0"/>
        <pt x="613" y="168" on="1"/>
        <pt x="641" y="168" on="1"/>
        <pt x="632" y="0" on="1"/>
        <pt x="52" y="0" on="1"/>
      </contour>
      <contour>
        <pt x="513" y="388" on="1"/>
        <pt x="513" y="439" on="1"/>
        <pt x="541" y="439" on="1"/>
        <pt x="541" y="266" on="1"/>
        <pt x="513" y="266" on="1"/>
        <pt x="513" y="317" on="1"/>
        <pt x="171" y="317" on="1"/>
        <pt x="171" y="266" on="1"/>
        <pt x="143" y="266" on="1"/>
        <pt x="143" y="439" on="1"/>
        <pt x="171" y="439" on="1"/>
        <pt x="171" y="388" on="1"/>
      </contour>
    </TTGlyph>
    <TTGlyph name="Y" xMin="13" yMin="0" xMax="757" yMax="683">
      <contour>
        <pt x="590" y="584" on="1"/>
        <pt x="596" y="593" on="0"/>
        <pt x="601" y="604" on="0"/>
        <pt x="601" y="613" on="1"/>
        <pt x="601" y="630" on="0"/>
        <pt x="573" y="652" on="0"/>
        <pt x="546" y="652" on="1"/>
        <pt x="546" y="683" on="1"/>
        <pt x="567" y="682" on="0"/>
        <pt x="598" y="681" on="0"/>
        <pt x="623" y="680" on="0"/>
        <pt x="646" y="680" on="0"/>
        <pt x="659" y="680" on="1"/>
        <pt x="685" y="680" on="0"/>
        <pt x="731" y="681" on="0"/>
        <pt x="757" y="683" on="1"/>
        <pt x="757" y="652" on="1"/>
        <pt x="727" y="652" on="0"/>
        <pt x="685" y="639" on="0"/>
        <pt x="655" y="619" on="0"/>
        <pt x="635" y="595" on="0"/>
        <pt x="627" y="583" on="1"/>
        <pt x="429" y="273" on="1"/>
        <pt x="429" y="78" on="1"/>
        <pt x="429" y="65" on="0"/>
        <pt x="432" y="46" on="0"/>
        <pt x="448" y="36" on="0"/>
        <pt x="480" y="31" on="0"/>
        <pt x="508" y="31" on="1"/>
        <pt x="531" y="31" on="1"/>
        <pt x="531" y="0" on="1"/>
        <pt x="495" y="2" on="0"/>
        <pt x="421" y="3" on="0"/>
        <pt x="385" y="3" on="1"/>
        <pt x="349" y="3" on="0"/>
        <pt x="275" y="2" on="0"/>
        <pt x="240" y="0" on="1"/>
        <pt x="240" y="31" on="1"/>
        <pt x="263" y="31" on="1"/>
        <pt x="292" y="31" on="0"/>
        <pt x="324" y="36" on="0"/>
        <pt x="339" y="47" on="0"/>
        <pt x="342" y="65" on="0"/>
        <pt x="342" y="79" on="1"/>
        <pt x="342" y="273" on="1"/>
        <pt x="122" y="616" on="1"/>
        <pt x="115" y="627" on="0"/>
        <pt x="102" y="640" on="0"/>
        <pt x="82" y="649" on="0"/>
        <pt x="53" y="652" on="0"/>
        <pt x="30" y="652" on="1"/>
        <pt x="13" y="652" on="1"/>
        <pt x="13" y="683" on="1"/>
        <pt x="44" y="682" on="0"/>
        <pt x="80" y="681" on="0"/>
        <pt x="106" y="680" on="0"/>
        <pt x="128" y="680" on="0"/>
        <pt x="145" y="680" on="1"/>
        <pt x="161" y="680" on="0"/>
        <pt x="199" y="680" on="0"/>
        <pt x="238" y="681" on="0"/>
        <pt x="275" y="682" on="0"/>
        <pt x="290" y="683" on="1"/>
        <pt x="290" y="652" on="1"/>
        <pt x="278" y="652" on="0"/>
        <pt x="254" y="651" on="0"/>
        <pt x="235" y="646" on="0"/>
        <pt x="222" y="636" on="0"/>
        <pt x="222" y="627" on="1"/>
        <pt x="222" y="622" on="0"/>
        <pt x="231" y="607" on="1"/>
        <pt x="419" y="315" on="1"/>
      </contour>
    </TTGlyph>
    <TTGlyph name="Z" xMin="57" yMin="0" xMax="576" yMax="683">
      <contour>
        <pt x="162" y="34" on="1"/>
        <pt x="333" y="34" on="1"/>
        <pt x="404" y="34" on="0"/>
        <pt x="486" y="68" on="0"/>
        <pt x="530" y="130" on="0"/>
        <pt x="545" y="215" on="0"/>
        <pt x="548" y="267" on="1"/>
        <pt x="576" y="267" on="1"/>
        <pt x="559" y="0" on="1"/>
        <pt x="84" y="0" on="1"/>
        <pt x="69" y="0" on="0"/>
        <pt x="57" y="4" on="0"/>
        <pt x="57" y="18" on="1"/>
        <pt x="57" y="23" on="0"/>
        <pt x="59" y="30" on="0"/>
        <pt x="65" y="39" on="1"/>
        <pt x="466" y="652" on="1"/>
        <pt x="304" y="652" on="1"/>
        <pt x="246" y="652" on="0"/>
        <pt x="170" y="627" on="0"/>
        <pt x="123" y="578" on="0"/>
        <pt x="102" y="506" on="0"/>
        <pt x="99" y="458" on="1"/>
        <pt x="71" y="458" on="1"/>
        <pt x="82" y="683" on="1"/>
        <pt x="543" y="683" on="1"/>
        <pt x="557" y="683" on="0"/>
        <pt x="570" y="679" on="0"/>
        <pt x="570" y="666" on="1"/>
        <pt x="570" y="661" on="0"/>
        <pt x="568" y="655" on="0"/>
        <pt x="562" y="646" on="1"/>
      </contour>
    </TTGlyph>
    <TTGlyph name="a" xMin="43" yMin="-11" xMax="507" yMax="448">
      <contour>
        <pt x="342" y="72" on="1"/>
        <pt x="337" y="62" on="0"/>
        <pt x="317" y="33" on="0"/>
        <pt x="284" y="7" on="0"/>
        <pt x="238" y="-11" on="0"/>
        <pt x="207" y="-11" on="1"/>
        <pt x="182" y="-11" on="0"/>
        <pt x="124" y="0" on="0"/>
        <pt x="75" y="26" on="0"/>
        <pt x="43" y="67" on="0"/>
        <pt x="43" y="98" on="1"/>
        <pt x="43" y="128" on="0"/>
        <pt x="83" y="199" on="0"/>
        <pt x="137" y="225" on="1"/>
        <pt x="188" y="249" on="0"/>
        <pt x="292" y="262" on="0"/>
        <pt x="333" y="264" on="1"/>
        <pt x="333" y="297" on="1"/>
        <pt x="333" y="330" on="0"/>
        <pt x="314" y="378" on="0"/>
        <pt x="283" y="408" on="0"/>
        <pt x="244" y="423" on="0"/>
        <pt x="225" y="423" on="1"/>
        <pt x="214" y="423" on="0"/>
        <pt x="187" y="419" on="0"/>
        <pt x="158" y="411" on="0"/>
        <pt x="131" y="398" on="0"/>
        <pt x="121" y="388" on="1"/>
        <pt x="121" y="388" on="0"/>
        <pt x="136" y="385" on="0"/>
        <pt x="152" y="375" on="0"/>
        <pt x="166" y="356" on="0"/>
        <pt x="166" y="340" on="1"/>
        <pt x="166" y="320" on="0"/>
        <pt x="140" y="294" on="0"/>
        <pt x="120" y="294" on="1"/>
        <pt x="100" y="294" on="0"/>
        <pt x="73" y="319" on="0"/>
        <pt x="73" y="342" on="1"/>
        <pt x="73" y="366" on="0"/>
        <pt x="98" y="405" on="0"/>
        <pt x="140" y="433" on="0"/>
        <pt x="196" y="448" on="0"/>
        <pt x="227" y="448" on="1"/>
        <pt x="265" y="448" on="0"/>
        <pt x="334" y="425" on="0"/>
        <pt x="362" y="400" on="1"/>
        <pt x="379" y="385" on="0"/>
        <pt x="397" y="356" on="0"/>
        <pt x="406" y="324" on="0"/>
        <pt x="407" y="289" on="0"/>
        <pt x="407" y="268" on="1"/>
        <pt x="407" y="93" on="1"/>
        <pt x="407" y="87" on="0"/>
        <pt x="408" y="66" on="0"/>
        <pt x="415" y="45" on="0"/>
        <pt x="430" y="29" on="0"/>
        <pt x="443" y="29" on="1"/>
        <pt x="457" y="29" on="0"/>
        <pt x="471" y="45" on="0"/>
        <pt x="478" y="66" on="0"/>
        <pt x="479" y="86" on="0"/>
        <pt x="479" y="90" on="1"/>
        <pt x="479" y="145" on="1"/>
        <pt x="507" y="145" on="1"/>
        <pt x="507" y="89" on="1"/>
        <pt x="507" y="59" on="0"/>
        <pt x="487" y="22" on="0"/>
        <pt x="458" y="1" on="0"/>
        <pt x="428" y="-6" on="0"/>
        <pt x="419" y="-6" on="1"/>
        <pt x="387" y="-6" on="0"/>
        <pt x="346" y="40" on="0"/>
      </contour>
      <contour>
        <pt x="333" y="240" on="1"/>
        <pt x="276" y="238" on="0"/>
        <pt x="196" y="211" on="0"/>
        <pt x="146" y="172" on="0"/>
        <pt x="123" y="123" on="0"/>
        <pt x="123" y="98" on="1"/>
        <pt x="123" y="79" on="0"/>
        <pt x="138" y="48" on="0"/>
        <pt x="164" y="26" on="0"/>
        <pt x="196" y="14" on="0"/>
        <pt x="214" y="14" on="1"/>
        <pt x="231" y="14" on="0"/>
        <pt x="272" y="26" on="0"/>
        <pt x="308" y="56" on="0"/>
        <pt x="333" y="105" on="0"/>
        <pt x="333" y="141" on="1"/>
      </contour>
    </TTGlyph>
    <TTGlyph name="acute" xMin="212" yMin="508" xMax="403" yMax="698">
      <contour>
        <pt x="231" y="508" on="1"/>
        <pt x="212" y="529" on="1"/>
        <pt x="334" y="680" on="1"/>
        <pt x="341" y="688" on="0"/>
        <pt x="352" y="698" on="0"/>
        <pt x="365" y="698" on="1"/>
        <pt x="379" y="698" on="0"/>
        <pt x="403" y="676" on="0"/>
        <pt x="403" y="659" on="1"/>
        <pt x="403" y="648" on="0"/>
        <pt x="392" y="634" on="0"/>
        <pt x="382" y="626" on="1"/>
      </contour>
    </TTGlyph>
    <TTGlyph name="ae" xMin="46" yMin="-11" xMax="712" yMax="448">
      <contour>
        <pt x="408" y="229" on="1"/>
        <pt x="408" y="176" on="0"/>
        <pt x="429" y="104" on="0"/>
        <pt x="460" y="57" on="0"/>
        <pt x="497" y="31" on="0"/>
        <pt x="530" y="19" on="0"/>
        <pt x="555" y="17" on="0"/>
        <pt x="558" y="17" on="1"/>
        <pt x="564" y="17" on="0"/>
        <pt x="596" y="21" on="0"/>
        <pt x="634" y="41" on="0"/>
        <pt x="672" y="83" on="0"/>
        <pt x="684" y="121" on="1"/>
        <pt x="685" y="124" on="0"/>
        <pt x="690" y="132" on="0"/>
        <pt x="698" y="132" on="1"/>
        <pt x="712" y="132" on="0"/>
        <pt x="712" y="119" on="1"/>
        <pt x="712" y="112" on="0"/>
        <pt x="695" y="69" on="0"/>
        <pt x="657" y="24" on="0"/>
        <pt x="596" y="-11" on="0"/>
        <pt x="553" y="-11" on="1"/>
        <pt x="507" y="-11" on="0"/>
        <pt x="415" y="32" on="0"/>
        <pt x="383" y="75" on="1"/>
        <pt x="381" y="71" on="0"/>
        <pt x="360" y="43" on="0"/>
        <pt x="319" y="13" on="0"/>
        <pt x="255" y="-11" on="0"/>
        <pt x="209" y="-11" on="1"/>
        <pt x="182" y="-11" on="0"/>
        <pt x="124" y="0" on="0"/>
        <pt x="77" y="25" on="0"/>
        <pt x="46" y="65" on="0"/>
        <pt x="46" y="94" on="1"/>
        <pt x="46" y="131" on="0"/>
        <pt x="90" y="189" on="0"/>
        <pt x="168" y="230" on="0"/>
        <pt x="273" y="251" on="0"/>
        <pt x="334" y="251" on="1"/>
        <pt x="334" y="297" on="1"/>
        <pt x="334" y="330" on="0"/>
        <pt x="315" y="378" on="0"/>
        <pt x="284" y="408" on="0"/>
        <pt x="245" y="423" on="0"/>
        <pt x="226" y="423" on="1"/>
        <pt x="220" y="423" on="0"/>
        <pt x="196" y="421" on="0"/>
        <pt x="166" y="414" on="0"/>
        <pt x="135" y="400" on="0"/>
        <pt x="121" y="388" on="1"/>
        <pt x="121" y="388" on="0"/>
        <pt x="136" y="385" on="0"/>
        <pt x="152" y="375" on="0"/>
        <pt x="166" y="356" on="0"/>
        <pt x="166" y="340" on="1"/>
        <pt x="166" y="320" on="0"/>
        <pt x="140" y="294" on="0"/>
        <pt x="120" y="294" on="1"/>
        <pt x="100" y="294" on="0"/>
        <pt x="73" y="319" on="0"/>
        <pt x="73" y="342" on="1"/>
        <pt x="73" y="366" on="0"/>
        <pt x="97" y="405" on="0"/>
        <pt x="139" y="433" on="0"/>
        <pt x="196" y="448" on="0"/>
        <pt x="228" y="448" on="1"/>
        <pt x="260" y="448" on="0"/>
        <pt x="311" y="433" on="0"/>
        <pt x="351" y="411" on="0"/>
        <pt x="379" y="385" on="0"/>
        <pt x="388" y="373" on="1"/>
        <pt x="395" y="381" on="0"/>
        <pt x="420" y="406" on="0"/>
        <pt x="458" y="430" on="0"/>
        <pt x="508" y="448" on="0"/>
        <pt x="541" y="448" on="1"/>
        <pt x="583" y="448" on="0"/>
        <pt x="647" y="417" on="0"/>
        <pt x="690" y="363" on="0"/>
        <pt x="712" y="292" on="0"/>
        <pt x="712" y="251" on="1"/>
        <pt x="712" y="234" on="0"/>
        <pt x="702" y="229" on="0"/>
        <pt x="685" y="229" on="1"/>
      </contour>
      <contour>
        <pt x="645" y="253" on="1"/>
        <pt x="644" y="267" on="0"/>
        <pt x="639" y="323" on="0"/>
        <pt x="618" y="380" on="0"/>
        <pt x="577" y="423" on="0"/>
        <pt x="540" y="423" on="1"/>
        <pt x="523" y="423" on="0"/>
        <pt x="480" y="407" on="0"/>
        <pt x="441" y="368" on="0"/>
        <pt x="412" y="303" on="0"/>
        <pt x="409" y="253" on="1"/>
      </contour>
      <contour>
        <pt x="334" y="227" on="1"/>
        <pt x="273" y="225" on="0"/>
        <pt x="193" y="198" on="0"/>
        <pt x="145" y="159" on="0"/>
        <pt x="126" y="114" on="0"/>
        <pt x="126" y="94" on="1"/>
        <pt x="126" y="61" on="0"/>
        <pt x="177" y="14" on="0"/>
        <pt x="216" y="14" on="1"/>
        <pt x="240" y="14" on="0"/>
        <pt x="286" y="31" on="0"/>
        <pt x="323" y="62" on="0"/>
        <pt x="346" y="105" on="0"/>
        <pt x="346" y="132" on="1"/>
        <pt x="346" y="140" on="0"/>
        <pt x="345" y="146" on="0"/>
        <pt x="343" y="152" on="1"/>
        <pt x="336" y="180" on="0"/>
        <pt x="334" y="210" on="0"/>
      </contour>
    </TTGlyph>
    <TTGlyph name="ampersand" xMin="43" yMin="-22" xMax="747" yMax="716">
      <contour>
        <pt x="583" y="327" on="1"/>
        <pt x="591" y="339" on="0"/>
        <pt x="595" y="349" on="0"/>
        <pt x="595" y="357" on="1"/>
        <pt x="595" y="374" on="0"/>
        <pt x="562" y="400" on="0"/>
        <pt x="526" y="400" on="1"/>
        <pt x="526" y="431" on="1"/>
        <pt x="549" y="430" on="0"/>
        <pt x="583" y="429" on="0"/>
        <pt x="611" y="428" on="0"/>
        <pt x="634" y="428" on="0"/>
        <pt x="647" y="428" on="1"/>
        <pt x="647" y="428" on="0"/>
        <pt x="669" y="428" on="0"/>
        <pt x="700" y="429" on="0"/>
        <pt x="734" y="430" on="0"/>
        <pt x="747" y="431" on="1"/>
        <pt x="747" y="400" on="1"/>
        <pt x="705" y="399" on="0"/>
        <pt x="643" y="369" on="0"/>
        <pt x="620" y="334" on="1"/>
        <pt x="579" y="266" on="1"/>
        <pt x="553" y="223" on="0"/>
        <pt x="493" y="135" on="0"/>
        <pt x="459" y="97" on="1"/>
        <pt x="476" y="79" on="0"/>
        <pt x="509" y="47" on="0"/>
        <pt x="543" y="23" on="0"/>
        <pt x="579" y="9" on="0"/>
        <pt x="599" y="9" on="1"/>
        <pt x="618" y="9" on="0"/>
        <pt x="658" y="23" on="0"/>
        <pt x="691" y="50" on="0"/>
        <pt x="712" y="93" on="0"/>
        <pt x="713" y="121" on="1"/>
        <pt x="741" y="121" on="1"/>
        <pt x="740" y="89" on="0"/>
        <pt x="716" y="36" on="0"/>
        <pt x="677" y="-2" on="0"/>
        <pt x="625" y="-22" on="0"/>
        <pt x="596" y="-22" on="1"/>
        <pt x="582" y="-22" on="0"/>
        <pt x="543" y="-17" on="0"/>
        <pt x="497" y="-1" on="0"/>
        <pt x="444" y="28" on="0"/>
        <pt x="415" y="53" on="1"/>
        <pt x="373" y="18" on="0"/>
        <pt x="280" y="-22" on="0"/>
        <pt x="229" y="-22" on="1"/>
        <pt x="191" y="-22" on="0"/>
        <pt x="124" y="1" on="0"/>
        <pt x="73" y="41" on="0"/>
        <pt x="43" y="96" on="0"/>
        <pt x="43" y="129" on="1"/>
        <pt x="43" y="149" on="0"/>
        <pt x="52" y="180" on="0"/>
        <pt x="69" y="207" on="0"/>
        <pt x="93" y="235" on="0"/>
        <pt x="109" y="251" on="1"/>
        <pt x="207" y="351" on="1"/>
        <pt x="179" y="423" on="0"/>
        <pt x="166" y="529" on="0"/>
        <pt x="166" y="552" on="1"/>
        <pt x="166" y="593" on="0"/>
        <pt x="192" y="654" on="0"/>
        <pt x="233" y="695" on="0"/>
        <pt x="284" y="716" on="0"/>
        <pt x="308" y="716" on="1"/>
        <pt x="335" y="716" on="0"/>
        <pt x="370" y="687" on="0"/>
        <pt x="390" y="647" on="0"/>
        <pt x="398" y="602" on="0"/>
        <pt x="398" y="586" on="1"/>
        <pt x="398" y="563" on="0"/>
        <pt x="381" y="519" on="0"/>
        <pt x="349" y="471" on="0"/>
        <pt x="303" y="416" on="0"/>
        <pt x="273" y="383" on="1"/>
        <pt x="290" y="340" on="0"/>
        <pt x="345" y="249" on="0"/>
        <pt x="397" y="174" on="0"/>
        <pt x="437" y="123" on="0"/>
        <pt x="440" y="119" on="1"/>
        <pt x="466" y="146" on="0"/>
        <pt x="510" y="208" on="0"/>
        <pt x="530" y="240" on="1"/>
      </contour>
      <contour>
        <pt x="263" y="410" on="1"/>
        <pt x="268" y="415" on="0"/>
        <pt x="303" y="452" on="0"/>
        <pt x="340" y="502" on="0"/>
        <pt x="370" y="560" on="0"/>
        <pt x="370" y="586" on="1"/>
        <pt x="370" y="589" on="0"/>
        <pt x="368" y="623" on="0"/>
        <pt x="356" y="661" on="0"/>
        <pt x="331" y="691" on="0"/>
        <pt x="309" y="691" on="1"/>
        <pt x="291" y="691" on="0"/>
        <pt x="263" y="672" on="0"/>
        <pt x="243" y="641" on="0"/>
        <pt x="233" y="601" on="0"/>
        <pt x="233" y="580" on="1"/>
        <pt x="233" y="575" on="0"/>
        <pt x="234" y="544" on="0"/>
        <pt x="240" y="497" on="0"/>
        <pt x="252" y="440" on="0"/>
      </contour>
      <contour>
        <pt x="218" y="326" on="1"/>
        <pt x="196" y="305" on="0"/>
        <pt x="163" y="270" on="0"/>
        <pt x="140" y="232" on="0"/>
        <pt x="129" y="188" on="0"/>
        <pt x="129" y="158" on="1"/>
        <pt x="129" y="137" on="0"/>
        <pt x="139" y="85" on="0"/>
        <pt x="164" y="40" on="0"/>
        <pt x="205" y="9" on="0"/>
        <pt x="235" y="9" on="1"/>
        <pt x="261" y="9" on="0"/>
        <pt x="307" y="21" on="0"/>
        <pt x="348" y="39" on="0"/>
        <pt x="382" y="62" on="0"/>
        <pt x="394" y="73" on="1"/>
        <pt x="369" y="99" on="0"/>
        <pt x="317" y="159" on="0"/>
        <pt x="271" y="224" on="0"/>
        <pt x="232" y="293" on="0"/>
      </contour>
    </TTGlyph>
    <TTGlyph name="asterisk" xMin="67" yMin="319" xMax="446" yMax="750">
      <contour>
        <pt x="270" y="511" on="1"/>
        <pt x="284" y="359" on="1"/>
        <pt x="286" y="346" on="1"/>
        <pt x="286" y="338" on="0"/>
        <pt x="272" y="319" on="0"/>
        <pt x="256" y="319" on="1"/>
        <pt x="243" y="319" on="0"/>
        <pt x="227" y="336" on="0"/>
        <pt x="227" y="346" on="1"/>
        <pt x="229" y="359" on="1"/>
        <pt x="243" y="512" on="1"/>
        <pt x="118" y="421" on="1"/>
        <pt x="109" y="414" on="0"/>
        <pt x="100" y="412" on="0"/>
        <pt x="96" y="412" on="1"/>
        <pt x="82" y="412" on="0"/>
        <pt x="67" y="431" on="0"/>
        <pt x="67" y="442" on="1"/>
        <pt x="67" y="456" on="0"/>
        <pt x="81" y="466" on="0"/>
        <pt x="89" y="470" on="1"/>
        <pt x="230" y="535" on="1"/>
        <pt x="89" y="599" on="1"/>
        <pt x="81" y="603" on="0"/>
        <pt x="67" y="613" on="0"/>
        <pt x="67" y="627" on="1"/>
        <pt x="67" y="638" on="0"/>
        <pt x="82" y="657" on="0"/>
        <pt x="96" y="657" on="1"/>
        <pt x="101" y="657" on="0"/>
        <pt x="108" y="655" on="0"/>
        <pt x="118" y="647" on="1"/>
        <pt x="243" y="558" on="1"/>
        <pt x="229" y="710" on="1"/>
        <pt x="227" y="723" on="1"/>
        <pt x="227" y="731" on="0"/>
        <pt x="241" y="750" on="0"/>
        <pt x="257" y="750" on="1"/>
        <pt x="270" y="750" on="0"/>
        <pt x="286" y="733" on="0"/>
        <pt x="286" y="723" on="1"/>
        <pt x="284" y="710" on="1"/>
        <pt x="270" y="557" on="1"/>
        <pt x="395" y="648" on="1"/>
        <pt x="404" y="655" on="0"/>
        <pt x="413" y="657" on="0"/>
        <pt x="417" y="657" on="1"/>
        <pt x="431" y="657" on="0"/>
        <pt x="446" y="638" on="0"/>
        <pt x="446" y="627" on="1"/>
        <pt x="446" y="613" on="0"/>
        <pt x="432" y="603" on="0"/>
        <pt x="424" y="599" on="1"/>
        <pt x="283" y="534" on="1"/>
        <pt x="424" y="470" on="1"/>
        <pt x="432" y="466" on="0"/>
        <pt x="446" y="456" on="0"/>
        <pt x="446" y="442" on="1"/>
        <pt x="446" y="431" on="0"/>
        <pt x="431" y="412" on="0"/>
        <pt x="417" y="412" on="1"/>
        <pt x="412" y="412" on="0"/>
        <pt x="405" y="414" on="0"/>
        <pt x="395" y="422" on="1"/>
      </contour>
    </TTGlyph>
    <TTGlyph name="at" xMin="57" yMin="-11" xMax="741" yMax="705">
      <contour>
        <pt x="604" y="218" on="1"/>
        <pt x="604" y="193" on="0"/>
        <pt x="617" y="152" on="0"/>
        <pt x="639" y="152" on="1"/>
        <pt x="662" y="152" on="0"/>
        <pt x="691" y="181" on="0"/>
        <pt x="707" y="230" on="0"/>
        <pt x="713" y="297" on="0"/>
        <pt x="713" y="335" on="1"/>
        <pt x="713" y="421" on="0"/>
        <pt x="656" y="550" on="0"/>
        <pt x="566" y="637" on="0"/>
        <pt x="454" y="680" on="0"/>
        <pt x="399" y="680" on="1"/>
        <pt x="335" y="680" on="0"/>
        <pt x="221" y="628" on="0"/>
        <pt x="135" y="538" on="0"/>
        <pt x="85" y="417" on="0"/>
        <pt x="85" y="347" on="1"/>
        <pt x="85" y="281" on="0"/>
        <pt x="132" y="161" on="0"/>
        <pt x="216" y="69" on="0"/>
        <pt x="333" y="14" on="0"/>
        <pt x="404" y="14" on="1"/>
        <pt x="475" y="14" on="0"/>
        <pt x="611" y="45" on="0"/>
        <pt x="676" y="74" on="1"/>
        <pt x="687" y="79" on="0"/>
        <pt x="696" y="81" on="0"/>
        <pt x="707" y="81" on="1"/>
        <pt x="716" y="81" on="1"/>
        <pt x="728" y="81" on="0"/>
        <pt x="740" y="78" on="0"/>
        <pt x="740" y="70" on="1"/>
        <pt x="740" y="64" on="0"/>
        <pt x="733" y="59" on="0"/>
        <pt x="727" y="56" on="1"/>
        <pt x="644" y="21" on="0"/>
        <pt x="477" y="-11" on="0"/>
        <pt x="405" y="-11" on="1"/>
        <pt x="327" y="-11" on="0"/>
        <pt x="199" y="49" on="0"/>
        <pt x="107" y="148" on="0"/>
        <pt x="57" y="277" on="0"/>
        <pt x="57" y="347" on="1"/>
        <pt x="57" y="422" on="0"/>
        <pt x="111" y="553" on="0"/>
        <pt x="204" y="649" on="0"/>
        <pt x="329" y="705" on="0"/>
        <pt x="399" y="705" on="1"/>
        <pt x="463" y="705" on="0"/>
        <pt x="586" y="655" on="0"/>
        <pt x="682" y="560" on="0"/>
        <pt x="741" y="425" on="0"/>
        <pt x="741" y="339" on="1"/>
        <pt x="741" y="300" on="0"/>
        <pt x="734" y="224" on="0"/>
        <pt x="711" y="164" on="0"/>
        <pt x="669" y="127" on="0"/>
        <pt x="634" y="127" on="1"/>
        <pt x="624" y="127" on="0"/>
        <pt x="593" y="132" on="0"/>
        <pt x="562" y="147" on="0"/>
        <pt x="536" y="174" on="0"/>
        <pt x="531" y="195" on="1"/>
        <pt x="524" y="186" on="0"/>
        <pt x="501" y="163" on="0"/>
        <pt x="467" y="142" on="0"/>
        <pt x="424" y="127" on="0"/>
        <pt x="398" y="127" on="1"/>
        <pt x="358" y="127" on="0"/>
        <pt x="284" y="161" on="0"/>
        <pt x="227" y="220" on="0"/>
        <pt x="194" y="300" on="0"/>
        <pt x="194" y="347" on="1"/>
        <pt x="194" y="394" on="0"/>
        <pt x="227" y="474" on="0"/>
        <pt x="284" y="533" on="0"/>
        <pt x="358" y="567" on="0"/>
        <pt x="398" y="567" on="1"/>
        <pt x="423" y="567" on="0"/>
        <pt x="466" y="553" on="0"/>
        <pt x="503" y="529" on="0"/>
        <pt x="532" y="499" on="0"/>
        <pt x="542" y="483" on="1"/>
        <pt x="576" y="483" on="1"/>
        <pt x="597" y="483" on="0"/>
        <pt x="604" y="476" on="0"/>
        <pt x="604" y="457" on="1"/>
      </contour>
      <contour>
        <pt x="530" y="433" on="1"/>
        <pt x="530" y="447" on="0"/>
        <pt x="527" y="458" on="0"/>
        <pt x="518" y="472" on="1"/>
        <pt x="492" y="511" on="0"/>
        <pt x="426" y="542" on="0"/>
        <pt x="400" y="542" on="1"/>
        <pt x="373" y="542" on="0"/>
        <pt x="325" y="512" on="0"/>
        <pt x="289" y="459" on="0"/>
        <pt x="268" y="388" on="0"/>
        <pt x="268" y="347" on="1"/>
        <pt x="268" y="306" on="0"/>
        <pt x="289" y="235" on="0"/>
        <pt x="325" y="182" on="0"/>
        <pt x="373" y="152" on="0"/>
        <pt x="400" y="152" on="1"/>
        <pt x="427" y="152" on="0"/>
        <pt x="490" y="183" on="0"/>
        <pt x="516" y="219" on="1"/>
        <pt x="527" y="235" on="0"/>
        <pt x="530" y="247" on="0"/>
        <pt x="530" y="261" on="1"/>
      </contour>
    </TTGlyph>
    <TTGlyph name="b" xMin="30" yMin="-11" xMax="536" yMax="694">
      <contour>
        <pt x="181" y="116" on="1"/>
        <pt x="181" y="109" on="0"/>
        <pt x="181" y="100" on="0"/>
        <pt x="184" y="92" on="0"/>
        <pt x="190" y="83" on="0"/>
        <pt x="195" y="75" on="1"/>
        <pt x="213" y="47" on="0"/>
        <pt x="268" y="14" on="0"/>
        <pt x="302" y="14" on="1"/>
        <pt x="342" y="14" on="0"/>
        <pt x="401" y="53" on="0"/>
        <pt x="418" y="77" on="1"/>
        <pt x="438" y="107" on="0"/>
        <pt x="450" y="182" on="0"/>
        <pt x="450" y="217" on="1"/>
        <pt x="450" y="229" on="0"/>
        <pt x="449" y="262" on="0"/>
        <pt x="443" y="298" on="0"/>
        <pt x="432" y="335" on="0"/>
        <pt x="422" y="351" on="1"/>
        <pt x="402" y="383" on="0"/>
        <pt x="345" y="417" on="0"/>
        <pt x="313" y="417" on="1"/>
        <pt x="284" y="417" on="0"/>
        <pt x="218" y="390" on="0"/>
        <pt x="192" y="355" on="1"/>
        <pt x="184" y="343" on="0"/>
        <pt x="181" y="333" on="0"/>
        <pt x="181" y="319" on="1"/>
      </contour>
      <contour>
        <pt x="135" y="0" on="1"/>
        <pt x="107" y="0" on="1"/>
        <pt x="107" y="596" on="1"/>
        <pt x="107" y="614" on="0"/>
        <pt x="102" y="636" on="0"/>
        <pt x="86" y="648" on="0"/>
        <pt x="56" y="652" on="0"/>
        <pt x="30" y="652" on="1"/>
        <pt x="30" y="683" on="1"/>
        <pt x="178" y="694" on="1"/>
        <pt x="178" y="380" on="1"/>
        <pt x="187" y="390" on="0"/>
        <pt x="214" y="412" on="0"/>
        <pt x="248" y="430" on="0"/>
        <pt x="292" y="442" on="0"/>
        <pt x="317" y="442" on="1"/>
        <pt x="362" y="442" on="0"/>
        <pt x="442" y="407" on="0"/>
        <pt x="501" y="345" on="0"/>
        <pt x="536" y="263" on="0"/>
        <pt x="536" y="216" on="1"/>
        <pt x="536" y="167" on="0"/>
        <pt x="498" y="84" on="0"/>
        <pt x="434" y="23" on="0"/>
        <pt x="352" y="-11" on="0"/>
        <pt x="307" y="-11" on="1"/>
        <pt x="266" y="-11" on="0"/>
        <pt x="195" y="28" on="0"/>
        <pt x="172" y="61" on="1"/>
      </contour>
    </TTGlyph>
    <TTGlyph name="bracketleft" xMin="120" yMin="-250" xMax="262" yMax="750">
      <contour>
        <pt x="120" y="-250" on="1"/>
        <pt x="120" y="750" on="1"/>
        <pt x="262" y="750" on="1"/>
        <pt x="262" y="707" on="1"/>
        <pt x="163" y="707" on="1"/>
        <pt x="163" y="-207" on="1"/>
        <pt x="262" y="-207" on="1"/>
        <pt x="262" y="-250" on="1"/>
      </contour>
    </TTGlyph>
    <TTGlyph name="bracketright" xMin="22" yMin="-250" xMax="164" yMax="750">
      <contour>
        <pt x="22" y="-250" on="1"/>
        <pt x="22" y="-207" on="1"/>
        <pt x="121" y="-207" on="1"/>
        <pt x="121" y="707" on="1"/>
        <pt x="22" y="707" on="1"/>
        <pt x="22" y="750" on="1"/>
        <pt x="164" y="750" on="1"/>
        <pt x="164" y="-250" on="1"/>
      </contour>
    </TTGlyph>
    <TTGlyph name="breve" xMin="102" yMin="520" xMax="411" yMax="694">
      <contour>
        <pt x="411" y="694" on="1"/>
        <pt x="410" y="655" on="0"/>
        <pt x="384" y="590" on="0"/>
        <pt x="342" y="545" on="0"/>
        <pt x="286" y="520" on="0"/>
        <pt x="256" y="520" on="1"/>
        <pt x="227" y="520" on="0"/>
        <pt x="172" y="544" on="0"/>
        <pt x="129" y="589" on="0"/>
        <pt x="103" y="654" on="0"/>
        <pt x="102" y="694" on="1"/>
        <pt x="127" y="694" on="1"/>
        <pt x="128" y="662" on="0"/>
        <pt x="151" y="612" on="0"/>
        <pt x="187" y="578" on="0"/>
        <pt x="233" y="561" on="0"/>
        <pt x="257" y="561" on="1"/>
        <pt x="279" y="561" on="0"/>
        <pt x="324" y="578" on="0"/>
        <pt x="361" y="611" on="0"/>
        <pt x="385" y="661" on="0"/>
        <pt x="386" y="694" on="1"/>
      </contour>
    </TTGlyph>
    <TTGlyph name="c" xMin="34" yMin="-11" xMax="427" yMax="448">
      <contour>
        <pt x="364" y="393" on="1"/>
        <pt x="350" y="402" on="0"/>
        <pt x="318" y="413" on="0"/>
        <pt x="288" y="419" on="0"/>
        <pt x="265" y="420" on="0"/>
        <pt x="260" y="420" on="1"/>
        <pt x="238" y="420" on="0"/>
        <pt x="188" y="400" on="0"/>
        <pt x="147" y="354" on="0"/>
        <pt x="120" y="276" on="0"/>
        <pt x="120" y="217" on="1"/>
        <pt x="120" y="162" on="0"/>
        <pt x="148" y="85" on="0"/>
        <pt x="190" y="38" on="0"/>
        <pt x="242" y="17" on="0"/>
        <pt x="266" y="17" on="1"/>
        <pt x="285" y="17" on="0"/>
        <pt x="324" y="27" on="0"/>
        <pt x="359" y="50" on="0"/>
        <pt x="387" y="86" on="0"/>
        <pt x="396" y="112" on="1"/>
        <pt x="401" y="125" on="0"/>
        <pt x="405" y="131" on="0"/>
        <pt x="413" y="131" on="1"/>
        <pt x="415" y="131" on="0"/>
        <pt x="427" y="128" on="0"/>
        <pt x="427" y="119" on="1"/>
        <pt x="427" y="116" on="0"/>
        <pt x="413" y="74" on="0"/>
        <pt x="375" y="27" on="0"/>
        <pt x="308" y="-11" on="0"/>
        <pt x="256" y="-11" on="1"/>
        <pt x="212" y="-11" on="0"/>
        <pt x="131" y="24" on="0"/>
        <pt x="70" y="85" on="0"/>
        <pt x="34" y="168" on="0"/>
        <pt x="34" y="216" on="1"/>
        <pt x="34" y="263" on="0"/>
        <pt x="68" y="347" on="0"/>
        <pt x="128" y="411" on="0"/>
        <pt x="210" y="448" on="0"/>
        <pt x="258" y="448" on="1"/>
        <pt x="291" y="448" on="0"/>
        <pt x="349" y="434" on="0"/>
        <pt x="391" y="408" on="0"/>
        <pt x="416" y="371" on="0"/>
        <pt x="416" y="348" on="1"/>
        <pt x="416" y="325" on="0"/>
        <pt x="389" y="300" on="0"/>
        <pt x="369" y="300" on="1"/>
        <pt x="349" y="300" on="0"/>
        <pt x="323" y="326" on="0"/>
        <pt x="323" y="346" on="1"/>
        <pt x="323" y="368" on="0"/>
        <pt x="348" y="390" on="0"/>
      </contour>
    </TTGlyph>
    <TTGlyph name="caron" xMin="120" yMin="516" xMax="393" yMax="640">
      <contour>
        <pt x="120" y="616" on="1"/>
        <pt x="136" y="640" on="1"/>
        <pt x="257" y="571" on="1"/>
        <pt x="377" y="640" on="1"/>
        <pt x="393" y="616" on="1"/>
        <pt x="256" y="516" on="1"/>
      </contour>
    </TTGlyph>
    <TTGlyph name="cedilla" xMin="134" yMin="-205" xMax="379" yMax="-22">
      <contour>
        <pt x="179" y="-179" on="1"/>
        <pt x="191" y="-179" on="0"/>
        <pt x="233" y="-177" on="0"/>
        <pt x="275" y="-167" on="0"/>
        <pt x="305" y="-145" on="0"/>
        <pt x="305" y="-125" on="1"/>
        <pt x="305" y="-104" on="0"/>
        <pt x="264" y="-72" on="0"/>
        <pt x="220" y="-71" on="1"/>
        <pt x="220" y="-22" on="1"/>
        <pt x="294" y="-22" on="1"/>
        <pt x="294" y="-52" on="1"/>
        <pt x="329" y="-58" on="0"/>
        <pt x="379" y="-92" on="0"/>
        <pt x="379" y="-125" on="1"/>
        <pt x="379" y="-158" on="0"/>
        <pt x="325" y="-191" on="0"/>
        <pt x="279" y="-198" on="1"/>
        <pt x="235" y="-205" on="0"/>
        <pt x="166" y="-203" on="0"/>
        <pt x="134" y="-205" on="1"/>
        <pt x="134" y="-180" on="1"/>
        <pt x="139" y="-179" on="0"/>
        <pt x="150" y="-179" on="0"/>
        <pt x="157" y="-179" on="1"/>
      </contour>
    </TTGlyph>
    <TTGlyph name="circumflex" xMin="119" yMin="538" xMax="394" yMax="694">
      <contour>
        <pt x="394" y="559" on="1"/>
        <pt x="376" y="538" on="1"/>
        <pt x="257" y="639" on="1"/>
        <pt x="137" y="538" on="1"/>
        <pt x="119" y="559" on="1"/>
        <pt x="257" y="694" on="1"/>
      </contour>
    </TTGlyph>
    <TTGlyph name="colon" xMin="88" yMin="0" xMax="196" yMax="431">
      <contour>
        <pt x="196" y="377" on="1"/>
        <pt x="196" y="355" on="0"/>
        <pt x="165" y="323" on="0"/>
        <pt x="142" y="323" on="1"/>
        <pt x="119" y="323" on="0"/>
        <pt x="88" y="355" on="0"/>
        <pt x="88" y="377" on="1"/>
        <pt x="88" y="400" on="0"/>
        <pt x="119" y="431" on="0"/>
        <pt x="142" y="431" on="1"/>
        <pt x="165" y="431" on="0"/>
        <pt x="196" y="400" on="0"/>
      </contour>
      <contour>
        <pt x="196" y="54" on="1"/>
        <pt x="196" y="31" on="0"/>
        <pt x="165" y="0" on="0"/>
        <pt x="142" y="0" on="1"/>
        <pt x="119" y="0" on="0"/>
        <pt x="88" y="31" on="0"/>
        <pt x="88" y="54" on="1"/>
        <pt x="88" y="76" on="0"/>
        <pt x="119" y="108" on="0"/>
        <pt x="142" y="108" on="1"/>
        <pt x="165" y="108" on="0"/>
        <pt x="196" y="76" on="0"/>
      </contour>
    </TTGlyph>
    <TTGlyph name="comma" xMin="88" yMin="-193" xMax="207" yMax="108">
      <contour>
        <pt x="182" y="16" on="1"/>
        <pt x="182" y="15" on="0"/>
        <pt x="161" y="0" on="0"/>
        <pt x="142" y="0" on="1"/>
        <pt x="116" y="0" on="0"/>
        <pt x="88" y="34" on="0"/>
        <pt x="88" y="54" on="1"/>
        <pt x="88" y="74" on="0"/>
        <pt x="116" y="108" on="0"/>
        <pt x="142" y="108" on="1"/>
        <pt x="171" y="108" on="0"/>
        <pt x="207" y="54" on="0"/>
        <pt x="207" y="2" on="1"/>
        <pt x="207" y="-42" on="0"/>
        <pt x="181" y="-114" on="0"/>
        <pt x="149" y="-165" on="0"/>
        <pt x="119" y="-193" on="0"/>
        <pt x="115" y="-193" on="1"/>
        <pt x="110" y="-193" on="0"/>
        <pt x="102" y="-185" on="0"/>
        <pt x="102" y="-181" on="1"/>
        <pt x="102" y="-180" on="0"/>
        <pt x="103" y="-175" on="0"/>
        <pt x="106" y="-171" on="1"/>
        <pt x="135" y="-144" on="0"/>
        <pt x="165" y="-88" on="0"/>
        <pt x="180" y="-38" on="0"/>
        <pt x="182" y="4" on="0"/>
      </contour>
    </TTGlyph>
    <TTGlyph name="d" xMin="34" yMin="-11" xMax="540" yMax="694">
      <contour>
        <pt x="389" y="322" on="1"/>
        <pt x="389" y="336" on="0"/>
        <pt x="386" y="346" on="0"/>
        <pt x="377" y="358" on="1"/>
        <pt x="357" y="387" on="0"/>
        <pt x="300" y="417" on="0"/>
        <pt x="268" y="417" on="1"/>
        <pt x="228" y="417" on="0"/>
        <pt x="169" y="378" on="0"/>
        <pt x="152" y="354" on="1"/>
        <pt x="132" y="324" on="0"/>
        <pt x="120" y="249" on="0"/>
        <pt x="120" y="214" on="1"/>
        <pt x="120" y="202" on="0"/>
        <pt x="121" y="169" on="0"/>
        <pt x="127" y="133" on="0"/>
        <pt x="138" y="96" on="0"/>
        <pt x="148" y="80" on="1"/>
        <pt x="168" y="48" on="0"/>
        <pt x="225" y="14" on="0"/>
        <pt x="257" y="14" on="1"/>
        <pt x="287" y="14" on="0"/>
        <pt x="351" y="44" on="0"/>
        <pt x="374" y="78" on="1"/>
        <pt x="385" y="94" on="0"/>
        <pt x="389" y="107" on="0"/>
        <pt x="389" y="120" on="1"/>
      </contour>
      <contour>
        <pt x="392" y="596" on="1"/>
        <pt x="392" y="614" on="0"/>
        <pt x="387" y="636" on="0"/>
        <pt x="371" y="648" on="0"/>
        <pt x="341" y="652" on="0"/>
        <pt x="315" y="652" on="1"/>
        <pt x="315" y="683" on="1"/>
        <pt x="463" y="694" on="1"/>
        <pt x="463" y="87" on="1"/>
        <pt x="463" y="69" on="0"/>
        <pt x="468" y="47" on="0"/>
        <pt x="484" y="35" on="0"/>
        <pt x="515" y="31" on="0"/>
        <pt x="540" y="31" on="1"/>
        <pt x="540" y="0" on="1"/>
        <pt x="389" y="-11" on="1"/>
        <pt x="389" y="53" on="1"/>
        <pt x="382" y="45" on="0"/>
        <pt x="359" y="23" on="0"/>
        <pt x="325" y="3" on="0"/>
        <pt x="280" y="-11" on="0"/>
        <pt x="253" y="-11" on="1"/>
        <pt x="208" y="-11" on="0"/>
        <pt x="129" y="24" on="0"/>
        <pt x="69" y="86" on="0"/>
        <pt x="34" y="168" on="0"/>
        <pt x="34" y="215" on="1"/>
        <pt x="34" y="263" on="0"/>
        <pt x="71" y="346" on="0"/>
        <pt x="134" y="407" on="0"/>
        <pt x="218" y="442" on="0"/>
        <pt x="264" y="442" on="1"/>
        <pt x="293" y="442" on="0"/>
        <pt x="339" y="425" on="0"/>
        <pt x="372" y="404" on="0"/>
        <pt x="390" y="385" on="0"/>
        <pt x="392" y="383" on="1"/>
      </contour>
    </TTGlyph>
    <TTGlyph name="dieresis" xMin="106" yMin="568" xMax="407" yMax="670">
      <contour>
        <pt x="208" y="619" on="1"/>
        <pt x="208" y="598" on="0"/>
        <pt x="178" y="568" on="0"/>
        <pt x="157" y="568" on="1"/>
        <pt x="136" y="568" on="0"/>
        <pt x="106" y="598" on="0"/>
        <pt x="106" y="619" on="1"/>
        <pt x="106" y="640" on="0"/>
        <pt x="136" y="670" on="0"/>
        <pt x="157" y="670" on="1"/>
        <pt x="178" y="670" on="0"/>
        <pt x="208" y="640" on="0"/>
      </contour>
      <contour>
        <pt x="407" y="619" on="1"/>
        <pt x="407" y="598" on="0"/>
        <pt x="377" y="568" on="0"/>
        <pt x="356" y="568" on="1"/>
        <pt x="335" y="568" on="0"/>
        <pt x="305" y="598" on="0"/>
        <pt x="305" y="619" on="1"/>
        <pt x="305" y="640" on="0"/>
        <pt x="335" y="670" on="0"/>
        <pt x="356" y="670" on="1"/>
        <pt x="377" y="670" on="0"/>
        <pt x="407" y="640" on="0"/>
      </contour>
    </TTGlyph>
    <TTGlyph name="dollar" xMin="57" yMin="-56" xMax="456" yMax="750">
      <contour>
        <pt x="272" y="403" on="1"/>
        <pt x="290" y="399" on="0"/>
        <pt x="322" y="390" on="0"/>
        <pt x="354" y="376" on="0"/>
        <pt x="386" y="354" on="0"/>
        <pt x="403" y="336" on="1"/>
        <pt x="409" y="329" on="0"/>
        <pt x="427" y="304" on="0"/>
        <pt x="444" y="269" on="0"/>
        <pt x="456" y="223" on="0"/>
        <pt x="456" y="195" on="1"/>
        <pt x="456" y="157" on="0"/>
        <pt x="430" y="86" on="0"/>
        <pt x="382" y="30" on="0"/>
        <pt x="314" y="-6" on="0"/>
        <pt x="272" y="-10" on="1"/>
        <pt x="272" y="-56" on="1"/>
        <pt x="241" y="-56" on="1"/>
        <pt x="241" y="-11" on="1"/>
        <pt x="193" y="-8" on="0"/>
        <pt x="124" y="26" on="0"/>
        <pt x="79" y="78" on="0"/>
        <pt x="57" y="144" on="0"/>
        <pt x="57" y="178" on="1"/>
        <pt x="57" y="194" on="0"/>
        <pt x="67" y="214" on="0"/>
        <pt x="81" y="225" on="0"/>
        <pt x="97" y="229" on="0"/>
        <pt x="104" y="229" on="1"/>
        <pt x="124" y="229" on="0"/>
        <pt x="150" y="203" on="0"/>
        <pt x="150" y="183" on="1"/>
        <pt x="150" y="160" on="0"/>
        <pt x="121" y="136" on="0"/>
        <pt x="103" y="136" on="1"/>
        <pt x="99" y="136" on="0"/>
        <pt x="91" y="138" on="0"/>
        <pt x="90" y="138" on="1"/>
        <pt x="98" y="105" on="0"/>
        <pt x="130" y="62" on="0"/>
        <pt x="172" y="35" on="0"/>
        <pt x="219" y="22" on="0"/>
        <pt x="241" y="21" on="1"/>
        <pt x="241" y="318" on="1"/>
        <pt x="217" y="325" on="0"/>
        <pt x="181" y="335" on="0"/>
        <pt x="153" y="347" on="0"/>
        <pt x="129" y="365" on="0"/>
        <pt x="115" y="378" on="1"/>
        <pt x="91" y="401" on="0"/>
        <pt x="57" y="468" on="0"/>
        <pt x="57" y="513" on="1"/>
        <pt x="57" y="547" on="0"/>
        <pt x="82" y="612" on="0"/>
        <pt x="130" y="665" on="0"/>
        <pt x="198" y="701" on="0"/>
        <pt x="241" y="704" on="1"/>
        <pt x="241" y="750" on="1"/>
        <pt x="272" y="750" on="1"/>
        <pt x="272" y="705" on="1"/>
        <pt x="321" y="702" on="0"/>
        <pt x="391" y="670" on="0"/>
        <pt x="435" y="621" on="0"/>
        <pt x="456" y="561" on="0"/>
        <pt x="456" y="530" on="1"/>
        <pt x="456" y="500" on="0"/>
        <pt x="425" y="479" on="0"/>
        <pt x="409" y="479" on="1"/>
        <pt x="389" y="479" on="0"/>
        <pt x="363" y="505" on="0"/>
        <pt x="363" y="525" on="1"/>
        <pt x="363" y="548" on="0"/>
        <pt x="393" y="572" on="0"/>
        <pt x="410" y="572" on="1"/>
        <pt x="416" y="572" on="0"/>
        <pt x="422" y="570" on="1"/>
        <pt x="415" y="596" on="0"/>
        <pt x="385" y="634" on="0"/>
        <pt x="345" y="659" on="0"/>
        <pt x="297" y="673" on="0"/>
        <pt x="272" y="674" on="1"/>
      </contour>
      <contour>
        <pt x="241" y="673" on="1"/>
        <pt x="209" y="670" on="0"/>
        <pt x="160" y="644" on="0"/>
        <pt x="126" y="608" on="0"/>
        <pt x="109" y="565" on="0"/>
        <pt x="109" y="543" on="1"/>
        <pt x="109" y="536" on="0"/>
        <pt x="114" y="500" on="0"/>
        <pt x="140" y="459" on="0"/>
        <pt x="193" y="420" on="0"/>
        <pt x="241" y="411" on="1"/>
      </contour>
      <contour>
        <pt x="272" y="21" on="1"/>
        <pt x="302" y="24" on="0"/>
        <pt x="350" y="50" on="0"/>
        <pt x="385" y="89" on="0"/>
        <pt x="404" y="139" on="0"/>
        <pt x="404" y="165" on="1"/>
        <pt x="404" y="173" on="0"/>
        <pt x="398" y="213" on="0"/>
        <pt x="372" y="259" on="0"/>
        <pt x="319" y="301" on="0"/>
        <pt x="272" y="311" on="1"/>
      </contour>
    </TTGlyph>
    <TTGlyph name="dotaccent" xMin="88" yMin="562" xMax="196" yMax="670">
      <contour>
        <pt x="196" y="616" on="1"/>
        <pt x="196" y="593" on="0"/>
        <pt x="165" y="562" on="0"/>
        <pt x="142" y="562" on="1"/>
        <pt x="119" y="562" on="0"/>
        <pt x="88" y="593" on="0"/>
        <pt x="88" y="616" on="1"/>
        <pt x="88" y="639" on="0"/>
        <pt x="119" y="670" on="0"/>
        <pt x="142" y="670" on="1"/>
        <pt x="165" y="670" on="0"/>
        <pt x="196" y="639" on="0"/>
      </contour>
    </TTGlyph>
    <TTGlyph name="dotlessi" xMin="36" yMin="0" xMax="253" yMax="442">
      <contour>
        <pt x="184" y="442" on="1"/>
        <pt x="184" y="75" on="1"/>
        <pt x="184" y="60" on="0"/>
        <pt x="187" y="43" on="0"/>
        <pt x="201" y="34" on="0"/>
        <pt x="229" y="31" on="0"/>
        <pt x="253" y="31" on="1"/>
        <pt x="253" y="0" on="1"/>
        <pt x="216" y="2" on="0"/>
        <pt x="158" y="3" on="0"/>
        <pt x="146" y="3" on="1"/>
        <pt x="130" y="3" on="0"/>
        <pt x="104" y="3" on="0"/>
        <pt x="79" y="2" on="0"/>
        <pt x="53" y="1" on="0"/>
        <pt x="36" y="0" on="1"/>
        <pt x="36" y="31" on="1"/>
        <pt x="61" y="31" on="0"/>
        <pt x="91" y="32" on="0"/>
        <pt x="108" y="41" on="0"/>
        <pt x="113" y="60" on="0"/>
        <pt x="113" y="77" on="1"/>
        <pt x="113" y="345" on="1"/>
        <pt x="113" y="363" on="0"/>
        <pt x="108" y="385" on="0"/>
        <pt x="93" y="397" on="0"/>
        <pt x="64" y="400" on="0"/>
        <pt x="40" y="400" on="1"/>
        <pt x="40" y="431" on="1"/>
      </contour>
    </TTGlyph>
    <TTGlyph name="e" xMin="29" yMin="-11" xMax="427" yMax="448">
      <contour>
        <pt x="115" y="229" on="1"/>
        <pt x="115" y="213" on="0"/>
        <pt x="116" y="176" on="0"/>
        <pt x="123" y="136" on="0"/>
        <pt x="137" y="96" on="0"/>
        <pt x="149" y="78" on="1"/>
        <pt x="166" y="52" on="0"/>
        <pt x="225" y="17" on="0"/>
        <pt x="261" y="17" on="1"/>
        <pt x="267" y="17" on="0"/>
        <pt x="302" y="21" on="0"/>
        <pt x="344" y="41" on="0"/>
        <pt x="386" y="83" on="0"/>
        <pt x="399" y="121" on="1"/>
        <pt x="400" y="124" on="0"/>
        <pt x="405" y="132" on="0"/>
        <pt x="413" y="132" on="1"/>
        <pt x="427" y="132" on="0"/>
        <pt x="427" y="119" on="1"/>
        <pt x="427" y="110" on="0"/>
        <pt x="408" y="68" on="0"/>
        <pt x="367" y="23" on="0"/>
        <pt x="302" y="-11" on="0"/>
        <pt x="256" y="-11" on="1"/>
        <pt x="210" y="-11" on="0"/>
        <pt x="128" y="24" on="0"/>
        <pt x="66" y="86" on="0"/>
        <pt x="29" y="171" on="0"/>
        <pt x="29" y="220" on="1"/>
        <pt x="29" y="267" on="0"/>
        <pt x="62" y="349" on="0"/>
        <pt x="120" y="412" on="0"/>
        <pt x="198" y="448" on="0"/>
        <pt x="243" y="448" on="1"/>
        <pt x="291" y="448" on="0"/>
        <pt x="361" y="415" on="0"/>
        <pt x="406" y="360" on="0"/>
        <pt x="427" y="289" on="0"/>
        <pt x="427" y="250" on="1"/>
        <pt x="427" y="234" on="0"/>
        <pt x="417" y="229" on="0"/>
        <pt x="400" y="229" on="1"/>
      </contour>
      <contour>
        <pt x="359" y="253" on="1"/>
        <pt x="359" y="301" on="0"/>
        <pt x="338" y="366" on="0"/>
        <pt x="305" y="406" on="0"/>
        <pt x="264" y="423" on="0"/>
        <pt x="243" y="423" on="1"/>
        <pt x="233" y="423" on="0"/>
        <pt x="193" y="413" on="0"/>
        <pt x="152" y="378" on="0"/>
        <pt x="119" y="311" on="0"/>
        <pt x="116" y="253" on="1"/>
      </contour>
    </TTGlyph>
    <TTGlyph name="eight" xMin="43" yMin="-22" xMax="470" yMax="666">
      <contour>
        <pt x="294" y="378" on="1"/>
        <pt x="309" y="387" on="0"/>
        <pt x="344" y="413" on="0"/>
        <pt x="374" y="447" on="0"/>
        <pt x="394" y="491" on="0"/>
        <pt x="394" y="517" on="1"/>
        <pt x="394" y="543" on="0"/>
        <pt x="372" y="589" on="0"/>
        <pt x="335" y="622" on="0"/>
        <pt x="284" y="641" on="0"/>
        <pt x="255" y="641" on="1"/>
        <pt x="230" y="641" on="0"/>
        <pt x="182" y="627" on="0"/>
        <pt x="143" y="600" on="0"/>
        <pt x="119" y="561" on="0"/>
        <pt x="119" y="537" on="1"/>
        <pt x="119" y="509" on="0"/>
        <pt x="149" y="468" on="0"/>
        <pt x="172" y="454" on="1"/>
      </contour>
      <contour>
        <pt x="319" y="362" on="1"/>
        <pt x="328" y="357" on="0"/>
        <pt x="363" y="335" on="0"/>
        <pt x="371" y="329" on="1"/>
        <pt x="380" y="323" on="0"/>
        <pt x="414" y="298" on="0"/>
        <pt x="446" y="259" on="0"/>
        <pt x="470" y="204" on="0"/>
        <pt x="470" y="168" on="1"/>
        <pt x="470" y="128" on="0"/>
        <pt x="436" y="58" on="0"/>
        <pt x="377" y="7" on="0"/>
        <pt x="300" y="-22" on="0"/>
        <pt x="256" y="-22" on="1"/>
        <pt x="216" y="-22" on="0"/>
        <pt x="139" y="2" on="0"/>
        <pt x="79" y="47" on="0"/>
        <pt x="43" y="111" on="0"/>
        <pt x="43" y="151" on="1"/>
        <pt x="43" y="213" on="0"/>
        <pt x="124" y="304" on="0"/>
        <pt x="190" y="336" on="1"/>
        <pt x="168" y="350" on="0"/>
        <pt x="142" y="367" on="0"/>
        <pt x="126" y="379" on="0"/>
        <pt x="115" y="389" on="0"/>
        <pt x="109" y="396" on="1"/>
        <pt x="91" y="418" on="0"/>
        <pt x="71" y="470" on="0"/>
        <pt x="71" y="499" on="1"/>
        <pt x="71" y="534" on="0"/>
        <pt x="100" y="594" on="0"/>
        <pt x="150" y="640" on="0"/>
        <pt x="219" y="666" on="0"/>
        <pt x="258" y="666" on="1"/>
        <pt x="292" y="666" on="0"/>
        <pt x="358" y="646" on="0"/>
        <pt x="410" y="608" on="0"/>
        <pt x="442" y="552" on="0"/>
        <pt x="442" y="517" on="1"/>
        <pt x="442" y="487" on="0"/>
        <pt x="418" y="437" on="0"/>
        <pt x="381" y="399" on="0"/>
        <pt x="338" y="371" on="0"/>
      </contour>
      <contour>
        <pt x="217" y="319" on="1"/>
        <pt x="164" y="292" on="0"/>
        <pt x="97" y="205" on="0"/>
        <pt x="97" y="151" on="1"/>
        <pt x="97" y="120" on="0"/>
        <pt x="123" y="67" on="0"/>
        <pt x="166" y="28" on="0"/>
        <pt x="224" y="6" on="0"/>
        <pt x="257" y="6" on="1"/>
        <pt x="287" y="6" on="0"/>
        <pt x="344" y="23" on="0"/>
        <pt x="389" y="56" on="0"/>
        <pt x="416" y="103" on="0"/>
        <pt x="416" y="133" on="1"/>
        <pt x="416" y="156" on="0"/>
        <pt x="400" y="191" on="0"/>
        <pt x="377" y="217" on="0"/>
        <pt x="352" y="235" on="0"/>
        <pt x="343" y="241" on="1"/>
      </contour>
    </TTGlyph>
    <TTGlyph name="emdash" xMin="0" yMin="254" xMax="1027" yMax="279">
      <contour>
        <pt x="0" y="254" on="1"/>
        <pt x="0" y="279" on="1"/>
        <pt x="1027" y="279" on="1"/>
        <pt x="1027" y="254" on="1"/>
      </contour>
    </TTGlyph>
    <TTGlyph name="endash" xMin="0" yMin="254" xMax="513" yMax="279">
      <contour>
        <pt x="0" y="254" on="1"/>
        <pt x="0" y="279" on="1"/>
        <pt x="513" y="279" on="1"/>
        <pt x="513" y="254" on="1"/>
      </contour>
    </TTGlyph>
    <TTGlyph name="equal" xMin="57" yMin="127" xMax="741" yMax="374">
      <contour>
        <pt x="90" y="331" on="1"/>
        <pt x="80" y="331" on="0"/>
        <pt x="57" y="336" on="0"/>
        <pt x="57" y="352" on="1"/>
        <pt x="57" y="369" on="0"/>
        <pt x="83" y="374" on="0"/>
        <pt x="94" y="374" on="1"/>
        <pt x="704" y="374" on="1"/>
        <pt x="715" y="374" on="0"/>
        <pt x="741" y="369" on="0"/>
        <pt x="741" y="352" on="1"/>
        <pt x="741" y="336" on="0"/>
        <pt x="719" y="331" on="0"/>
        <pt x="708" y="331" on="1"/>
      </contour>
      <contour>
        <pt x="94" y="127" on="1"/>
        <pt x="83" y="127" on="0"/>
        <pt x="57" y="132" on="0"/>
        <pt x="57" y="149" on="1"/>
        <pt x="57" y="165" on="0"/>
        <pt x="80" y="170" on="0"/>
        <pt x="90" y="170" on="1"/>
        <pt x="708" y="170" on="1"/>
        <pt x="719" y="170" on="0"/>
        <pt x="741" y="165" on="0"/>
        <pt x="741" y="149" on="1"/>
        <pt x="741" y="132" on="0"/>
        <pt x="715" y="127" on="0"/>
        <pt x="704" y="127" on="1"/>
      </contour>
    </TTGlyph>
    <TTGlyph name="exclam" xMin="88" yMin="0" xMax="196" yMax="716">
      <contour>
        <pt x="157" y="210" on="1"/>
        <pt x="156" y="199" on="0"/>
        <pt x="152" y="189" on="0"/>
        <pt x="142" y="189" on="1"/>
        <pt x="132" y="189" on="0"/>
        <pt x="128" y="199" on="0"/>
        <pt x="127" y="210" on="1"/>
        <pt x="88" y="664" on="1"/>
        <pt x="88" y="690" on="0"/>
        <pt x="124" y="716" on="0"/>
        <pt x="142" y="716" on="1"/>
        <pt x="160" y="716" on="0"/>
        <pt x="196" y="690" on="0"/>
        <pt x="196" y="664" on="1"/>
      </contour>
      <contour>
        <pt x="196" y="54" on="1"/>
        <pt x="196" y="31" on="0"/>
        <pt x="165" y="0" on="0"/>
        <pt x="142" y="0" on="1"/>
        <pt x="119" y="0" on="0"/>
        <pt x="88" y="31" on="0"/>
        <pt x="88" y="54" on="1"/>
        <pt x="88" y="77" on="0"/>
        <pt x="119" y="108" on="0"/>
        <pt x="142" y="108" on="1"/>
        <pt x="165" y="108" on="0"/>
        <pt x="196" y="77" on="0"/>
      </contour>
    </TTGlyph>
    <TTGlyph name="exclamdown" xMin="88" yMin="-216" xMax="196" yMax="500">
      <contour>
        <pt x="196" y="446" on="1"/>
        <pt x="196" y="423" on="0"/>
        <pt x="165" y="392" on="0"/>
        <pt x="142" y="392" on="1"/>
        <pt x="119" y="392" on="0"/>
        <pt x="88" y="423" on="0"/>
        <pt x="88" y="446" on="1"/>
        <pt x="88" y="469" on="0"/>
        <pt x="119" y="500" on="0"/>
        <pt x="142" y="500" on="1"/>
        <pt x="165" y="500" on="0"/>
        <pt x="196" y="469" on="0"/>
      </contour>
      <contour>
        <pt x="127" y="290" on="1"/>
        <pt x="128" y="301" on="0"/>
        <pt x="132" y="311" on="0"/>
        <pt x="142" y="311" on="1"/>
        <pt x="152" y="311" on="0"/>
        <pt x="156" y="301" on="0"/>
        <pt x="157" y="290" on="1"/>
        <pt x="196" y="-164" on="1"/>
        <pt x="196" y="-190" on="0"/>
        <pt x="160" y="-216" on="0"/>
        <pt x="142" y="-216" on="1"/>
        <pt x="124" y="-216" on="0"/>
        <pt x="88" y="-190" on="0"/>
        <pt x="88" y="-164" on="1"/>
      </contour>
    </TTGlyph>
    <TTGlyph name="f" xMin="34" yMin="0" xMax="366" yMax="705">
      <contour>
        <pt x="184" y="400" on="1"/>
        <pt x="184" y="79" on="1"/>
        <pt x="184" y="65" on="0"/>
        <pt x="187" y="47" on="0"/>
        <pt x="202" y="36" on="0"/>
        <pt x="233" y="31" on="0"/>
        <pt x="260" y="31" on="1"/>
        <pt x="280" y="31" on="1"/>
        <pt x="280" y="0" on="1"/>
        <pt x="256" y="1" on="0"/>
        <pt x="222" y="2" on="0"/>
        <pt x="194" y="3" on="0"/>
        <pt x="168" y="3" on="0"/>
        <pt x="153" y="3" on="1"/>
        <pt x="134" y="3" on="0"/>
        <pt x="107" y="3" on="0"/>
        <pt x="83" y="2" on="0"/>
        <pt x="56" y="1" on="0"/>
        <pt x="36" y="0" on="1"/>
        <pt x="36" y="31" on="1"/>
        <pt x="61" y="31" on="0"/>
        <pt x="91" y="32" on="0"/>
        <pt x="108" y="41" on="0"/>
        <pt x="113" y="60" on="0"/>
        <pt x="113" y="77" on="1"/>
        <pt x="113" y="400" on="1"/>
        <pt x="34" y="400" on="1"/>
        <pt x="34" y="431" on="1"/>
        <pt x="113" y="431" on="1"/>
        <pt x="113" y="546" on="1"/>
        <pt x="113" y="584" on="0"/>
        <pt x="141" y="643" on="0"/>
        <pt x="186" y="683" on="0"/>
        <pt x="244" y="705" on="0"/>
        <pt x="273" y="705" on="1"/>
        <pt x="315" y="705" on="0"/>
        <pt x="366" y="663" on="0"/>
        <pt x="366" y="634" on="1"/>
        <pt x="366" y="614" on="0"/>
        <pt x="341" y="589" on="0"/>
        <pt x="321" y="589" on="1"/>
        <pt x="302" y="589" on="0"/>
        <pt x="277" y="613" on="0"/>
        <pt x="277" y="633" on="1"/>
        <pt x="277" y="652" on="0"/>
        <pt x="295" y="671" on="0"/>
        <pt x="303" y="674" on="1"/>
        <pt x="288" y="680" on="0"/>
        <pt x="273" y="680" on="1"/>
        <pt x="257" y="680" on="0"/>
        <pt x="224" y="663" on="0"/>
        <pt x="198" y="629" on="0"/>
        <pt x="181" y="578" on="0"/>
        <pt x="181" y="544" on="1"/>
        <pt x="181" y="431" on="1"/>
        <pt x="300" y="431" on="1"/>
        <pt x="300" y="400" on="1"/>
      </contour>
    </TTGlyph>
    <TTGlyph name="f_f" xMin="28" yMin="0" xMax="646" yMax="705">
      <contour>
        <pt x="463" y="400" on="1"/>
        <pt x="463" y="79" on="1"/>
        <pt x="463" y="65" on="0"/>
        <pt x="466" y="47" on="0"/>
        <pt x="481" y="36" on="0"/>
        <pt x="512" y="31" on="0"/>
        <pt x="539" y="31" on="1"/>
        <pt x="559" y="31" on="1"/>
        <pt x="559" y="0" on="1"/>
        <pt x="535" y="1" on="0"/>
        <pt x="501" y="2" on="0"/>
        <pt x="473" y="3" on="0"/>
        <pt x="447" y="3" on="0"/>
        <pt x="432" y="3" on="1"/>
        <pt x="413" y="3" on="0"/>
        <pt x="386" y="3" on="0"/>
        <pt x="362" y="2" on="0"/>
        <pt x="335" y="1" on="0"/>
        <pt x="315" y="0" on="1"/>
        <pt x="315" y="31" on="1"/>
        <pt x="340" y="31" on="0"/>
        <pt x="370" y="32" on="0"/>
        <pt x="387" y="41" on="0"/>
        <pt x="392" y="60" on="0"/>
        <pt x="392" y="77" on="1"/>
        <pt x="392" y="400" on="1"/>
        <pt x="178" y="400" on="1"/>
        <pt x="178" y="77" on="1"/>
        <pt x="178" y="60" on="0"/>
        <pt x="184" y="41" on="0"/>
        <pt x="200" y="32" on="0"/>
        <pt x="230" y="31" on="0"/>
        <pt x="255" y="31" on="1"/>
        <pt x="255" y="0" on="1"/>
        <pt x="237" y="1" on="0"/>
        <pt x="210" y="2" on="0"/>
        <pt x="186" y="3" on="0"/>
        <pt x="160" y="3" on="0"/>
        <pt x="142" y="3" on="1"/>
        <pt x="125" y="3" on="0"/>
        <pt x="99" y="3" on="0"/>
        <pt x="74" y="2" on="0"/>
        <pt x="48" y="1" on="0"/>
        <pt x="30" y="0" on="1"/>
        <pt x="30" y="31" on="1"/>
        <pt x="55" y="31" on="0"/>
        <pt x="85" y="32" on="0"/>
        <pt x="102" y="41" on="0"/>
        <pt x="107" y="60" on="0"/>
        <pt x="107" y="77" on="1"/>
        <pt x="107" y="400" on="1"/>
        <pt x="28" y="400" on="1"/>
        <pt x="28" y="431" on="1"/>
        <pt x="107" y="431" on="1"/>
        <pt x="107" y="544" on="1"/>
        <pt x="107" y="583" on="0"/>
        <pt x="146" y="644" on="0"/>
        <pt x="209" y="684" on="0"/>
        <pt x="287" y="705" on="0"/>
        <pt x="326" y="705" on="1"/>
        <pt x="368" y="705" on="0"/>
        <pt x="427" y="682" on="0"/>
        <pt x="443" y="663" on="1"/>
        <pt x="473" y="690" on="0"/>
        <pt x="535" y="705" on="0"/>
        <pt x="552" y="705" on="1"/>
        <pt x="596" y="705" on="0"/>
        <pt x="646" y="662" on="0"/>
        <pt x="646" y="634" on="1"/>
        <pt x="646" y="614" on="0"/>
        <pt x="621" y="589" on="0"/>
        <pt x="601" y="589" on="1"/>
        <pt x="582" y="589" on="0"/>
        <pt x="557" y="613" on="0"/>
        <pt x="557" y="633" on="1"/>
        <pt x="557" y="652" on="0"/>
        <pt x="575" y="671" on="0"/>
        <pt x="583" y="674" on="1"/>
        <pt x="572" y="679" on="0"/>
        <pt x="555" y="680" on="0"/>
        <pt x="553" y="680" on="1"/>
        <pt x="536" y="680" on="0"/>
        <pt x="503" y="663" on="0"/>
        <pt x="476" y="629" on="0"/>
        <pt x="460" y="578" on="0"/>
        <pt x="460" y="544" on="1"/>
        <pt x="460" y="431" on="1"/>
        <pt x="580" y="431" on="1"/>
        <pt x="580" y="400" on="1"/>
      </contour>
      <contour>
        <pt x="175" y="431" on="1"/>
        <pt x="392" y="431" on="1"/>
        <pt x="392" y="546" on="1"/>
        <pt x="392" y="555" on="0"/>
        <pt x="393" y="570" on="0"/>
        <pt x="395" y="579" on="1"/>
        <pt x="378" y="587" on="0"/>
        <pt x="369" y="611" on="0"/>
        <pt x="369" y="619" on="1"/>
        <pt x="369" y="642" on="0"/>
        <pt x="395" y="661" on="0"/>
        <pt x="402" y="663" on="1"/>
        <pt x="379" y="675" on="0"/>
        <pt x="335" y="680" on="0"/>
        <pt x="326" y="680" on="1"/>
        <pt x="302" y="680" on="0"/>
        <pt x="248" y="665" on="0"/>
        <pt x="204" y="632" on="0"/>
        <pt x="175" y="579" on="0"/>
        <pt x="175" y="541" on="1"/>
      </contour>
    </TTGlyph>
    <TTGlyph name="f_f_i" xMin="28" yMin="0" xMax="825" yMax="705">
      <contour>
        <pt x="748" y="443" on="1"/>
        <pt x="748" y="77" on="1"/>
        <pt x="748" y="60" on="0"/>
        <pt x="754" y="41" on="0"/>
        <pt x="770" y="32" on="0"/>
        <pt x="800" y="31" on="0"/>
        <pt x="825" y="31" on="1"/>
        <pt x="825" y="0" on="1"/>
        <pt x="807" y="1" on="0"/>
        <pt x="780" y="2" on="0"/>
        <pt x="756" y="3" on="0"/>
        <pt x="730" y="3" on="0"/>
        <pt x="712" y="3" on="1"/>
        <pt x="695" y="3" on="0"/>
        <pt x="669" y="3" on="0"/>
        <pt x="644" y="2" on="0"/>
        <pt x="618" y="1" on="0"/>
        <pt x="600" y="0" on="1"/>
        <pt x="600" y="31" on="1"/>
        <pt x="625" y="31" on="0"/>
        <pt x="655" y="32" on="0"/>
        <pt x="672" y="41" on="0"/>
        <pt x="677" y="60" on="0"/>
        <pt x="677" y="77" on="1"/>
        <pt x="677" y="346" on="1"/>
        <pt x="677" y="377" on="0"/>
        <pt x="659" y="400" on="0"/>
        <pt x="624" y="400" on="1"/>
        <pt x="463" y="400" on="1"/>
        <pt x="463" y="77" on="1"/>
        <pt x="463" y="60" on="0"/>
        <pt x="469" y="41" on="0"/>
        <pt x="485" y="32" on="0"/>
        <pt x="515" y="31" on="0"/>
        <pt x="540" y="31" on="1"/>
        <pt x="540" y="0" on="1"/>
        <pt x="522" y="1" on="0"/>
        <pt x="495" y="2" on="0"/>
        <pt x="471" y="3" on="0"/>
        <pt x="445" y="3" on="0"/>
        <pt x="427" y="3" on="1"/>
        <pt x="410" y="3" on="0"/>
        <pt x="384" y="3" on="0"/>
        <pt x="359" y="2" on="0"/>
        <pt x="333" y="1" on="0"/>
        <pt x="315" y="0" on="1"/>
        <pt x="315" y="31" on="1"/>
        <pt x="340" y="31" on="0"/>
        <pt x="370" y="32" on="0"/>
        <pt x="387" y="41" on="0"/>
        <pt x="392" y="60" on="0"/>
        <pt x="392" y="77" on="1"/>
        <pt x="392" y="400" on="1"/>
        <pt x="178" y="400" on="1"/>
        <pt x="178" y="77" on="1"/>
        <pt x="178" y="60" on="0"/>
        <pt x="184" y="41" on="0"/>
        <pt x="200" y="32" on="0"/>
        <pt x="230" y="31" on="0"/>
        <pt x="255" y="31" on="1"/>
        <pt x="255" y="0" on="1"/>
        <pt x="237" y="1" on="0"/>
        <pt x="210" y="2" on="0"/>
        <pt x="186" y="3" on="0"/>
        <pt x="160" y="3" on="0"/>
        <pt x="142" y="3" on="1"/>
        <pt x="125" y="3" on="0"/>
        <pt x="99" y="3" on="0"/>
        <pt x="74" y="2" on="0"/>
        <pt x="48" y="1" on="0"/>
        <pt x="30" y="0" on="1"/>
        <pt x="30" y="31" on="1"/>
        <pt x="55" y="31" on="0"/>
        <pt x="85" y="32" on="0"/>
        <pt x="102" y="41" on="0"/>
        <pt x="107" y="60" on="0"/>
        <pt x="107" y="77" on="1"/>
        <pt x="107" y="400" on="1"/>
        <pt x="28" y="400" on="1"/>
        <pt x="28" y="431" on="1"/>
        <pt x="107" y="431" on="1"/>
        <pt x="107" y="544" on="1"/>
        <pt x="107" y="584" on="0"/>
        <pt x="147" y="644" on="0"/>
        <pt x="210" y="685" on="0"/>
        <pt x="287" y="705" on="0"/>
        <pt x="325" y="705" on="1"/>
        <pt x="370" y="705" on="0"/>
        <pt x="429" y="674" on="0"/>
        <pt x="444" y="651" on="1"/>
        <pt x="481" y="679" on="0"/>
        <pt x="567" y="705" on="0"/>
        <pt x="612" y="705" on="1"/>
        <pt x="642" y="705" on="0"/>
        <pt x="692" y="689" on="0"/>
        <pt x="727" y="662" on="0"/>
        <pt x="747" y="624" on="0"/>
        <pt x="747" y="603" on="1"/>
        <pt x="747" y="582" on="0"/>
        <pt x="719" y="556" on="0"/>
        <pt x="699" y="556" on="1"/>
        <pt x="682" y="556" on="0"/>
        <pt x="652" y="580" on="0"/>
        <pt x="652" y="603" on="1"/>
        <pt x="652" y="608" on="0"/>
        <pt x="655" y="622" on="0"/>
        <pt x="665" y="637" on="0"/>
        <pt x="682" y="649" on="0"/>
        <pt x="697" y="650" on="1"/>
        <pt x="678" y="668" on="0"/>
        <pt x="628" y="680" on="0"/>
        <pt x="611" y="680" on="1"/>
        <pt x="590" y="680" on="0"/>
        <pt x="537" y="666" on="0"/>
        <pt x="491" y="633" on="0"/>
        <pt x="460" y="580" on="0"/>
        <pt x="460" y="541" on="1"/>
        <pt x="460" y="431" on="1"/>
        <pt x="582" y="431" on="1"/>
        <pt x="593" y="431" on="0"/>
        <pt x="598" y="431" on="0"/>
        <pt x="600" y="432" on="1"/>
        <pt x="601" y="432" on="0"/>
        <pt x="606" y="433" on="0"/>
        <pt x="618" y="434" on="1"/>
      </contour>
      <contour>
        <pt x="175" y="431" on="1"/>
        <pt x="392" y="431" on="1"/>
        <pt x="392" y="560" on="1"/>
        <pt x="378" y="566" on="0"/>
        <pt x="364" y="591" on="0"/>
        <pt x="364" y="603" on="1"/>
        <pt x="364" y="605" on="0"/>
        <pt x="365" y="618" on="0"/>
        <pt x="374" y="634" on="0"/>
        <pt x="392" y="648" on="0"/>
        <pt x="409" y="650" on="1"/>
        <pt x="397" y="661" on="0"/>
        <pt x="371" y="673" on="0"/>
        <pt x="347" y="679" on="0"/>
        <pt x="329" y="680" on="0"/>
        <pt x="324" y="680" on="1"/>
        <pt x="303" y="680" on="0"/>
        <pt x="252" y="666" on="0"/>
        <pt x="206" y="634" on="0"/>
        <pt x="175" y="581" on="0"/>
        <pt x="175" y="541" on="1"/>
      </contour>
    </TTGlyph>
    <TTGlyph name="f_f_l" xMin="28" yMin="0" xMax="825" yMax="705">
      <contour>
        <pt x="748" y="694" on="1"/>
        <pt x="748" y="77" on="1"/>
        <pt x="748" y="60" on="0"/>
        <pt x="754" y="41" on="0"/>
        <pt x="770" y="32" on="0"/>
        <pt x="800" y="31" on="0"/>
        <pt x="825" y="31" on="1"/>
        <pt x="825" y="0" on="1"/>
        <pt x="807" y="1" on="0"/>
        <pt x="780" y="2" on="0"/>
        <pt x="756" y="3" on="0"/>
        <pt x="730" y="3" on="0"/>
        <pt x="712" y="3" on="1"/>
        <pt x="695" y="3" on="0"/>
        <pt x="669" y="3" on="0"/>
        <pt x="644" y="2" on="0"/>
        <pt x="618" y="1" on="0"/>
        <pt x="600" y="0" on="1"/>
        <pt x="600" y="31" on="1"/>
        <pt x="625" y="31" on="0"/>
        <pt x="655" y="32" on="0"/>
        <pt x="672" y="41" on="0"/>
        <pt x="677" y="60" on="0"/>
        <pt x="677" y="77" on="1"/>
        <pt x="677" y="400" on="1"/>
        <pt x="463" y="400" on="1"/>
        <pt x="463" y="77" on="1"/>
        <pt x="463" y="60" on="0"/>
        <pt x="469" y="41" on="0"/>
        <pt x="485" y="32" on="0"/>
        <pt x="515" y="31" on="0"/>
        <pt x="540" y="31" on="1"/>
        <pt x="540" y="0" on="1"/>
        <pt x="522" y="1" on="0"/>
        <pt x="495" y="2" on="0"/>
        <pt x="471" y="3" on="0"/>
        <pt x="445" y="3" on="0"/>
        <pt x="427" y="3" on="1"/>
        <pt x="410" y="3" on="0"/>
        <pt x="384" y="3" on="0"/>
        <pt x="359" y="2" on="0"/>
        <pt x="333" y="1" on="0"/>
        <pt x="315" y="0" on="1"/>
        <pt x="315" y="31" on="1"/>
        <pt x="340" y="31" on="0"/>
        <pt x="370" y="32" on="0"/>
        <pt x="387" y="41" on="0"/>
        <pt x="392" y="60" on="0"/>
        <pt x="392" y="77" on="1"/>
        <pt x="392" y="400" on="1"/>
        <pt x="178" y="400" on="1"/>
        <pt x="178" y="77" on="1"/>
        <pt x="178" y="60" on="0"/>
        <pt x="184" y="41" on="0"/>
        <pt x="200" y="32" on="0"/>
        <pt x="230" y="31" on="0"/>
        <pt x="255" y="31" on="1"/>
        <pt x="255" y="0" on="1"/>
        <pt x="237" y="1" on="0"/>
        <pt x="210" y="2" on="0"/>
        <pt x="186" y="3" on="0"/>
        <pt x="160" y="3" on="0"/>
        <pt x="142" y="3" on="1"/>
        <pt x="125" y="3" on="0"/>
        <pt x="99" y="3" on="0"/>
        <pt x="74" y="2" on="0"/>
        <pt x="48" y="1" on="0"/>
        <pt x="30" y="0" on="1"/>
        <pt x="30" y="31" on="1"/>
        <pt x="55" y="31" on="0"/>
        <pt x="85" y="32" on="0"/>
        <pt x="102" y="41" on="0"/>
        <pt x="107" y="60" on="0"/>
        <pt x="107" y="77" on="1"/>
        <pt x="107" y="400" on="1"/>
        <pt x="28" y="400" on="1"/>
        <pt x="28" y="431" on="1"/>
        <pt x="107" y="431" on="1"/>
        <pt x="107" y="544" on="1"/>
        <pt x="107" y="583" on="0"/>
        <pt x="146" y="644" on="0"/>
        <pt x="209" y="684" on="0"/>
        <pt x="287" y="705" on="0"/>
        <pt x="326" y="705" on="1"/>
        <pt x="340" y="705" on="0"/>
        <pt x="374" y="702" on="0"/>
        <pt x="408" y="691" on="0"/>
        <pt x="438" y="671" on="0"/>
        <pt x="449" y="654" on="1"/>
        <pt x="475" y="674" on="0"/>
        <pt x="557" y="705" on="0"/>
        <pt x="614" y="705" on="1"/>
        <pt x="626" y="705" on="0"/>
        <pt x="676" y="701" on="0"/>
        <pt x="699" y="692" on="1"/>
        <pt x="705" y="690" on="0"/>
        <pt x="709" y="688" on="0"/>
        <pt x="711" y="688" on="1"/>
      </contour>
      <contour>
        <pt x="175" y="431" on="1"/>
        <pt x="392" y="431" on="1"/>
        <pt x="392" y="544" on="1"/>
        <pt x="392" y="553" on="0"/>
        <pt x="393" y="569" on="0"/>
        <pt x="396" y="579" on="1"/>
        <pt x="386" y="583" on="0"/>
        <pt x="375" y="596" on="0"/>
        <pt x="370" y="608" on="0"/>
        <pt x="369" y="618" on="0"/>
        <pt x="369" y="619" on="1"/>
        <pt x="369" y="641" on="0"/>
        <pt x="395" y="661" on="0"/>
        <pt x="402" y="663" on="1"/>
        <pt x="379" y="675" on="0"/>
        <pt x="334" y="680" on="0"/>
        <pt x="326" y="680" on="1"/>
        <pt x="303" y="680" on="0"/>
        <pt x="250" y="665" on="0"/>
        <pt x="205" y="632" on="0"/>
        <pt x="175" y="579" on="0"/>
        <pt x="175" y="541" on="1"/>
      </contour>
      <contour>
        <pt x="460" y="431" on="1"/>
        <pt x="677" y="431" on="1"/>
        <pt x="677" y="594" on="1"/>
        <pt x="665" y="601" on="0"/>
        <pt x="654" y="622" on="0"/>
        <pt x="654" y="633" on="1"/>
        <pt x="654" y="645" on="0"/>
        <pt x="666" y="667" on="0"/>
        <pt x="677" y="672" on="1"/>
        <pt x="660" y="677" on="0"/>
        <pt x="629" y="680" on="0"/>
        <pt x="613" y="680" on="1"/>
        <pt x="587" y="680" on="0"/>
        <pt x="532" y="664" on="0"/>
        <pt x="488" y="630" on="0"/>
        <pt x="460" y="578" on="0"/>
        <pt x="460" y="541" on="1"/>
      </contour>
    </TTGlyph>
    <TTGlyph name="fi" xMin="28" yMin="0" xMax="540" yMax="705">
      <contour>
        <pt x="463" y="443" on="1"/>
        <pt x="463" y="77" on="1"/>
        <pt x="463" y="60" on="0"/>
        <pt x="469" y="41" on="0"/>
        <pt x="485" y="32" on="0"/>
        <pt x="515" y="31" on="0"/>
        <pt x="540" y="31" on="1"/>
        <pt x="540" y="0" on="1"/>
        <pt x="522" y="1" on="0"/>
        <pt x="495" y="2" on="0"/>
        <pt x="471" y="3" on="0"/>
        <pt x="445" y="3" on="0"/>
        <pt x="427" y="3" on="1"/>
        <pt x="410" y="3" on="0"/>
        <pt x="384" y="3" on="0"/>
        <pt x="359" y="2" on="0"/>
        <pt x="333" y="1" on="0"/>
        <pt x="315" y="0" on="1"/>
        <pt x="315" y="31" on="1"/>
        <pt x="340" y="31" on="0"/>
        <pt x="370" y="32" on="0"/>
        <pt x="387" y="41" on="0"/>
        <pt x="392" y="60" on="0"/>
        <pt x="392" y="77" on="1"/>
        <pt x="392" y="346" on="1"/>
        <pt x="392" y="377" on="0"/>
        <pt x="374" y="400" on="0"/>
        <pt x="339" y="400" on="1"/>
        <pt x="178" y="400" on="1"/>
        <pt x="178" y="77" on="1"/>
        <pt x="178" y="60" on="0"/>
        <pt x="184" y="41" on="0"/>
        <pt x="200" y="32" on="0"/>
        <pt x="230" y="31" on="0"/>
        <pt x="255" y="31" on="1"/>
        <pt x="255" y="0" on="1"/>
        <pt x="237" y="1" on="0"/>
        <pt x="210" y="2" on="0"/>
        <pt x="186" y="3" on="0"/>
        <pt x="160" y="3" on="0"/>
        <pt x="142" y="3" on="1"/>
        <pt x="125" y="3" on="0"/>
        <pt x="99" y="3" on="0"/>
        <pt x="74" y="2" on="0"/>
        <pt x="48" y="1" on="0"/>
        <pt x="30" y="0" on="1"/>
        <pt x="30" y="31" on="1"/>
        <pt x="55" y="31" on="0"/>
        <pt x="85" y="32" on="0"/>
        <pt x="102" y="41" on="0"/>
        <pt x="107" y="60" on="0"/>
        <pt x="107" y="77" on="1"/>
        <pt x="107" y="400" on="1"/>
        <pt x="28" y="400" on="1"/>
        <pt x="28" y="431" on="1"/>
        <pt x="107" y="431" on="1"/>
        <pt x="107" y="544" on="1"/>
        <pt x="107" y="584" on="0"/>
        <pt x="148" y="644" on="0"/>
        <pt x="211" y="685" on="0"/>
        <pt x="290" y="705" on="0"/>
        <pt x="327" y="705" on="1"/>
        <pt x="357" y="705" on="0"/>
        <pt x="407" y="689" on="0"/>
        <pt x="442" y="662" on="0"/>
        <pt x="462" y="624" on="0"/>
        <pt x="462" y="603" on="1"/>
        <pt x="462" y="582" on="0"/>
        <pt x="434" y="556" on="0"/>
        <pt x="414" y="556" on="1"/>
        <pt x="397" y="556" on="0"/>
        <pt x="367" y="580" on="0"/>
        <pt x="367" y="603" on="1"/>
        <pt x="367" y="608" on="0"/>
        <pt x="370" y="622" on="0"/>
        <pt x="380" y="637" on="0"/>
        <pt x="397" y="649" on="0"/>
        <pt x="412" y="650" on="1"/>
        <pt x="393" y="668" on="0"/>
        <pt x="343" y="680" on="0"/>
        <pt x="326" y="680" on="1"/>
        <pt x="305" y="680" on="0"/>
        <pt x="252" y="666" on="0"/>
        <pt x="206" y="633" on="0"/>
        <pt x="175" y="580" on="0"/>
        <pt x="175" y="541" on="1"/>
        <pt x="175" y="431" on="1"/>
        <pt x="297" y="431" on="1"/>
        <pt x="308" y="431" on="0"/>
        <pt x="313" y="431" on="0"/>
        <pt x="315" y="432" on="1"/>
        <pt x="316" y="432" on="0"/>
        <pt x="321" y="433" on="0"/>
        <pt x="333" y="434" on="1"/>
      </contour>
    </TTGlyph>
    <TTGlyph name="five" xMin="51" yMin="-22" xMax="462" yMax="666">
      <contour>
        <pt x="104" y="639" on="1"/>
        <pt x="104" y="652" on="0"/>
        <pt x="107" y="666" on="0"/>
        <pt x="116" y="666" on="1"/>
        <pt x="117" y="666" on="0"/>
        <pt x="121" y="665" on="0"/>
        <pt x="129" y="661" on="1"/>
        <pt x="164" y="647" on="0"/>
        <pt x="231" y="634" on="0"/>
        <pt x="263" y="634" on="1"/>
        <pt x="295" y="634" on="0"/>
        <pt x="363" y="647" on="0"/>
        <pt x="398" y="661" on="1"/>
        <pt x="405" y="665" on="0"/>
        <pt x="409" y="666" on="0"/>
        <pt x="411" y="666" on="1"/>
        <pt x="415" y="666" on="0"/>
        <pt x="422" y="660" on="0"/>
        <pt x="422" y="653" on="1"/>
        <pt x="422" y="648" on="0"/>
        <pt x="396" y="615" on="0"/>
        <pt x="346" y="579" on="0"/>
        <pt x="273" y="551" on="0"/>
        <pt x="227" y="551" on="1"/>
        <pt x="182" y="551" on="0"/>
        <pt x="135" y="565" on="1"/>
        <pt x="135" y="368" on="1"/>
        <pt x="161" y="395" on="0"/>
        <pt x="231" y="420" on="0"/>
        <pt x="267" y="420" on="1"/>
        <pt x="308" y="420" on="0"/>
        <pt x="379" y="385" on="0"/>
        <pt x="432" y="325" on="0"/>
        <pt x="462" y="245" on="0"/>
        <pt x="462" y="200" on="1"/>
        <pt x="462" y="154" on="0"/>
        <pt x="426" y="73" on="0"/>
        <pt x="365" y="13" on="0"/>
        <pt x="283" y="-22" on="0"/>
        <pt x="238" y="-22" on="1"/>
        <pt x="196" y="-22" on="0"/>
        <pt x="128" y="10" on="0"/>
        <pt x="78" y="61" on="0"/>
        <pt x="51" y="127" on="0"/>
        <pt x="51" y="161" on="1"/>
        <pt x="51" y="191" on="0"/>
        <pt x="84" y="213" on="0"/>
        <pt x="100" y="213" on="1"/>
        <pt x="120" y="213" on="0"/>
        <pt x="149" y="187" on="0"/>
        <pt x="149" y="164" on="1"/>
        <pt x="149" y="137" on="0"/>
        <pt x="115" y="115" on="0"/>
        <pt x="100" y="115" on="1"/>
        <pt x="95" y="115" on="0"/>
        <pt x="87" y="117" on="0"/>
        <pt x="86" y="117" on="1"/>
        <pt x="95" y="89" on="0"/>
        <pt x="128" y="48" on="0"/>
        <pt x="168" y="20" on="0"/>
        <pt x="214" y="6" on="0"/>
        <pt x="236" y="6" on="1"/>
        <pt x="265" y="6" on="0"/>
        <pt x="324" y="35" on="0"/>
        <pt x="344" y="67" on="1"/>
        <pt x="355" y="84" on="0"/>
        <pt x="366" y="123" on="0"/>
        <pt x="371" y="160" on="0"/>
        <pt x="372" y="193" on="0"/>
        <pt x="372" y="205" on="1"/>
        <pt x="372" y="219" on="0"/>
        <pt x="369" y="281" on="0"/>
        <pt x="349" y="346" on="0"/>
        <pt x="305" y="395" on="0"/>
        <pt x="265" y="395" on="1"/>
        <pt x="226" y="395" on="0"/>
        <pt x="158" y="361" on="0"/>
        <pt x="135" y="329" on="1"/>
        <pt x="130" y="322" on="0"/>
        <pt x="124" y="316" on="0"/>
        <pt x="118" y="316" on="1"/>
        <pt x="107" y="316" on="0"/>
        <pt x="104" y="331" on="0"/>
        <pt x="104" y="345" on="1"/>
      </contour>
    </TTGlyph>
    <TTGlyph name="fl" xMin="28" yMin="0" xMax="540" yMax="705">
      <contour>
        <pt x="463" y="694" on="1"/>
        <pt x="463" y="77" on="1"/>
        <pt x="463" y="60" on="0"/>
        <pt x="469" y="41" on="0"/>
        <pt x="485" y="32" on="0"/>
        <pt x="515" y="31" on="0"/>
        <pt x="540" y="31" on="1"/>
        <pt x="540" y="0" on="1"/>
        <pt x="522" y="1" on="0"/>
        <pt x="495" y="2" on="0"/>
        <pt x="471" y="3" on="0"/>
        <pt x="445" y="3" on="0"/>
        <pt x="427" y="3" on="1"/>
        <pt x="410" y="3" on="0"/>
        <pt x="384" y="3" on="0"/>
        <pt x="359" y="2" on="0"/>
        <pt x="333" y="1" on="0"/>
        <pt x="315" y="0" on="1"/>
        <pt x="315" y="31" on="1"/>
        <pt x="340" y="31" on="0"/>
        <pt x="370" y="32" on="0"/>
        <pt x="387" y="41" on="0"/>
        <pt x="392" y="60" on="0"/>
        <pt x="392" y="77" on="1"/>
        <pt x="392" y="400" on="1"/>
        <pt x="178" y="400" on="1"/>
        <pt x="178" y="77" on="1"/>
        <pt x="178" y="60" on="0"/>
        <pt x="184" y="41" on="0"/>
        <pt x="200" y="32" on="0"/>
        <pt x="230" y="31" on="0"/>
        <pt x="255" y="31" on="1"/>
        <pt x="255" y="0" on="1"/>
        <pt x="237" y="1" on="0"/>
        <pt x="210" y="2" on="0"/>
        <pt x="186" y="3" on="0"/>
        <pt x="160" y="3" on="0"/>
        <pt x="142" y="3" on="1"/>
        <pt x="125" y="3" on="0"/>
        <pt x="99" y="3" on="0"/>
        <pt x="74" y="2" on="0"/>
        <pt x="48" y="1" on="0"/>
        <pt x="30" y="0" on="1"/>
        <pt x="30" y="31" on="1"/>
        <pt x="55" y="31" on="0"/>
        <pt x="85" y="32" on="0"/>
        <pt x="102" y="41" on="0"/>
        <pt x="107" y="60" on="0"/>
        <pt x="107" y="77" on="1"/>
        <pt x="107" y="400" on="1"/>
        <pt x="28" y="400" on="1"/>
        <pt x="28" y="431" on="1"/>
        <pt x="107" y="431" on="1"/>
        <pt x="107" y="544" on="1"/>
        <pt x="107" y="582" on="0"/>
        <pt x="144" y="642" on="0"/>
        <pt x="206" y="683" on="0"/>
        <pt x="286" y="705" on="0"/>
        <pt x="329" y="705" on="1"/>
        <pt x="341" y="705" on="0"/>
        <pt x="391" y="701" on="0"/>
        <pt x="414" y="692" on="1"/>
        <pt x="420" y="690" on="0"/>
        <pt x="424" y="688" on="0"/>
        <pt x="426" y="688" on="1"/>
      </contour>
      <contour>
        <pt x="175" y="431" on="1"/>
        <pt x="392" y="431" on="1"/>
        <pt x="392" y="594" on="1"/>
        <pt x="380" y="601" on="0"/>
        <pt x="369" y="622" on="0"/>
        <pt x="369" y="633" on="1"/>
        <pt x="369" y="645" on="0"/>
        <pt x="381" y="667" on="0"/>
        <pt x="392" y="672" on="1"/>
        <pt x="375" y="677" on="0"/>
        <pt x="344" y="680" on="0"/>
        <pt x="328" y="680" on="1"/>
        <pt x="302" y="680" on="0"/>
        <pt x="247" y="664" on="0"/>
        <pt x="203" y="630" on="0"/>
        <pt x="175" y="578" on="0"/>
        <pt x="175" y="541" on="1"/>
      </contour>
    </TTGlyph>
    <TTGlyph name="four" xMin="29" yMin="0" xMax="484" yMax="677">
      <contour>
        <pt x="341" y="662" on="1"/>
        <pt x="348" y="673" on="0"/>
        <pt x="354" y="677" on="0"/>
        <pt x="363" y="677" on="1"/>
        <pt x="377" y="677" on="0"/>
        <pt x="382" y="665" on="0"/>
        <pt x="382" y="650" on="1"/>
        <pt x="382" y="196" on="1"/>
        <pt x="484" y="196" on="1"/>
        <pt x="484" y="165" on="1"/>
        <pt x="382" y="165" on="1"/>
        <pt x="382" y="79" on="1"/>
        <pt x="382" y="65" on="0"/>
        <pt x="385" y="47" on="0"/>
        <pt x="400" y="36" on="0"/>
        <pt x="432" y="31" on="0"/>
        <pt x="460" y="31" on="1"/>
        <pt x="482" y="31" on="1"/>
        <pt x="482" y="0" on="1"/>
        <pt x="458" y="1" on="0"/>
        <pt x="410" y="2" on="0"/>
        <pt x="370" y="3" on="0"/>
        <pt x="344" y="3" on="0"/>
        <pt x="342" y="3" on="1"/>
        <pt x="339" y="3" on="0"/>
        <pt x="313" y="3" on="0"/>
        <pt x="273" y="2" on="0"/>
        <pt x="226" y="1" on="0"/>
        <pt x="202" y="0" on="1"/>
        <pt x="202" y="31" on="1"/>
        <pt x="224" y="31" on="1"/>
        <pt x="252" y="31" on="0"/>
        <pt x="284" y="36" on="0"/>
        <pt x="299" y="47" on="0"/>
        <pt x="302" y="65" on="0"/>
        <pt x="302" y="79" on="1"/>
        <pt x="302" y="165" on="1"/>
        <pt x="29" y="165" on="1"/>
        <pt x="29" y="196" on="1"/>
      </contour>
      <contour>
        <pt x="308" y="196" on="1"/>
        <pt x="308" y="566" on="1"/>
        <pt x="61" y="196" on="1"/>
      </contour>
    </TTGlyph>
    <TTGlyph name="g" xMin="29" yMin="-206" xMax="499" yMax="453">
      <contour>
        <pt x="125" y="179" on="1"/>
        <pt x="111" y="159" on="0"/>
        <pt x="111" y="135" on="1"/>
        <pt x="111" y="111" on="0"/>
        <pt x="137" y="75" on="0"/>
        <pt x="159" y="70" on="1"/>
        <pt x="165" y="68" on="0"/>
        <pt x="204" y="68" on="0"/>
        <pt x="219" y="68" on="1"/>
        <pt x="255" y="68" on="0"/>
        <pt x="313" y="67" on="0"/>
        <pt x="363" y="60" on="0"/>
        <pt x="407" y="46" on="0"/>
        <pt x="428" y="33" on="1"/>
        <pt x="456" y="15" on="0"/>
        <pt x="484" y="-45" on="0"/>
        <pt x="484" y="-76" on="1"/>
        <pt x="484" y="-105" on="0"/>
        <pt x="447" y="-153" on="0"/>
        <pt x="385" y="-187" on="0"/>
        <pt x="302" y="-206" on="0"/>
        <pt x="256" y="-206" on="1"/>
        <pt x="208" y="-206" on="0"/>
        <pt x="125" y="-186" on="0"/>
        <pt x="64" y="-151" on="0"/>
        <pt x="29" y="-105" on="0"/>
        <pt x="29" y="-78" on="1"/>
        <pt x="29" y="-43" on="0"/>
        <pt x="82" y="10" on="0"/>
        <pt x="120" y="22" on="1"/>
        <pt x="100" y="36" on="0"/>
        <pt x="77" y="84" on="0"/>
        <pt x="77" y="110" on="1"/>
        <pt x="77" y="127" on="0"/>
        <pt x="86" y="157" on="0"/>
        <pt x="97" y="179" on="0"/>
        <pt x="106" y="192" on="0"/>
        <pt x="107" y="193" on="1"/>
        <pt x="95" y="204" on="0"/>
        <pt x="61" y="257" on="0"/>
        <pt x="61" y="295" on="1"/>
        <pt x="61" y="325" on="0"/>
        <pt x="86" y="378" on="0"/>
        <pt x="131" y="418" on="0"/>
        <pt x="192" y="442" on="0"/>
        <pt x="228" y="442" on="1"/>
        <pt x="260" y="442" on="0"/>
        <pt x="316" y="423" on="0"/>
        <pt x="336" y="406" on="1"/>
        <pt x="362" y="433" on="0"/>
        <pt x="423" y="453" on="0"/>
        <pt x="445" y="453" on="1"/>
        <pt x="460" y="453" on="0"/>
        <pt x="481" y="443" on="0"/>
        <pt x="493" y="428" on="0"/>
        <pt x="499" y="410" on="0"/>
        <pt x="499" y="403" on="1"/>
        <pt x="499" y="387" on="0"/>
        <pt x="480" y="372" on="0"/>
        <pt x="469" y="372" on="1"/>
        <pt x="452" y="372" on="0"/>
        <pt x="439" y="394" on="0"/>
        <pt x="439" y="402" on="1"/>
        <pt x="439" y="416" on="0"/>
        <pt x="448" y="426" on="0"/>
        <pt x="452" y="428" on="1"/>
        <pt x="448" y="428" on="0"/>
        <pt x="427" y="427" on="0"/>
        <pt x="399" y="420" on="0"/>
        <pt x="368" y="406" on="0"/>
        <pt x="353" y="392" on="1"/>
        <pt x="363" y="381" on="0"/>
        <pt x="394" y="332" on="0"/>
        <pt x="394" y="295" on="1"/>
        <pt x="394" y="265" on="0"/>
        <pt x="369" y="212" on="0"/>
        <pt x="324" y="172" on="0"/>
        <pt x="263" y="148" on="0"/>
        <pt x="227" y="148" on="1"/>
        <pt x="192" y="148" on="0"/>
        <pt x="144" y="167" on="0"/>
      </contour>
      <contour>
        <pt x="227" y="175" on="1"/>
        <pt x="261" y="175" on="0"/>
        <pt x="297" y="206" on="0"/>
        <pt x="314" y="247" on="0"/>
        <pt x="317" y="286" on="0"/>
        <pt x="317" y="295" on="1"/>
        <pt x="317" y="304" on="0"/>
        <pt x="314" y="343" on="0"/>
        <pt x="297" y="384" on="0"/>
        <pt x="261" y="415" on="0"/>
        <pt x="227" y="415" on="1"/>
        <pt x="206" y="415" on="0"/>
        <pt x="168" y="395" on="0"/>
        <pt x="157" y="380" on="1"/>
        <pt x="144" y="362" on="0"/>
        <pt x="138" y="315" on="0"/>
        <pt x="138" y="295" on="1"/>
        <pt x="138" y="287" on="0"/>
        <pt x="141" y="247" on="0"/>
        <pt x="157" y="206" on="0"/>
        <pt x="194" y="175" on="0"/>
      </contour>
      <contour>
        <pt x="181" y="5" on="1"/>
        <pt x="149" y="5" on="0"/>
        <pt x="111" y="-16" on="0"/>
        <pt x="91" y="-44" on="0"/>
        <pt x="85" y="-71" on="0"/>
        <pt x="85" y="-77" on="1"/>
        <pt x="85" y="-98" on="0"/>
        <pt x="111" y="-135" on="0"/>
        <pt x="157" y="-163" on="0"/>
        <pt x="220" y="-179" on="0"/>
        <pt x="257" y="-179" on="1"/>
        <pt x="292" y="-179" on="0"/>
        <pt x="355" y="-163" on="0"/>
        <pt x="401" y="-136" on="0"/>
        <pt x="428" y="-98" on="0"/>
        <pt x="428" y="-77" on="1"/>
        <pt x="428" y="-47" on="0"/>
        <pt x="389" y="-13" on="0"/>
        <pt x="336" y="2" on="0"/>
        <pt x="285" y="5" on="0"/>
        <pt x="273" y="5" on="1"/>
      </contour>
    </TTGlyph>
    <TTGlyph name="germandbls" xMin="30" yMin="-11" xMax="484" yMax="705">
      <contour>
        <pt x="325" y="417" on="1"/>
        <pt x="361" y="402" on="0"/>
        <pt x="420" y="353" on="0"/>
        <pt x="462" y="289" on="0"/>
        <pt x="484" y="214" on="0"/>
        <pt x="484" y="174" on="1"/>
        <pt x="484" y="133" on="0"/>
        <pt x="454" y="65" on="0"/>
        <pt x="404" y="16" on="0"/>
        <pt x="339" y="-11" on="0"/>
        <pt x="304" y="-11" on="1"/>
        <pt x="259" y="-11" on="0"/>
        <pt x="208" y="36" on="0"/>
        <pt x="208" y="65" on="1"/>
        <pt x="208" y="88" on="0"/>
        <pt x="236" y="104" on="0"/>
        <pt x="245" y="104" on="1"/>
        <pt x="260" y="104" on="0"/>
        <pt x="282" y="83" on="0"/>
        <pt x="282" y="67" on="1"/>
        <pt x="282" y="45" on="0"/>
        <pt x="261" y="32" on="0"/>
        <pt x="254" y="30" on="1"/>
        <pt x="264" y="22" on="0"/>
        <pt x="290" y="14" on="0"/>
        <pt x="302" y="14" on="1"/>
        <pt x="314" y="14" on="0"/>
        <pt x="350" y="27" on="0"/>
        <pt x="382" y="62" on="0"/>
        <pt x="405" y="124" on="0"/>
        <pt x="405" y="174" on="1"/>
        <pt x="405" y="228" on="0"/>
        <pt x="380" y="312" on="0"/>
        <pt x="338" y="371" on="0"/>
        <pt x="285" y="403" on="0"/>
        <pt x="256" y="406" on="1"/>
        <pt x="245" y="407" on="0"/>
        <pt x="235" y="410" on="0"/>
        <pt x="235" y="418" on="1"/>
        <pt x="235" y="427" on="0"/>
        <pt x="245" y="430" on="0"/>
        <pt x="254" y="431" on="1"/>
        <pt x="313" y="436" on="0"/>
        <pt x="377" y="508" on="0"/>
        <pt x="377" y="563" on="1"/>
        <pt x="377" y="595" on="0"/>
        <pt x="359" y="639" on="0"/>
        <pt x="331" y="667" on="0"/>
        <pt x="296" y="680" on="0"/>
        <pt x="279" y="680" on="1"/>
        <pt x="275" y="680" on="0"/>
        <pt x="242" y="675" on="0"/>
        <pt x="206" y="651" on="0"/>
        <pt x="178" y="601" on="0"/>
        <pt x="178" y="556" on="1"/>
        <pt x="178" y="0" on="1"/>
        <pt x="167" y="2" on="0"/>
        <pt x="143" y="3" on="0"/>
        <pt x="125" y="3" on="1"/>
        <pt x="103" y="3" on="0"/>
        <pt x="51" y="1" on="0"/>
        <pt x="30" y="0" on="1"/>
        <pt x="30" y="31" on="1"/>
        <pt x="55" y="31" on="0"/>
        <pt x="85" y="32" on="0"/>
        <pt x="102" y="41" on="0"/>
        <pt x="107" y="60" on="0"/>
        <pt x="107" y="77" on="1"/>
        <pt x="107" y="400" on="1"/>
        <pt x="30" y="400" on="1"/>
        <pt x="30" y="431" on="1"/>
        <pt x="107" y="431" on="1"/>
        <pt x="107" y="556" on="1"/>
        <pt x="107" y="592" on="0"/>
        <pt x="137" y="648" on="0"/>
        <pt x="186" y="685" on="0"/>
        <pt x="248" y="705" on="0"/>
        <pt x="280" y="705" on="1"/>
        <pt x="318" y="705" on="0"/>
        <pt x="382" y="681" on="0"/>
        <pt x="429" y="642" on="0"/>
        <pt x="456" y="590" on="0"/>
        <pt x="456" y="562" on="1"/>
        <pt x="456" y="536" on="0"/>
        <pt x="435" y="490" on="0"/>
        <pt x="399" y="452" on="0"/>
        <pt x="351" y="425" on="0"/>
      </contour>
    </TTGlyph>
    <TTGlyph name="grave" xMin="110" yMin="508" xMax="301" yMax="698">
      <contour>
        <pt x="129" y="628" on="1"/>
        <pt x="121" y="634" on="0"/>
        <pt x="110" y="647" on="0"/>
        <pt x="110" y="659" on="1"/>
        <pt x="110" y="676" on="0"/>
        <pt x="134" y="698" on="0"/>
        <pt x="148" y="698" on="1"/>
        <pt x="161" y="698" on="0"/>
        <pt x="174" y="686" on="0"/>
        <pt x="182" y="677" on="1"/>
        <pt x="301" y="529" on="1"/>
        <pt x="282" y="508" on="1"/>
      </contour>
    </TTGlyph>
    <TTGlyph name="h" xMin="35" yMin="0" xMax="547" yMax="694">
      <contour>
        <pt x="183" y="351" on="1"/>
        <pt x="184" y="351" on="1"/>
        <pt x="207" y="393" on="0"/>
        <pt x="280" y="442" on="0"/>
        <pt x="331" y="442" on="1"/>
        <pt x="408" y="442" on="0"/>
        <pt x="442" y="401" on="1"/>
        <pt x="453" y="388" on="0"/>
        <pt x="464" y="362" on="0"/>
        <pt x="469" y="329" on="0"/>
        <pt x="470" y="285" on="0"/>
        <pt x="470" y="254" on="1"/>
        <pt x="470" y="62" on="1"/>
        <pt x="471" y="39" on="0"/>
        <pt x="509" y="31" on="0"/>
        <pt x="547" y="31" on="1"/>
        <pt x="547" y="0" on="1"/>
        <pt x="527" y="1" on="0"/>
        <pt x="500" y="2" on="0"/>
        <pt x="476" y="3" on="0"/>
        <pt x="451" y="3" on="0"/>
        <pt x="433" y="3" on="1"/>
        <pt x="415" y="3" on="0"/>
        <pt x="388" y="3" on="0"/>
        <pt x="363" y="2" on="0"/>
        <pt x="337" y="1" on="0"/>
        <pt x="319" y="0" on="1"/>
        <pt x="319" y="31" on="1"/>
        <pt x="344" y="31" on="0"/>
        <pt x="374" y="32" on="0"/>
        <pt x="391" y="41" on="0"/>
        <pt x="396" y="60" on="0"/>
        <pt x="396" y="77" on="1"/>
        <pt x="396" y="308" on="1"/>
        <pt x="396" y="331" on="0"/>
        <pt x="390" y="370" on="0"/>
        <pt x="374" y="400" on="0"/>
        <pt x="346" y="417" on="0"/>
        <pt x="324" y="417" on="1"/>
        <pt x="300" y="417" on="0"/>
        <pt x="251" y="397" on="0"/>
        <pt x="211" y="358" on="0"/>
        <pt x="186" y="299" on="0"/>
        <pt x="186" y="259" on="1"/>
        <pt x="186" y="77" on="1"/>
        <pt x="186" y="60" on="0"/>
        <pt x="192" y="41" on="0"/>
        <pt x="208" y="32" on="0"/>
        <pt x="238" y="31" on="0"/>
        <pt x="263" y="31" on="1"/>
        <pt x="263" y="0" on="1"/>
        <pt x="243" y="1" on="0"/>
        <pt x="216" y="2" on="0"/>
        <pt x="192" y="3" on="0"/>
        <pt x="167" y="3" on="0"/>
        <pt x="149" y="3" on="1"/>
        <pt x="131" y="3" on="0"/>
        <pt x="104" y="3" on="0"/>
        <pt x="79" y="2" on="0"/>
        <pt x="53" y="1" on="0"/>
        <pt x="35" y="0" on="1"/>
        <pt x="35" y="31" on="1"/>
        <pt x="60" y="31" on="0"/>
        <pt x="90" y="32" on="0"/>
        <pt x="107" y="41" on="0"/>
        <pt x="112" y="60" on="0"/>
        <pt x="112" y="77" on="1"/>
        <pt x="112" y="596" on="1"/>
        <pt x="112" y="614" on="0"/>
        <pt x="107" y="636" on="0"/>
        <pt x="91" y="648" on="0"/>
        <pt x="61" y="652" on="0"/>
        <pt x="35" y="652" on="1"/>
        <pt x="35" y="683" on="1"/>
        <pt x="183" y="694" on="1"/>
      </contour>
    </TTGlyph>
    <TTGlyph name="hungarumlaut" xMin="131" yMin="512" xMax="431" yMax="700">
      <contour>
        <pt x="155" y="512" on="1"/>
        <pt x="131" y="525" on="1"/>
        <pt x="140" y="551" on="0"/>
        <pt x="160" y="604" on="0"/>
        <pt x="177" y="649" on="0"/>
        <pt x="188" y="679" on="0"/>
        <pt x="189" y="681" on="1"/>
        <pt x="193" y="688" on="0"/>
        <pt x="208" y="700" on="0"/>
        <pt x="220" y="700" on="1"/>
        <pt x="232" y="700" on="0"/>
        <pt x="260" y="680" on="0"/>
        <pt x="260" y="662" on="1"/>
        <pt x="260" y="658" on="0"/>
        <pt x="256" y="645" on="0"/>
        <pt x="248" y="634" on="1"/>
      </contour>
      <contour>
        <pt x="326" y="512" on="1"/>
        <pt x="302" y="525" on="1"/>
        <pt x="311" y="551" on="0"/>
        <pt x="331" y="604" on="0"/>
        <pt x="348" y="649" on="0"/>
        <pt x="359" y="679" on="0"/>
        <pt x="360" y="681" on="1"/>
        <pt x="364" y="688" on="0"/>
        <pt x="379" y="700" on="0"/>
        <pt x="391" y="700" on="1"/>
        <pt x="403" y="700" on="0"/>
        <pt x="431" y="680" on="0"/>
        <pt x="431" y="662" on="1"/>
        <pt x="431" y="658" on="0"/>
        <pt x="427" y="645" on="0"/>
        <pt x="419" y="634" on="1"/>
      </contour>
    </TTGlyph>
    <TTGlyph name="hyphen" xMin="11" yMin="185" xMax="285" yMax="247">
      <contour>
        <pt x="11" y="185" on="1"/>
        <pt x="11" y="247" on="1"/>
        <pt x="285" y="247" on="1"/>
        <pt x="285" y="185" on="1"/>
      </contour>
    </TTGlyph>
    <TTGlyph name="i" xMin="36" yMin="0" xMax="253" yMax="670">
      <contour>
        <pt x="184" y="75" on="1"/>
        <pt x="184" y="60" on="0"/>
        <pt x="187" y="43" on="0"/>
        <pt x="201" y="34" on="0"/>
        <pt x="229" y="31" on="0"/>
        <pt x="253" y="31" on="1"/>
        <pt x="253" y="0" on="1"/>
        <pt x="216" y="2" on="0"/>
        <pt x="158" y="3" on="0"/>
        <pt x="146" y="3" on="1"/>
        <pt x="130" y="3" on="0"/>
        <pt x="104" y="3" on="0"/>
        <pt x="79" y="2" on="0"/>
        <pt x="53" y="1" on="0"/>
        <pt x="36" y="0" on="1"/>
        <pt x="36" y="31" on="1"/>
        <pt x="61" y="31" on="0"/>
        <pt x="91" y="32" on="0"/>
        <pt x="108" y="41" on="0"/>
        <pt x="113" y="60" on="0"/>
        <pt x="113" y="77" on="1"/>
        <pt x="113" y="345" on="1"/>
        <pt x="113" y="363" on="0"/>
        <pt x="108" y="385" on="0"/>
        <pt x="93" y="397" on="0"/>
        <pt x="64" y="400" on="0"/>
        <pt x="40" y="400" on="1"/>
        <pt x="40" y="431" on="1"/>
        <pt x="184" y="442" on="1"/>
      </contour>
      <contour>
        <pt x="187" y="616" on="1"/>
        <pt x="187" y="593" on="0"/>
        <pt x="156" y="562" on="0"/>
        <pt x="133" y="562" on="1"/>
        <pt x="110" y="562" on="0"/>
        <pt x="79" y="594" on="0"/>
        <pt x="79" y="616" on="1"/>
        <pt x="79" y="638" on="0"/>
        <pt x="110" y="670" on="0"/>
        <pt x="133" y="670" on="1"/>
        <pt x="156" y="670" on="0"/>
        <pt x="187" y="639" on="0"/>
      </contour>
    </TTGlyph>
    <TTGlyph name="j" xMin="-39" yMin="-205" xMax="218" yMax="670">
      <contour>
        <pt x="218" y="-48" on="1"/>
        <pt x="218" y="-83" on="0"/>
        <pt x="196" y="-140" on="0"/>
        <pt x="157" y="-182" on="0"/>
        <pt x="106" y="-205" on="0"/>
        <pt x="76" y="-205" on="1"/>
        <pt x="55" y="-205" on="0"/>
        <pt x="13" y="-195" on="0"/>
        <pt x="-19" y="-174" on="0"/>
        <pt x="-39" y="-145" on="0"/>
        <pt x="-39" y="-125" on="1"/>
        <pt x="-39" y="-105" on="0"/>
        <pt x="-14" y="-78" on="0"/>
        <pt x="8" y="-78" on="1"/>
        <pt x="28" y="-78" on="0"/>
        <pt x="54" y="-104" on="0"/>
        <pt x="54" y="-124" on="1"/>
        <pt x="54" y="-126" on="0"/>
        <pt x="53" y="-138" on="0"/>
        <pt x="47" y="-151" on="0"/>
        <pt x="34" y="-164" on="0"/>
        <pt x="22" y="-168" on="1"/>
        <pt x="40" y="-177" on="0"/>
        <pt x="73" y="-180" on="0"/>
        <pt x="75" y="-180" on="1"/>
        <pt x="101" y="-180" on="0"/>
        <pt x="129" y="-148" on="0"/>
        <pt x="144" y="-105" on="0"/>
        <pt x="147" y="-62" on="0"/>
        <pt x="147" y="-51" on="1"/>
        <pt x="147" y="344" on="1"/>
        <pt x="147" y="362" on="0"/>
        <pt x="142" y="384" on="0"/>
        <pt x="124" y="396" on="0"/>
        <pt x="91" y="400" on="0"/>
        <pt x="62" y="400" on="1"/>
        <pt x="62" y="431" on="1"/>
        <pt x="218" y="442" on="1"/>
      </contour>
      <contour>
        <pt x="218" y="616" on="1"/>
        <pt x="218" y="593" on="0"/>
        <pt x="187" y="562" on="0"/>
        <pt x="164" y="562" on="1"/>
        <pt x="141" y="562" on="0"/>
        <pt x="110" y="593" on="0"/>
        <pt x="110" y="616" on="1"/>
        <pt x="110" y="639" on="0"/>
        <pt x="141" y="670" on="0"/>
        <pt x="164" y="670" on="1"/>
        <pt x="187" y="670" on="0"/>
        <pt x="218" y="639" on="0"/>
      </contour>
    </TTGlyph>
    <TTGlyph name="k" xMin="30" yMin="0" xMax="524" yMax="694">
      <contour>
        <pt x="319" y="336" on="1"/>
        <pt x="326" y="342" on="0"/>
        <pt x="344" y="362" on="0"/>
        <pt x="344" y="376" on="1"/>
        <pt x="344" y="388" on="0"/>
        <pt x="328" y="399" on="0"/>
        <pt x="317" y="400" on="1"/>
        <pt x="317" y="431" on="1"/>
        <pt x="358" y="429" on="0"/>
        <pt x="404" y="428" on="0"/>
        <pt x="427" y="428" on="1"/>
        <pt x="441" y="428" on="0"/>
        <pt x="458" y="428" on="0"/>
        <pt x="472" y="429" on="0"/>
        <pt x="488" y="430" on="0"/>
        <pt x="501" y="431" on="1"/>
        <pt x="501" y="400" on="1"/>
        <pt x="476" y="399" on="0"/>
        <pt x="430" y="383" on="0"/>
        <pt x="382" y="352" on="0"/>
        <pt x="326" y="305" on="0"/>
        <pt x="289" y="273" on="1"/>
        <pt x="431" y="80" on="1"/>
        <pt x="445" y="62" on="0"/>
        <pt x="468" y="42" on="0"/>
        <pt x="490" y="33" on="0"/>
        <pt x="512" y="31" on="0"/>
        <pt x="524" y="31" on="1"/>
        <pt x="524" y="0" on="1"/>
        <pt x="502" y="2" on="0"/>
        <pt x="456" y="3" on="0"/>
        <pt x="434" y="3" on="1"/>
        <pt x="419" y="3" on="0"/>
        <pt x="395" y="3" on="0"/>
        <pt x="370" y="2" on="0"/>
        <pt x="343" y="1" on="0"/>
        <pt x="326" y="0" on="1"/>
        <pt x="326" y="31" on="1"/>
        <pt x="349" y="31" on="0"/>
        <pt x="360" y="45" on="0"/>
        <pt x="360" y="53" on="1"/>
        <pt x="360" y="64" on="0"/>
        <pt x="348" y="84" on="0"/>
        <pt x="336" y="101" on="1"/>
        <pt x="239" y="232" on="1"/>
        <pt x="175" y="178" on="1"/>
        <pt x="175" y="77" on="1"/>
        <pt x="175" y="60" on="0"/>
        <pt x="181" y="41" on="0"/>
        <pt x="197" y="32" on="0"/>
        <pt x="227" y="31" on="0"/>
        <pt x="252" y="31" on="1"/>
        <pt x="252" y="0" on="1"/>
        <pt x="218" y="2" on="0"/>
        <pt x="172" y="3" on="0"/>
        <pt x="141" y="3" on="1"/>
        <pt x="110" y="3" on="0"/>
        <pt x="63" y="2" on="0"/>
        <pt x="30" y="0" on="1"/>
        <pt x="30" y="31" on="1"/>
        <pt x="55" y="31" on="0"/>
        <pt x="85" y="32" on="0"/>
        <pt x="102" y="41" on="0"/>
        <pt x="107" y="60" on="0"/>
        <pt x="107" y="77" on="1"/>
        <pt x="107" y="596" on="1"/>
        <pt x="107" y="614" on="0"/>
        <pt x="102" y="636" on="0"/>
        <pt x="86" y="648" on="0"/>
        <pt x="56" y="652" on="0"/>
        <pt x="30" y="652" on="1"/>
        <pt x="30" y="683" on="1"/>
        <pt x="178" y="694" on="1"/>
        <pt x="178" y="217" on="1"/>
      </contour>
    </TTGlyph>
    <TTGlyph name="l" xMin="36" yMin="0" xMax="261" yMax="694">
      <contour>
        <pt x="184" y="77" on="1"/>
        <pt x="184" y="60" on="0"/>
        <pt x="190" y="41" on="0"/>
        <pt x="206" y="32" on="0"/>
        <pt x="236" y="31" on="0"/>
        <pt x="261" y="31" on="1"/>
        <pt x="261" y="0" on="1"/>
        <pt x="243" y="1" on="0"/>
        <pt x="216" y="2" on="0"/>
        <pt x="192" y="3" on="0"/>
        <pt x="166" y="3" on="0"/>
        <pt x="148" y="3" on="1"/>
        <pt x="131" y="3" on="0"/>
        <pt x="105" y="3" on="0"/>
        <pt x="80" y="2" on="0"/>
        <pt x="54" y="1" on="0"/>
        <pt x="36" y="0" on="1"/>
        <pt x="36" y="31" on="1"/>
        <pt x="61" y="31" on="0"/>
        <pt x="91" y="32" on="0"/>
        <pt x="108" y="41" on="0"/>
        <pt x="113" y="60" on="0"/>
        <pt x="113" y="77" on="1"/>
        <pt x="113" y="596" on="1"/>
        <pt x="113" y="614" on="0"/>
        <pt x="108" y="636" on="0"/>
        <pt x="92" y="648" on="0"/>
        <pt x="62" y="652" on="0"/>
        <pt x="36" y="652" on="1"/>
        <pt x="36" y="683" on="1"/>
        <pt x="184" y="694" on="1"/>
      </contour>
    </TTGlyph>
</ttFont>
